<mxfile host="app.diagrams.net" modified="2023-03-18T08:05:36.317Z" agent="5.0 (Windows NT 10.0; Win64; x64) AppleWebKit/537.36 (KHTML, like Gecko) Chrome/111.0.0.0 Safari/537.36 Edg/111.0.1661.41" etag="OTBWAHFpX83NybkG-31_" version="21.0.6" type="github">
  <diagram name="第 1 页" id="BIIS5ZUtwiGLR0_0Zcbu">
    <mxGraphModel dx="4087" dy="182" grid="1" gridSize="10" guides="1" tooltips="1" connect="1" arrows="1" fold="1" page="1" pageScale="1" pageWidth="827" pageHeight="1169" math="0" shadow="0">
      <root>
        <mxCell id="0" />
        <mxCell id="1" parent="0" />
        <mxCell id="25X_njBewesHGOsOMjHS-1" style="edgeStyle=none;shape=connector;rounded=0;sketch=1;orthogonalLoop=1;jettySize=auto;html=1;exitX=1;exitY=0.5;exitDx=0;exitDy=0;entryX=0;entryY=0.5;entryDx=0;entryDy=0;labelBackgroundColor=default;strokeColor=default;fontFamily=Helvetica;fontSize=12;fontColor=default;endArrow=classic;" parent="1" source="25X_njBewesHGOsOMjHS-4" target="25X_njBewesHGOsOMjHS-7" edge="1">
          <mxGeometry relative="1" as="geometry" />
        </mxCell>
        <mxCell id="25X_njBewesHGOsOMjHS-2" style="edgeStyle=none;shape=connector;rounded=0;sketch=1;orthogonalLoop=1;jettySize=auto;html=1;exitX=0.5;exitY=1;exitDx=0;exitDy=0;entryX=0.5;entryY=0;entryDx=0;entryDy=0;labelBackgroundColor=default;strokeColor=default;fontFamily=Helvetica;fontSize=12;fontColor=default;endArrow=classic;" parent="1" source="25X_njBewesHGOsOMjHS-4" target="25X_njBewesHGOsOMjHS-11" edge="1">
          <mxGeometry relative="1" as="geometry" />
        </mxCell>
        <mxCell id="25X_njBewesHGOsOMjHS-4" value="Redis 持久化" style="rounded=0;whiteSpace=wrap;html=1;comic=1;fillColor=#ffe6cc;strokeColor=#d79b00;" parent="1" vertex="1">
          <mxGeometry x="-488.09000000000003" y="1326" width="120" height="30" as="geometry" />
        </mxCell>
        <mxCell id="25X_njBewesHGOsOMjHS-5" value="" style="edgeStyle=none;shape=connector;rounded=0;sketch=1;orthogonalLoop=1;jettySize=auto;html=1;labelBackgroundColor=default;strokeColor=default;fontFamily=Helvetica;fontSize=12;fontColor=default;endArrow=classic;" parent="1" source="25X_njBewesHGOsOMjHS-7" target="25X_njBewesHGOsOMjHS-23" edge="1">
          <mxGeometry relative="1" as="geometry" />
        </mxCell>
        <mxCell id="25X_njBewesHGOsOMjHS-6" style="edgeStyle=none;shape=connector;rounded=0;sketch=1;orthogonalLoop=1;jettySize=auto;html=1;exitX=1;exitY=0.5;exitDx=0;exitDy=0;entryX=0;entryY=0.5;entryDx=0;entryDy=0;labelBackgroundColor=default;strokeColor=default;fontFamily=Helvetica;fontSize=12;fontColor=default;endArrow=classic;" parent="1" source="25X_njBewesHGOsOMjHS-7" target="25X_njBewesHGOsOMjHS-14" edge="1">
          <mxGeometry relative="1" as="geometry" />
        </mxCell>
        <mxCell id="25X_njBewesHGOsOMjHS-7" value="AOF日志（操作命令）" style="rounded=0;whiteSpace=wrap;html=1;comic=1;fillColor=#dae8fc;strokeColor=#6c8ebf;" parent="1" vertex="1">
          <mxGeometry x="-248.09" y="1326" width="146.5" height="30" as="geometry" />
        </mxCell>
        <mxCell id="25X_njBewesHGOsOMjHS-8" value="" style="edgeStyle=none;shape=connector;rounded=0;sketch=1;orthogonalLoop=1;jettySize=auto;html=1;labelBackgroundColor=default;strokeColor=default;fontFamily=Helvetica;fontSize=12;fontColor=default;endArrow=classic;" parent="1" source="25X_njBewesHGOsOMjHS-11" target="25X_njBewesHGOsOMjHS-31" edge="1">
          <mxGeometry relative="1" as="geometry" />
        </mxCell>
        <mxCell id="25X_njBewesHGOsOMjHS-9" value="" style="edgeStyle=none;shape=connector;rounded=0;sketch=1;orthogonalLoop=1;jettySize=auto;html=1;labelBackgroundColor=default;strokeColor=default;fontFamily=Helvetica;fontSize=12;fontColor=default;endArrow=classic;" parent="1" source="25X_njBewesHGOsOMjHS-11" target="25X_njBewesHGOsOMjHS-31" edge="1">
          <mxGeometry relative="1" as="geometry" />
        </mxCell>
        <mxCell id="25X_njBewesHGOsOMjHS-10" value="" style="edgeStyle=none;shape=connector;rounded=0;sketch=1;orthogonalLoop=1;jettySize=auto;html=1;labelBackgroundColor=default;strokeColor=default;fontFamily=Helvetica;fontSize=12;fontColor=default;endArrow=classic;" parent="1" source="25X_njBewesHGOsOMjHS-11" target="25X_njBewesHGOsOMjHS-33" edge="1">
          <mxGeometry relative="1" as="geometry" />
        </mxCell>
        <mxCell id="25X_njBewesHGOsOMjHS-11" value="RDB快照（二进制数据）" style="rounded=0;whiteSpace=wrap;html=1;comic=1;fillColor=#dae8fc;strokeColor=#6c8ebf;" parent="1" vertex="1">
          <mxGeometry x="-501.34000000000003" y="1456" width="146.5" height="30" as="geometry" />
        </mxCell>
        <mxCell id="25X_njBewesHGOsOMjHS-12" style="edgeStyle=none;shape=connector;rounded=0;sketch=1;orthogonalLoop=1;jettySize=auto;html=1;exitX=0.5;exitY=1;exitDx=0;exitDy=0;entryX=0.5;entryY=0;entryDx=0;entryDy=0;labelBackgroundColor=default;strokeColor=default;fontFamily=Helvetica;fontSize=12;fontColor=default;endArrow=classic;" parent="1" source="25X_njBewesHGOsOMjHS-13" target="25X_njBewesHGOsOMjHS-38" edge="1">
          <mxGeometry relative="1" as="geometry" />
        </mxCell>
        <mxCell id="rkg9Pep6N8VOkwFGjG1r-2" value="" style="edgeStyle=orthogonalEdgeStyle;rounded=0;orthogonalLoop=1;jettySize=auto;html=1;fontSize=12;sketch=1;curved=1;" edge="1" parent="1" source="25X_njBewesHGOsOMjHS-13" target="rkg9Pep6N8VOkwFGjG1r-1">
          <mxGeometry relative="1" as="geometry" />
        </mxCell>
        <mxCell id="25X_njBewesHGOsOMjHS-13" value="混合持久化方式" style="rounded=0;whiteSpace=wrap;html=1;comic=1;fillColor=#dae8fc;strokeColor=#6c8ebf;" parent="1" vertex="1">
          <mxGeometry x="-1033.5" y="2310" width="146.5" height="30" as="geometry" />
        </mxCell>
        <mxCell id="25X_njBewesHGOsOMjHS-14" value="Container" style="swimlane;" parent="1" vertex="1">
          <mxGeometry x="96.59" y="1230" width="370" height="222" as="geometry" />
        </mxCell>
        <mxCell id="25X_njBewesHGOsOMjHS-15" style="edgeStyle=none;shape=connector;rounded=0;sketch=1;orthogonalLoop=1;jettySize=auto;html=1;exitX=1;exitY=0.5;exitDx=0;exitDy=0;labelBackgroundColor=default;strokeColor=default;fontFamily=Helvetica;fontSize=12;fontColor=default;endArrow=classic;" parent="25X_njBewesHGOsOMjHS-14" source="25X_njBewesHGOsOMjHS-17" target="25X_njBewesHGOsOMjHS-20" edge="1">
          <mxGeometry relative="1" as="geometry" />
        </mxCell>
        <mxCell id="25X_njBewesHGOsOMjHS-16" value="发送命令&lt;br&gt;set name xiaolin" style="edgeLabel;html=1;align=center;verticalAlign=middle;resizable=0;points=[];fontSize=12;fontFamily=Helvetica;fontColor=default;" parent="25X_njBewesHGOsOMjHS-15" vertex="1" connectable="0">
          <mxGeometry x="-0.2012" relative="1" as="geometry">
            <mxPoint as="offset" />
          </mxGeometry>
        </mxCell>
        <mxCell id="25X_njBewesHGOsOMjHS-17" value="客户端" style="ellipse;whiteSpace=wrap;html=1;fillColor=#d5e8d4;strokeColor=#82b366;" parent="25X_njBewesHGOsOMjHS-14" vertex="1">
          <mxGeometry x="20" y="152" width="68" height="50" as="geometry" />
        </mxCell>
        <mxCell id="25X_njBewesHGOsOMjHS-18" style="edgeStyle=none;shape=connector;rounded=0;sketch=1;orthogonalLoop=1;jettySize=auto;html=1;exitX=1;exitY=0.5;exitDx=0;exitDy=0;labelBackgroundColor=default;strokeColor=default;fontFamily=Helvetica;fontSize=12;fontColor=default;endArrow=classic;" parent="25X_njBewesHGOsOMjHS-14" source="25X_njBewesHGOsOMjHS-20" target="25X_njBewesHGOsOMjHS-21" edge="1">
          <mxGeometry relative="1" as="geometry">
            <mxPoint x="490" y="115.40000000000009" as="targetPoint" />
          </mxGeometry>
        </mxCell>
        <mxCell id="25X_njBewesHGOsOMjHS-19" value="记录日志" style="edgeLabel;html=1;align=center;verticalAlign=middle;resizable=0;points=[];fontSize=12;fontFamily=Helvetica;fontColor=default;" parent="25X_njBewesHGOsOMjHS-18" vertex="1" connectable="0">
          <mxGeometry x="-0.2811" y="-2" relative="1" as="geometry">
            <mxPoint as="offset" />
          </mxGeometry>
        </mxCell>
        <mxCell id="25X_njBewesHGOsOMjHS-20" value="redis" style="rounded=0;whiteSpace=wrap;html=1;comic=1;fillColor=#ffe6cc;strokeColor=#d79b00;" parent="25X_njBewesHGOsOMjHS-14" vertex="1">
          <mxGeometry x="60" y="42.00000000000001" width="120" height="30" as="geometry" />
        </mxCell>
        <mxCell id="25X_njBewesHGOsOMjHS-21" value="*&lt;br&gt;$3&lt;br&gt;set&lt;br&gt;$4&lt;br&gt;name&lt;br&gt;$7&lt;br&gt;xiaolin" style="rounded=0;whiteSpace=wrap;html=1;comic=1;fillColor=#b0e3e6;strokeColor=#0e8088;fontFamily=Helvetica;fontSize=12;fontColor=default;" parent="25X_njBewesHGOsOMjHS-14" vertex="1">
          <mxGeometry x="260" y="62" width="70" height="140" as="geometry" />
        </mxCell>
        <mxCell id="25X_njBewesHGOsOMjHS-22" value="" style="edgeStyle=none;shape=connector;rounded=0;sketch=1;orthogonalLoop=1;jettySize=auto;html=1;labelBackgroundColor=default;strokeColor=default;fontFamily=Helvetica;fontSize=12;fontColor=default;endArrow=classic;" parent="1" source="25X_njBewesHGOsOMjHS-23" target="25X_njBewesHGOsOMjHS-25" edge="1">
          <mxGeometry relative="1" as="geometry" />
        </mxCell>
        <mxCell id="25X_njBewesHGOsOMjHS-67" style="edgeStyle=none;shape=connector;rounded=0;sketch=1;orthogonalLoop=1;jettySize=auto;html=1;exitX=1;exitY=0.5;exitDx=0;exitDy=0;entryX=0;entryY=0.5;entryDx=0;entryDy=0;labelBackgroundColor=default;strokeColor=default;fontFamily=Helvetica;fontSize=12;fontColor=default;endArrow=classic;" parent="1" source="25X_njBewesHGOsOMjHS-23" target="25X_njBewesHGOsOMjHS-65" edge="1">
          <mxGeometry relative="1" as="geometry" />
        </mxCell>
        <mxCell id="25X_njBewesHGOsOMjHS-70" value="" style="edgeStyle=none;shape=connector;rounded=0;sketch=1;orthogonalLoop=1;jettySize=auto;html=1;labelBackgroundColor=default;strokeColor=default;fontFamily=Helvetica;fontSize=12;fontColor=default;endArrow=classic;" parent="1" source="25X_njBewesHGOsOMjHS-23" target="25X_njBewesHGOsOMjHS-69" edge="1">
          <mxGeometry relative="1" as="geometry" />
        </mxCell>
        <mxCell id="25X_njBewesHGOsOMjHS-23" value="为什么先执行命令再把数据写入日志" style="rounded=0;whiteSpace=wrap;html=1;comic=1;fillColor=#dae8fc;strokeColor=#6c8ebf;" parent="1" vertex="1">
          <mxGeometry x="-240" y="1606" width="146.5" height="30" as="geometry" />
        </mxCell>
        <mxCell id="25X_njBewesHGOsOMjHS-24" value="" style="edgeStyle=none;shape=connector;rounded=0;sketch=1;orthogonalLoop=1;jettySize=auto;html=1;labelBackgroundColor=default;strokeColor=default;fontFamily=Helvetica;fontSize=12;fontColor=default;endArrow=classic;" parent="1" source="25X_njBewesHGOsOMjHS-25" target="25X_njBewesHGOsOMjHS-27" edge="1">
          <mxGeometry relative="1" as="geometry" />
        </mxCell>
        <mxCell id="25X_njBewesHGOsOMjHS-75" style="edgeStyle=none;shape=connector;rounded=0;sketch=1;orthogonalLoop=1;jettySize=auto;html=1;exitX=1;exitY=0.5;exitDx=0;exitDy=0;entryX=0;entryY=0.5;entryDx=0;entryDy=0;labelBackgroundColor=default;strokeColor=default;fontFamily=Helvetica;fontSize=12;fontColor=default;endArrow=classic;" parent="1" source="25X_njBewesHGOsOMjHS-25" target="25X_njBewesHGOsOMjHS-74" edge="1">
          <mxGeometry relative="1" as="geometry" />
        </mxCell>
        <mxCell id="25X_njBewesHGOsOMjHS-25" value="写回策略有几种" style="rounded=0;whiteSpace=wrap;html=1;comic=1;fillColor=#dae8fc;strokeColor=#6c8ebf;" parent="1" vertex="1">
          <mxGeometry x="-240" y="1828.78" width="146.5" height="30" as="geometry" />
        </mxCell>
        <mxCell id="25X_njBewesHGOsOMjHS-26" value="" style="edgeStyle=none;shape=connector;rounded=0;sketch=1;orthogonalLoop=1;jettySize=auto;html=1;labelBackgroundColor=default;strokeColor=default;fontFamily=Helvetica;fontSize=12;fontColor=default;endArrow=classic;" parent="1" source="25X_njBewesHGOsOMjHS-27" target="25X_njBewesHGOsOMjHS-29" edge="1">
          <mxGeometry relative="1" as="geometry" />
        </mxCell>
        <mxCell id="rkg9Pep6N8VOkwFGjG1r-12" style="edgeStyle=orthogonalEdgeStyle;shape=connector;rounded=0;sketch=1;orthogonalLoop=1;jettySize=auto;html=1;entryX=0.5;entryY=0;entryDx=0;entryDy=0;labelBackgroundColor=default;strokeColor=default;fontFamily=Helvetica;fontSize=12;fontColor=default;endArrow=classic;curved=1;" edge="1" parent="1" source="25X_njBewesHGOsOMjHS-27" target="rkg9Pep6N8VOkwFGjG1r-11">
          <mxGeometry relative="1" as="geometry" />
        </mxCell>
        <mxCell id="25X_njBewesHGOsOMjHS-27" value="AOF日志过大，会触发什么机制" style="rounded=0;whiteSpace=wrap;html=1;comic=1;fillColor=#dae8fc;strokeColor=#6c8ebf;" parent="1" vertex="1">
          <mxGeometry x="-240" y="1930" width="146.5" height="30" as="geometry" />
        </mxCell>
        <mxCell id="rkg9Pep6N8VOkwFGjG1r-8" style="edgeStyle=orthogonalEdgeStyle;shape=connector;rounded=0;sketch=1;orthogonalLoop=1;jettySize=auto;html=1;exitX=0.5;exitY=1;exitDx=0;exitDy=0;entryX=0.5;entryY=0;entryDx=0;entryDy=0;labelBackgroundColor=default;strokeColor=default;fontFamily=Helvetica;fontSize=12;fontColor=default;endArrow=classic;curved=1;" edge="1" parent="1" source="25X_njBewesHGOsOMjHS-29" target="rkg9Pep6N8VOkwFGjG1r-7">
          <mxGeometry relative="1" as="geometry" />
        </mxCell>
        <mxCell id="rkg9Pep6N8VOkwFGjG1r-13" style="edgeStyle=orthogonalEdgeStyle;shape=connector;curved=1;rounded=0;sketch=1;orthogonalLoop=1;jettySize=auto;html=1;exitX=1;exitY=0.5;exitDx=0;exitDy=0;entryX=0;entryY=0.5;entryDx=0;entryDy=0;labelBackgroundColor=default;strokeColor=default;fontFamily=Helvetica;fontSize=12;fontColor=default;endArrow=classic;" edge="1" parent="1" source="25X_njBewesHGOsOMjHS-29" target="25X_njBewesHGOsOMjHS-43">
          <mxGeometry relative="1" as="geometry" />
        </mxCell>
        <mxCell id="25X_njBewesHGOsOMjHS-29" value="AOF重写" style="rounded=0;whiteSpace=wrap;html=1;comic=1;fillColor=#d5e8d4;strokeColor=#82b366;" parent="1" vertex="1">
          <mxGeometry x="-550" y="2120" width="146.5" height="30" as="geometry" />
        </mxCell>
        <mxCell id="25X_njBewesHGOsOMjHS-30" value="" style="edgeStyle=none;shape=connector;rounded=0;sketch=1;orthogonalLoop=1;jettySize=auto;html=1;labelBackgroundColor=default;strokeColor=default;fontFamily=Helvetica;fontSize=12;fontColor=default;endArrow=classic;" parent="1" source="25X_njBewesHGOsOMjHS-31" target="25X_njBewesHGOsOMjHS-37" edge="1">
          <mxGeometry relative="1" as="geometry" />
        </mxCell>
        <mxCell id="25X_njBewesHGOsOMjHS-31" value="redis主进程" style="rounded=0;whiteSpace=wrap;html=1;comic=1;fillColor=#dae8fc;strokeColor=#6c8ebf;" parent="1" vertex="1">
          <mxGeometry x="-411.34000000000003" y="1566" width="146.5" height="30" as="geometry" />
        </mxCell>
        <mxCell id="25X_njBewesHGOsOMjHS-32" value="" style="edgeStyle=none;shape=connector;rounded=0;sketch=1;orthogonalLoop=1;jettySize=auto;html=1;labelBackgroundColor=default;strokeColor=default;fontFamily=Helvetica;fontSize=12;fontColor=default;endArrow=classic;" parent="1" source="25X_njBewesHGOsOMjHS-33" target="25X_njBewesHGOsOMjHS-35" edge="1">
          <mxGeometry relative="1" as="geometry" />
        </mxCell>
        <mxCell id="25X_njBewesHGOsOMjHS-33" value="子进程" style="rounded=0;whiteSpace=wrap;html=1;comic=1;fillColor=#dae8fc;strokeColor=#6c8ebf;" parent="1" vertex="1">
          <mxGeometry x="-578.09" y="1566" width="146.5" height="30" as="geometry" />
        </mxCell>
        <mxCell id="25X_njBewesHGOsOMjHS-34" style="edgeStyle=none;shape=connector;rounded=0;sketch=1;orthogonalLoop=1;jettySize=auto;html=1;exitX=0.5;exitY=1;exitDx=0;exitDy=0;entryX=0.5;entryY=0;entryDx=0;entryDy=0;labelBackgroundColor=default;strokeColor=default;fontFamily=Helvetica;fontSize=12;fontColor=default;endArrow=classic;" parent="1" source="25X_njBewesHGOsOMjHS-35" target="25X_njBewesHGOsOMjHS-61" edge="1">
          <mxGeometry relative="1" as="geometry" />
        </mxCell>
        <mxCell id="25X_njBewesHGOsOMjHS-35" value="bgsave" style="rounded=0;whiteSpace=wrap;html=1;comic=1;fillColor=#dae8fc;strokeColor=#6c8ebf;" parent="1" vertex="1">
          <mxGeometry x="-578.09" y="1636" width="146.5" height="30" as="geometry" />
        </mxCell>
        <mxCell id="25X_njBewesHGOsOMjHS-36" style="edgeStyle=none;shape=connector;rounded=0;sketch=1;orthogonalLoop=1;jettySize=auto;html=1;exitX=0.5;exitY=1;exitDx=0;exitDy=0;labelBackgroundColor=default;strokeColor=default;fontFamily=Helvetica;fontSize=12;fontColor=default;endArrow=classic;" parent="1" source="25X_njBewesHGOsOMjHS-37" edge="1">
          <mxGeometry relative="1" as="geometry">
            <mxPoint x="-418.09000000000003" y="1706" as="targetPoint" />
          </mxGeometry>
        </mxCell>
        <mxCell id="25X_njBewesHGOsOMjHS-37" value="save" style="rounded=0;whiteSpace=wrap;html=1;comic=1;fillColor=#dae8fc;strokeColor=#6c8ebf;" parent="1" vertex="1">
          <mxGeometry x="-411.34000000000003" y="1636" width="146.5" height="30" as="geometry" />
        </mxCell>
        <mxCell id="25X_njBewesHGOsOMjHS-38" value="Container" style="swimlane;fontFamily=Helvetica;fontSize=12;fontColor=default;" parent="1" vertex="1">
          <mxGeometry x="-1062.41" y="2440" width="204.33" height="200" as="geometry" />
        </mxCell>
        <mxCell id="25X_njBewesHGOsOMjHS-39" value="" style="edgeStyle=none;shape=connector;rounded=0;sketch=1;orthogonalLoop=1;jettySize=auto;html=1;labelBackgroundColor=default;strokeColor=default;fontFamily=Helvetica;fontSize=12;fontColor=default;endArrow=classic;" parent="25X_njBewesHGOsOMjHS-38" source="25X_njBewesHGOsOMjHS-40" target="25X_njBewesHGOsOMjHS-41" edge="1">
          <mxGeometry relative="1" as="geometry" />
        </mxCell>
        <mxCell id="25X_njBewesHGOsOMjHS-40" value="RDB内容" style="rounded=0;whiteSpace=wrap;html=1;comic=1;fillColor=#ffe6cc;strokeColor=#d79b00;fontFamily=Helvetica;fontSize=12;fontColor=default;" parent="25X_njBewesHGOsOMjHS-38" vertex="1">
          <mxGeometry x="42.329999999999984" y="60" width="120" height="30" as="geometry" />
        </mxCell>
        <mxCell id="25X_njBewesHGOsOMjHS-41" value="AOF内容" style="rounded=0;whiteSpace=wrap;html=1;comic=1;fillColor=#ffe6cc;strokeColor=#d79b00;fontFamily=Helvetica;fontSize=12;fontColor=default;" parent="25X_njBewesHGOsOMjHS-38" vertex="1">
          <mxGeometry x="42.329999999999984" y="143" width="120" height="30" as="geometry" />
        </mxCell>
        <mxCell id="25X_njBewesHGOsOMjHS-42" style="edgeStyle=none;shape=connector;rounded=0;sketch=1;orthogonalLoop=1;jettySize=auto;html=1;exitX=0.5;exitY=1;exitDx=0;exitDy=0;entryX=0.488;entryY=-0.001;entryDx=0;entryDy=0;entryPerimeter=0;labelBackgroundColor=default;strokeColor=default;fontFamily=Helvetica;fontSize=12;fontColor=default;endArrow=classic;" parent="1" source="25X_njBewesHGOsOMjHS-43" target="25X_njBewesHGOsOMjHS-44" edge="1">
          <mxGeometry relative="1" as="geometry" />
        </mxCell>
        <mxCell id="rkg9Pep6N8VOkwFGjG1r-16" style="edgeStyle=orthogonalEdgeStyle;shape=connector;curved=1;rounded=0;sketch=1;orthogonalLoop=1;jettySize=auto;html=1;exitX=1;exitY=0.5;exitDx=0;exitDy=0;labelBackgroundColor=default;strokeColor=default;fontFamily=Helvetica;fontSize=12;fontColor=default;endArrow=classic;" edge="1" parent="1" source="25X_njBewesHGOsOMjHS-43" target="rkg9Pep6N8VOkwFGjG1r-15">
          <mxGeometry relative="1" as="geometry">
            <Array as="points">
              <mxPoint x="790" y="2045" />
              <mxPoint x="790" y="2760" />
            </Array>
          </mxGeometry>
        </mxCell>
        <mxCell id="rkg9Pep6N8VOkwFGjG1r-17" value="这三种策略只是在控制fsync()函数的调用时机" style="edgeLabel;html=1;align=center;verticalAlign=middle;resizable=0;points=[];fontSize=12;fontFamily=Helvetica;fontColor=default;" vertex="1" connectable="0" parent="rkg9Pep6N8VOkwFGjG1r-16">
          <mxGeometry x="0.4147" y="37" relative="1" as="geometry">
            <mxPoint as="offset" />
          </mxGeometry>
        </mxCell>
        <mxCell id="25X_njBewesHGOsOMjHS-43" value="" style="shape=image;verticalLabelPosition=bottom;labelBackgroundColor=default;verticalAlign=top;aspect=fixed;imageAspect=0;image=data:image/webp,UklGRmxkAABXRUJQVlA4WAoAAAAIAAAAggYApgEAVlA4IAJkAAAw0AGdASqDBqcBPpFGnUwlo6KiIdWpwLASCWdu/CX5w+E/VPlJFLGq/r9mv85HLFe8Sy7/lfAp6Pv8R04/Sr5mP2u/WD3hPTf/lPR0/qvrZ+sj/YfUA/YD1qv/f+4HxOf33/velJqxHiP+v/2b9ePAL+xf2z9ff79/7vWv8X+V/sX9p/yP+T/t37T/C3/J/37xB9Ff6r+7ep38h+wf3b+5f5b/df3f5tfsH96/uH7X/5L0R+G/8R9vHyC/kH8h/uv9k/xX++/tXyIfS/6jtr9O/1/+//0f7k/AF6rfNP8z/df8h/2f816If8t/nP8F/0/3/+S/0v+4f6D/Bfk99gH8l/pf+m/vf7y/43///+T8A/1Xg7ffv87/0P898Af82/uH/Z/0H+y/bT6X/5z/r/6X/d/tz7Zfz3/Hf9z/Rf7b9pvsJ/mv9g/5n+K/0H7Q/OL///+j8FP3D////R///yyft3///+wLE9TPXfecf1foEpaJFwJ834JQnRMt0usfQ1UaYiaE14QrcKmMoMA/93ah1RXpwRv+X1LcXFJD0/mgn2mFLQJg2n4dp43nJPKZleEHTRXbye7J0yXX/09IdkRpucRsDrIdGtsVYM1bKB7eADtFkKmX1puhYD8OBBtj7YnmB+OM20nvJm0Fo11pdfIb7zCUIDOkAML9Emy+oljg6pF+kSFOehhCwcvGfIqcIVu5EFXtci1SOmpebo8I1J68fv+ct7CyNVUkpKdnoucSg5mT0t6AHVj34Cc20eLEGHY4pR/oZr9kIAB4WVVihUwzX7IQADwsl7o3IQUuEfS3CPpbhH0twj6W4R9LcI+dQna/lt1ND+qpxnQEcxtosevySq2Ra60/ijcpeVTb/aEKJMOsQgHGoALqhTnO3/yUIgQqfZqdHoQf+IhzmFKUb/Sk2FlVXx0t8BkFi7xrOsekgiG9EvZZsAia2VE68A+pBqaVdV7zrQ/FiUiRt/CXt3fx2LkvmVuiC1N7aGvhhqh33NfRXsg+fNbIoBn/+Kj0W7rE4oElVYoVMM1+yEAA8LKqxQqYZr9kD2ZHXUGmQKmGa/VhlqsUM1DNftH4tFCphmv2QgAINAqrFCphmv2QgAHhZVWKFTDNfshAAPCutnJrAA9kAKEAFfKGpqJFrhvD5RJDbIkhtkSQ2yJIaxCF7i/KkH/64soruiZIpvEnV3iTq7xJ1dhbz6o8rjwsqrFCphmv2QgAHhZVWKFTDNZ+zwPCyqsUKmGYYipSo47afj4ouk/m6z80gOkqqzxVoQFZBfAuv9UqrhMoVMLgoRr2iL5CkLxctNs6imy5lfa7xfPKkIAB4NJYxo7a6jlpakivFBe2JFK91nt+sqMxQqYZr9kHuBel88qQgAHhZMzhs/WkIABZIZaUDtMqrFA/VwADsh0xmbgsTOcNSkJJQn4KNN9lOMVFQ+XRzuZWRqqv9I6IiBaFQaGG9XLDXxOqS19wLk7ZtP81eM8r8ZnCySxbE6D9mPefJh9FpRUcF9siWih/XSanwhivJ/ZjLPqByCm8WoeTVXeJA2IRMfxWI8QliOiRnCuRonxaK2NTcj+JVIoPkLIbRt2QsKgJZkQkfezwPCyqsUKmGYYipYYBHnePlP2AcIGchNarGeHqF47hpfolQtcl0b+TNIudABV6YQoXJ72nThfOZMzBoCi0HLDh0ss5JQrjSjmrA5I59J2gHS2OsZWhMO5wPCyph2DlrTr3075P78SovCzTa8n4LqB9CWIF5nI4YflJV4mE5sKoccgxELo81HNexaNVum00VDEvr4nvrLDLVYoVL73FYHZ7xVoV/Xye/F0SQ5pOd6BrACtCmnfsUqAsyo5ouptF5w3GqIIc5U+BV9h5eQJ+ejoA7qBqUaG35UZBt8AXwg++gJYDigOw0kXuo2wAb7jKxrPAtPaGuz1xUehsHlU9IQADwsqrFA/VvcBlFpVYg0GqCcGq3UoPBW++MrNd2Q410Kbs21Cqu02sOxXKQjTehpeVH8IgHqkxxHOQn20LuLjGqvnXwD/SsaMYQOxtn31UeBgR0I5fRhKw+xseFlljZVgwpuz1D6RMvE7CHiy+Dm3kWDf28Ie0DYCe5tKQSysF8GLmj0Nmm0WxYhZtM/YFbzCHW0cJ4Gwv1OWHTj28AHhZVWKB+reoudb1VsAKGasl1SAWSry8LKqvdJzWDf5KWT7AEkpRjB+rrjxeJ3ZaUEs9OZQtL/Q4Cev5rBqwzMxiEwNqfulvrw70+Q2+rp6hNOUvJvcoVggRsvQI2XoEbLzOjl2fmWxZ/i5vQLYrg2XwsV+REUmBSaBeNXyD3vP8ZhQSyppgLX9vpkCC5r9Tn17kIDBBZvHFwgfi0rjvSLn1qKSzue/XiUPik6JrrQSUKmGa/ZCAAYI+j6oxt1sR42JOrvEnV3iTq7xJ1d4hk4nv94HFCgJ3iNmMjpNOVLnjBK+zJegRsvQI2XoEbI/ODghWlb7AVCdbqDtUXTOdiQ0veafbqkq3o/sxrXVlyh04BgL4NlGRQhagXjZDnlSEAA8LKqc3qKmGfaMfKJ6AQ4zoZV3iFxjutlPgaJ05M2lueOj9l/eKP2YLAHnlXeIVMJIBkogInaY7J32t1dHio4Rc8ZJg6bxXi9H1wEQl7tJBpIUGXVkpxTmP8+YQszpPggrUlObMzPLot6iRAB+GzXVXKl0pTA/EP5F1xdGSi2eZzpllRXfFl6BV7tn/cEZFHte80qXM04LsTe3JWMHMiY3M+fnLbkFErxrMOLAkLEoWvVCphmv18CS4WZGx1h4gPs8hiJlfSP8eGGa/ZCAAeFcWE0KshiXDcvWc57MIpY+7d5Dt5EdNZhoElf4keE797h6DXzfB4HIobXe0XyfHmtg0VctMNZpJtGn/LdEQe79uf/SlbjRZIYymdu5TL9a1QvLvjRMf4YCoe4ot3b1SHIc4rSaKp1NxbBRD9CRNHjvRbxNkS0P/aLrcckCMhz73eA947wuqDLHspHH/sxCLWkzc72Gx9Y+oSfjBYH8Sg4AN/0Zh9UlL43PckCc9odA4te+TwTYC5ojYNfFBFCkM/yovsBEYOP9pc7e5jthULh/UJ8qotdMffwAEdjmAZJUmEh1WD/P5TeVcf/Yip47YY3RcsLzo2GM0ewsqrFCphmv2mjxPccymStQ7hvRkiawAPCyqsUKxrknzzfGdxuVJDRFq2gfiVUb5abZz3WxYzhtmXi8UGgQ5TPo39jtSG07gvdw4ievJp51X8GFDPJJXapvUDCWKLL2Sh7CvZIbZEkNsiSG2RJDbHHJeth3nD7z3CAFpcqZkbH6RKGEhsiSG2RJDbIkhtj8KByAHWcyk1rA8LP6bBigBN+ClghAAPCypJ4uI5Sm4AHhZVWLdpw7W6i16oVMM1/gUwanOV5/Qxb9qC/cMZ6q2PT5jTgD36a7evFKpYnRt4PFBVZMSiphbntb1FUxp071KvsDhD1A5fPKkHutwisimkU3iTq7xJ1d4k6u8RIYcopCSUKmGa/Vhpx7eADwsqrFA/VvcCSQ2AmoPyApnJz+/Il2mWhs/mFxCvO4v7ThL8A0Cgstnc8wuzh2MsGrFCpBxoOhxQ6L+/9C8mDFlykzZA1dyp13GKhHxEo0k84fY3N7OKx4HtrPDesylKzTE53hrNaKv2SPEGE29OrACn8ebFWKFTDNfshAAPCyqsUKmGa/ZB//GyHPKkIAB4WVU5vUH6st6sB3+tv0N883qPsRC44dy2n9LVY7r7D7JPFfnwGqdBxg//Ygj71pCAAYHGjyI2u9NzHfXLzEG41A1sCEYKqFyKEkAOXOcRBNp+IZ4W7VzJqFmFE6S1sd8YzIW6qW6S2NB5Lso9hZVWKFTDNfshAAPCyqsUKmGa/Vhpx7eADwsqrFA/VvcCOtVxvnHXvczop932CLyxdaHh7LSBtsi588PY3kDX3XFRnPMVnTR5tXnaH3rSEAAwR9fo2VXFAmyE2DVihUwzX7IQADwsqrFCphmv2Qf/xshzypCAAeFlVOb1AvD38Gsht6x66ZngOQzwHIZ8/kM+Z12EQ7AEfZZflVYkJ208CerxpApAjZegRsvQI2XoEbIYX/oqGqI8XzypCAAeFlVYoVMM1+yEAA8LKqc4BfPKkIAB4WVMOxXPMN/lByaw4b5v655UhEF5ty25bctuW3LbhpdkJJQqYZr9kIAB4WVVihUwzX7IPcC9L55UhAAPCyZnDfshAAPCyqsUKmGa/ZCAAeFlVYoVMM1+yEAA8LKqxQqYZr9kIAB4WVMO8gAHhZVWKFS+5w37IQADwsqrFCphmv2QgAHhZVWKFTDNfshAAPCyqsUKmGa/ZCAAeFlTDvIAB4WVVihUvucN+yEAA8LKqxQqYZr9kIAB4WVVihUwzX7IQADwsqrFCphmv2QgAHhZUkojh0D6W4R9LcI+luEfS3CPpbhHzJYm1VYoVMM1+yEAA8LKqxQqYZr9kIAB4WVVihUwzX7IQADwsqrFCphmv2QgAHhZVWKFTDNfshAAPCyqsUKmGa/ZCAAeFlVYoVMM1+yEAA8LKqxQqYZr9kIAB4WVUvOwSZGcWcaELFh17iXJgxEIk37aLYshQDdZYiwwjd07LE05rq5PFVoeZ9BlN2cM9WrOq1dna4VvEzgmczXmp+X8aiIut0gVYWfK6Z7prZCSUKmGa/ZCAAeFlVYoVMM1+yEAA8LKqxQqYZr9kIAB4WVVihUwtXRsYx8WulB+sUHp+Af0HpIxSaVEQKlwj9jOuyAMZS5BtgphhD+652IR1lVG6ZgQK/yzritwAzNYzCtC+d7/Yp52jym0AklfEKfd4m2a8xlSHlMLNh2JzD//yUQ0wwTiywlOwbhmjwns8U7gcL9qRfp0obSGtrOC3eJRSlB7X7hDSyjbOFVYoVMM1+yEAA8LKqxQqYZr9kIAB4WVVihUwzX7IQADwsqrFCphqA7oISShUxLQPA5BiVKAAD+/7VQpPu2sunb1GMtRCx08CylFBWUzwgHRX3ytWHrtOA/TL4EKvnlvU04dBzrfl+j0QfXmd/hUhKf7CGWIV1CRofb+60eLARDLWN8HPmhHjXP/tvLMWpBeXsQb8xrHvWGT1dIeFt9YaOATz5EOEGL9j+Zy+hOCzuipQAEtR+ANNSx9N+roS1G+brt5ueXyoDdXS+N5SjCsSMz6liTkG5e68JSMLHrXJ9dUMoG2aIMQ4x6kxyVZ1sfwRPKohRFqN7MMPZHv+0jrPBPhKDxSFktAFR0VT80Cu/Kftx9IJaurFuTuXDO0DB09k2zSiTKvrbtW3OAOWBS2grE2flPT6S0ay97ugAokTWJpIBeX3ps8aO+AlY4645QQXL0dUkMRfPjP1M4pbz5jiCP6hPeMrVEeT5natLPflTnacT8HArM5TnNurc5dD7tB8M4Nj8oR55PHthBXD8B1xP2HttevyRRsTEsFsM1bwssYHt3W/usVpVXSDem1oyjgaY+0CV0h9ukTDFfxH+5usl/XKiR+ngQmprJD7L6kVTyDp1Pkd7zPo3oz1KJkgBv+RCtwAXoOIdxkKKrk7OuRRRZrBffuumzI+11kdYxpXOzj6gOXlUL0jbMzx6n8lsnM+YouMOSngSukJfN1py0/Tum5IdQslpwKyrjFMqsx+ussLF9NBRRrob417RyhtE1ypF/9fqE87niYpNxcElNA+Rv4ytunSzB0yDr7cnkao0p+9v3/5Rg48SRGI2RREAhZWqjJceNl0sS6hQqlTh1yDLjkTnsuKcdIxXPynClfSva5e3g13ICNUDjMkOFzmbnyquo3UT/M2n2KYHO6G8SqUFatcyb0NPkKI9OAhXEvrH/93qAvs17UX25R12OuAkNNR8CP3nGeDTx3kY4QYQX0LvuNXhVO9pLFW7/kMdI4YBarf1u0TaZCbHsWW8+k0ccfq+LiB0IBGzu7nyGoEcCrMPJ3SWcebCCCzfGOniEsw7ZgDarigJw1KJ60gFNpiInDao/p3pTrA7TG3qMNmBeV7Ctv9ONTbbk4p/rRItmeycH9xSHbw+H3K8RLZI7ilKexrG8DD1fL2pMGjcbBaHkYgFiwZeIBCh3rO9RT/CWhcC36K+6WzAs3AL0RJlmDUD0YYZx40xpH+s0OgeHaVT5qkHdFY6EscvyGvOVzUUrECA4QN8PCbVX8UhtI5LTWD1plu7YBMruqQo8B2QgsDDnIAdv4Uncby5tTiFmZkAUW82widLjRWDwJ0t6+zl1qswoNq/MC91qfj2jGX6oh66MvOHa1uvM7702XMQ8mXBdHTkJaN5wrYksWpTb370ZPTMHjRO1vho/SNA0qnbVHWhpQzRD3E2KjOCVUavkX/Scv7NLyiBm/ctpPJ4HQ7nzZV+9EDIhwQFGh0+ey1/rKXgthNnE+911kfdCorVt1C2ql1xNyuax9mxHCy4kA3VhDVu4iHQtK/wxiHP9pvVKmN3OveYWLKy+x4ZaQsH/pBeUc+LjLXAUe4K1+IZCiJXm82mGQibhQLhbRaua1YrfJCTuO2v4qTnKnsX+w88VA0eZadFhzMazFnPjmW5f3yb0MkYqSfjCM5BxHSaQPDZG2axbSrSzpYcbWGcUWW6W0jwEta8NHfjIaPeCLUnWtoZfT03rUKBwo2TpY0e0qM0J2Bd22B5J3EJohnEnzWSITk5wzGlaVmKnxdRZfzvOy5JGw/KqQQjrKj7tNIFRkFX+8N9eqUgFF49H+CwmeIqlDjRBwYmiBqr/l0yW0pZnRDAink69SmoPEsSjgQ43uyrftdmfO7DuRk2Qe4NP2YcOCQWtSdobdENqhFJ6OHlX4+vnxq0ZB++TK4VfXkmv14gjSxYt1HyaCx0/k/lVJMEikqNY14QnX9tUrJri+9cSA/mWHQdlX77bPXGggAnyBXHjqK366Z15/e6qK83g4fakG/R9aX1ZxfjeDTiWuOAREJt9geEnuxewZ0CWVV3DrUqgCuCjqTHAZsbZGOJBdqYtjaD903J+fxoF0A10nfKhlOKLYjC3SrXTtaIr02O3gZZ8N6WwM2tuhShBwD2Wu06nSqypPrnEvT4SkSOAS6IaFqwsRmYJ569XvVXT3yp9AJjGbM34i1Ob1hy1lsk5m6w348gr8kDVbl0951aqUJuATmk8AsmuO1c71l/QyPk01jhgHWtrC6PjYz5lnBV89A0kM6lF1IDrZCC3gIjsfGwxA3GTcnklbpjIDmVRthKl0q1753L4CkDXARQjbgtN1eRGD+jE2Z1cCXVQEhOUzfMD1uhO+LaAedqfxNf/XoxI1i5VXVQZW/mDHHMIE5AaYXN1XSpqODRlRXa1oC6lw5Qp8ToVRl2d5n2g5BZZ7gXS9MgmsgLliIQZSHNeH4biSGvMqj+fM+GbDyP6cZ54oiZABc3LadUo86YMEMyWub0jjpbOsd9NY79lMM3j3qPpV7TvVIZPn4rhaIOHvClNNOKuwvWf/fhQU1wZ701YA1VoE63TlEGf7UrbIGVibWFrKc8si0l+gvvJ4kgIcVsVKmgY+dgNwH3/57HUO6VLto9LbbDPjSmgw5+b7ID+Gy+E2I5hDRuG4etX01ZUjcTvssqGTqfXRcApyO4s+SngisMN25S8IZ47sgre4fZjPjmLZ8BpiOESOnaMtjKlRkWn77jR5v0sNNQ76jafBXUFk4y04RcGmqmK2BhuUH24iV7EKhiqL4hVG1j+yFKQBF7RvXCBPmlOQfdnv2qz+EIlr2RHP02Mewe+sha5aXa370lESe+F81Yn1AF7WiNWUenpATK4MXPCdUvUwUXOnrU5EtT5urCgTdZWpO4X0OMVDt8ejvzfq22IPEgIDcEPPj1OVwP3EDWtHHaWbBE17tQk/vsOo0H0uSyOQ25JBTPcnqIwCIa8qUEUMhJswe0cXUbXjw0fX+LoN7Mn9b/NgeDNlHWZ+vejoc9Qcemn+dRioXU8W5JCL9og16nAc9cpSFWZ+m7miIbfaNTCAkb5lOeyn+w5aPi4XsdmKEmG3PhVVpBeyF4St2hItXnzbbvgkgNj9WLYzRyDz2W63D+v7fo+mFi/vGvCrnAAHOVxWr9L/U36rQJNE49lyDmKXvORuM/elJn1Fy/LgfyiJJtqyCyCyCyCyCyCyCyCyCyCyCyCwCwUVaFGLTxTZXCD+icRxuyGGyCPq097ebwcf69uiflr8kC8pAbuAqNwVs6GP1tpjuNERqlGjK2u/4ahuds/DDRASqa/L/GLm6uaEnvVn/a+NcEzgUOAUrTA99BRGiTvhbFVIoFLDT/Se8nzxUlFOLE8biKolTzhiNb03TrGensM7ciJKjaXYQqQBQbWp9B4TY1EMbB6HeWOvmzCkvd6lN/zWAVH9A58ou+0UDb6pdgbXpFIa81PgWK3Bb528+7Bdr+G5siEqHT1UWnwNvtQmLlF9Q5TSY/X+RLMF3Q9DIi182xA80TXeIRBB5XEL/HrDsDHiQf89472aoeII4SZhL0zaSjW1h/gufHOa/EkHj2UWHuMlwwnYILZFGTsXeBaAKK5YscDT8S6FxExWmbPMCnL0/1yZS+XWEoQlM+Tnf+j2UtWJlCz7Td+yk/Gq32yswIeXFBovoJ9V0L6bzGR9m87GQ7scFdkLaX77T/xUAK6riRDcal1NvkyUdTQ3gAYRAAiis4FGG0c0B5DlKDYoua/tHUzzXN+AcHcrlC7rqNp3JNTbdRpFVXopNXo+1c7/WUbZGJJ/wEGW2d7EEZkLWa6z3wammAU6UG63Rujvv5ojjJAnK8bovnr6MOvtPNdpFSIm1ydjLmHcDv6+thx3xjQ3Lo/6DF53qnNbQPG+8G6E5EHRA2LL6xXbsAuTBgW+rcV4YGb0hGp01z6pf8pAbOknUfAm5WM/Fz4l/QcEGmXeADhbhkxzshKVkX7jMDvQOrwL0gFFgf6U1LNcQVbHnDSEd5HKdSwXjOZq19xvEneHMHZ4uctGBaI8vLca1hdsKb+A60NU+LskBLQh6HgNKqjcZo8YVazDVBgJPdvpjAE938TUqZowBVYikgTVT2bdiDDP2yBIpjj1/3sXPNXACRNlhVOCa87J5t2Pie+1TYcjXAGryLGl5/8ldr6nB36QOm4A79R3L6fm2+YllQITtPPxlEnRF/EgDy9lhtOwkb+z6ldXsjhR7QJ6bgBGyK0sevaGCzq38LQqkRt6v2CGagB33q1x8py5Z/lvjVz9qHzbyJVDrL2BB6IUCOrwucsSID+0Z7RjN4fuGDB7GEK27sN53JbSyae74Es5DN+pFL9VCchmpdp0edpIOYMkSpoJWCwgcYwORj0xO4F96s94/+UwwQB7VzsMas54S5uxiU6f7Tv7V2mle96iFP3n4a4g5s8XEYmIP2sHQz+CcnNF7Kl92wGWHcfyfSXV0kEJIZv3s/eW6Z+tovgIGW+BpOILvtoLblJ7TooL70Hh9teCZtEfUnopwkVx1dBlH3iLUQV+SKBEMlrgWlIpRuyAGfRHLG2qGcv/Jdp5v3YQDvVQC660Y1FUB0MELeYqYlY5zrU7ATzAvb14E6LbuFaSfRrsJ2x1zMnMitz86CvWo9ZACsRITOgMfM/3YLq2t49zUzA1afaXdHwFla0q04OQqamzqEiZ1kf5x9SCFVr3ci806lwSDRyNzG42gpOe9LHfnjlDJsZ/93c3WAwpqBofIvGkw9fmjmQP9DNUY0fsLoHxaTBfugoOGj87SheH2q1hamI1Y4OjYzE7WDtcFekVvv2iWtEhRJbQfEEQUHTmn8O1xyb5LW0oV+Zxghyk5WHkZ2zCAkohX3ndoKkZ2N5SmboIo24ET9PYBrmQSbbDGwFDGTOK2HpJgaXdG7UdQ9XKuvgQMUSEgBmR9YEEv5uf1Bo7FEE7nMN4I7DxKmmFR4aV8gv4p+CVLfkdy0cDKZa5WeoRK6LtkGsMMJgAAFguepE200M+F3gG84uQPCUg6Wt88wcr3abHHXNzHMRNZ5BEYAAAAAAL1rAABoMNWBFmlQwkZNGgvaHdvVIqDmgAfEnnonTbVs86U61/eJEoWTBDEpV+htCzjT6agkn70mv9vhCZHI+gsP3sxyCuTHwcSnvxoaCFtHy96sAgCQlUC7N7LP4wNygMwh/JmeHOLUjaVCalRuYGCrJhgjwIK4zgAAGIAKGLRZLBLvUTAlr+wK8KQuA4POV047cSrkStWujPDzkOmpjAAAAAy6DbJJd5ZttBRbOZHA/rHk+rxT81XyzFWGQ6UN338J1GgooGZR67YX1XnIcmAghMxGuSxdI3iSZnsJCIyr+1atV/atV/OeWdKSd/oFglYjLKMLh8yerPpQHaVJ4pd/EfQFpV4EJp7CADiW6AVXCR/xVLna1f5El3y3PeYaarzashjTOLAfi9DCqRPMccHNia0OH6lZ7nmWiniPZBrhMfRsulCYFGA4/T/nVRHJdpyk63VA3ulxPhzLDW/DMoRzHGt3oMUWgTQz93siL+GBsUtI/WRHbZ0h9duvbdNmhYc+jZPp9JAwpGuoIy7aJN//gV6YIvGiGY5/R+hFEvBlLoWfaAoC44/vEI1QLbq9VG2yINAWtcdtEMEh5ZWB8k7v3qX8tRNcaL0wFAVXOJvUjK5H+PAxPQu5n04apfvB2EmRdVgpO7aQQAMnKCoSG3TNc0L3oQeuYVqBc4oMgNZq4kKegA1LVSoQ9dmBk7YuaYSQbRu5px1Do8i0cRQlW6ENtABp2GZRGOGkJWyn3B1xYFUAm//BuYL7fuPudLiBxZhuicOF7owK+a9IuX+vL6FvUh4dkxf+q2aMJi17sfxswDUB/DsbQTpU2eypBapXcfmEBZuCL5Ehi+ssojVaHkmAQZPnN9aqxtI2PS2LZExmzk3bXmRJDqEgAE7eJH6+yoA/irnkbgWWOKOuAhLXDlF3uOSRf5eWDaQNai+sI/Ezs0BDxT6qYVgq3fyI6ojo4A42XcqIeef6AvAqCUdcHsH4m+uky7HL+WObXVNp5ZqCtzvN+nthwM6Qpd5KVUzaIZlj1pOnCIy6k4wVyzJf0109KcCuRsNGGBDSUthF5DoV3yMHg4pyKVC4/DDE1FbYK6oVchMOi0PlP3q5/oET4feaHVDHlHVbly7QrHRnLYDzCNYUy3xhSxWfX+4JpQfFlcYrcCFMMVDOqFnwFwEsWO/jrCcJl5tbn6mHsN9NNmR+q+glca02rojEYzRpy+6oC/jwoMyI64M8gdbww9mFY/6E3v59OsxfQIP68NEIlycDxLxPzV6RafEnS/skHLbFaJ7Q9QBWqZXruGmupEVQaiQDZ6puV3bjyLgQELFxM6294k/dnH8AyKHTM3zeRQF2nYegbVRKqoUlDHBypUTQHD2Pi0JiWoUPKS6TzuRAr6gZijCNjOYjcn3LKUWV+VDAVdI4biD+CQRcgXs3zYARF5lFQvUF5uxXIEe3GbkM07BxWkXjvTNWbFfVTx942kuYTm+WXjkN7qPgZOjusOUxw3C2uOP/xo02aa37OELy6sCa+YvI8KzQsmsb5ql9DA5zoo/WJLtQeLHlqVIlz3TAZBFOdoN+qKfvCpKzBxghWQgLh+5YY3kqXPxjO6iJNRqqTeRKc63sJ8EtW8X+/69CujBr77dwN907eHil599AEwEaNm4aNRGkCM+NciSx66Zgqf3T2UhYEA2JGTipTL8nRjBV2KrypHI8RHHAbmlbhwQB31vc3ZcySDDqVpqNhhY3DC03FTgSxjc/0LG582nAw3oNAqdHHUa3TTTrldqLQK+Cz3m+pPFhCqb7yw2qczbvDVAIA5g1fhpV4eeSKthq75wS/219qGxWgGugwVFyB+TAdAmbpi+XoQEeJRZSYT7ewgtwb47nhsmh/j1KFqw8cdzAyFxpQZKC3XYsW+HzpcTntbz7XQxZvan1WuoYJUm7NYFRZD7PMxmp1czd5Z+Dwu0TlPsiAeGtJGvx+4vKS2nYvJBjvZfRU/osV2Zes5uEQvO4NQARRtRO/qcEqSw8LtkEYjHktX9Q0peDns5Dg3F8EW8vmnA0kIVkN1zV0pYbe5BHkQX2Is5LASwOCeDmy3bHCPpMHnxJuuMd6h/EpH7JywuSG8zBFTMWkb9GhDnJqUF4C9ioayx505YC/zquCjX/7xHyzJzGPynb7+V43qPV4UpKXhUJyY9WFvEgWDjlRfU7lQLlIpNTThmrcdRvrAjWlcG5CDUsn400hrXWv+ewyhb2QIpbWWZrYBNUgC7bcmEfdD3blMo7Biuk/WXOBZj+MIh5qAgkfV0wELpPDCW+iUaZrG4T2Exd+ogIebkN2ZJHuYAMIhvfe7z0GoOAsUf20f7c7CWfJTSgnMnTH2x6+EJOKk0fugmKY4jCV3GUhP8DacD2jYAQGDrM1CyZi3bwwvK2CNKiv1X9KvSdnTXjojz/ud/1oc+nIMhfr2VaeXwBeMZzUybp6hL29McBpy6HvykBHJ1Wf0+4bHrcww3v1xmVsjJ+lWM1lYfhnvZ3925Ip7+n0tPtT+szBdS/G9fZa3xYZDWirVAr2fFU4UKi4DSnzV5SwcqTPOrIXsv7YJXMj1y2k+QLIM+8vfA/M/SXUVleY4yrW5pUHbuwKMJVZQhw6uf/FeXMBxmpLo56U1QmcxjTC5o5/Qdu0m8SEeo7tUKCRqetHIjyjsVryoS2AbgORdaV9zLNau4y7IwW93Q/kfoSL3Ew9cu0mn4Z2webBELA2jj3AaJYcN/BgD9EQfRgLWwlo5FSfZRe2w0SS1aa9GGNjoPZJkE9lpeBC3OUavyzF39aKhQllBusBLFRNq3Rk16TSNwsDN859DbcFKzJDzTvWS9KvEyDazHtzBrLklgYXx5zU3p8vl/WfX+Nnd1ENympCekrsFn7o2/pCk2a7WbcRBPUSGAc/esuDFOKq+0oVeThsOQpWy/GY6oZSkJ9OgbQAUf7RkjkivW9p2LEgG8PuRCuTIzn4xObnN9G8FMRgD4enPYkUz0S0nw/za5SnujEV8SGJPX7MSUjqqwuwz95Ugr30kV5QVkC4fs2nnJdUYkO1aTOHRQ3PYqWkDTqgx+4g2IMlZhw2uAXz0X/DUo2eIp477p99jNmhx/D3x1R9j1tpL8oLFTLTbZTYI3Q03s499tUVrwyVJ1O6Tm73Zn0vz8zNPm9lJFFtSfwLILXaZSGOV5vg7g7P4ooO61rm017Yv9sTdEI1ogwwhdjvE5hsVCuZ3tweAcbPQkYkldny5aTLjYVDQcoK9lzv7xBt1aZG/2985XrXeTZheIpQAI/CfQDIV7H2HqYDTbl6sJM5qJyFCuBjzzFLmx1OdOV2o43hcUchyzGj5D8X6WIvaRJXITdN5rqA+hbUW578qWScwVrLayHg9BOjZQNsioG/e/IpXSdOd7dWydSwBqf4YN7UOBu5/bqKl2bgC0IWh7nt+aHLJPHSHL/x0GCCPbXiaR9GKSTKzmgbbr6vNRqy6EJcONfYH006Zyuc26z4lrKlRsMHltbR4R7VPyBem40pCbYq1hlMx52z7njJW6I8b3kotglC+K7mtbWa143GPf318rW+RZMHvlBRMP8o7HXSaqFg1UisxHtwb0OCLAdwecHfusI6xNs5vFLjLuNJfgTGmF+SFM7ZteyD5JUpCrjKdD7pFD8zy7C0yDv8z9NhT7t28o9DU03qyGP+sMtAUahdZIqkvZnKqM6cYWVGI6Yx8mcRWi4Y3WqYaxHnPlo0j3nLuO6oGbowNHeXY4Nnr/9lcTwSuhug9iF+vt2EVHHpvFjDcuY8WHOe3v6UGN4/DV+uWEYPwVjZpRHkCtaSg+XfMK3iahr5/1IhEqGqqXaZsLkfYCHKVks0xpAmqngpavOwzs78Xy56nguwQ7KUqZzG+KQ13OqD3VjKeRQVEqLTDUqko9M7A612Db3lGAxD0dCxLO7LwXmlLB76VX8pXg9aTV3ZextfcxqwPjrWu1hwooquy9Cqy3OTQPcI7CsXBfXDXq3AF1LTkKNjF1jFE21T2MDIm2m/lWY88sTRw6LyF0wJC17poRLO1vA3EbkEI4NIZcjYlOWrPKXlME37sEuNmkoELuC7Pi/qBC9T8xFgikLVZpYezfuDtbtPRGTPHTO3c8YdUnTN3zFr2TT5jgHkvPLM1CjzdMyvNXmsPvRSnCj5nykr339DQ2dx4rKxcFb/KnlU8kMSLfNgSfAqey0q2P+yOFxNkrjqk24iRacXFSIaLskZQV0XsS5SJsJd0DjK8FzfnlSwcza5ncqdBvpXjZ8Yxx3irqS8sl+S48qm9UGxG4fHAYqmWuAKYm2/xiqtjwVyeooZ5GudksmhzBHQb4fC1FMBSfaDm/L+29istXMsHvgVU1CsB30laT2B3u7Hsx8zKBg8yfkJc1vBuLSuNaXf2fPZIYCTw2+z7/1bxg9NQl9eynCAailemEHO75zkwiqhfXsrB0qXN3Sm+AxS4VDSPHE2BaTtXKcZSRGdrcngb9c1MF3J4HN2mqXOauLg4n9QEqjB4nGSEb7Kr+kKtdyEHNPuAeVKu6Ls8oG+slv9fxHL4dMLz2bcRJNJPSMbfEjL0xXfSFHjUb+M2gqN9QzGN89lWkXEZS43+J6YAsthanNS4SoO6itMwFmfFzRCaCG+aD/rfub6AwBTxFMqR7r8iTQmjZPEVasgk2Flg59AVAw1xcFSbro1oB01GzETdoC0DWgsnFt5glPLFPB6hp5W2pMLFg7rsmmnS/TH/h8dFlHXnzn2I5gLk18pqSipd93Hov0Ho+V0YHS+2sxTkkHYpPxQ00YBWxtMlxlPT1YK62sIPrV5kH8EzLZr1/UhudIRc9sezeWiqF0pS9QcOIIiuoZnuyVqVBx341VNr9UYnfUljUWQ6VhxMEcazkc51Efx3ER+HSQv9dLossYGCOzC64EtSr9KgfKaUJq/RgAA3FPTkfKkuqtBtB2CJFdAQ1bIulQZFHA3MFunS9+8WWx6L1wPwWFBv777bX/6/opVnvsZidR1Fiwpk1AVmHi8Nbzl/Ntmi6bwsHOHg+C1AMxIxWe2i9Blxr7UF4FQ08pm/gQ1f8RYCRAF1Y0bdQLFDWgAYhDz+gKFw1w6hRYkqntgveV/hVAikfxgiVIrXHTUkmAulVGo2qvbaNzjSCPQbL815U9bQf+M0fRTRUETDZWPfu+b13Z1R5susfgVJzqMRXgFzxfRrdw7ogO8F/y2n6YubbBLcn/8Sb0+hJJPjCHGWGjV2Q7bAVdLf9rmOD1yfHxwKlu2Cemus8cEEap/pG/GbpJL2MD8yayaipEoXNnGNILXD+eLfMO0Kp+15Ay2o1h2VbsYSgD6Clh7Su3a4iCwD05hcx+hVQRVWObDefWdOhfQYk+b/vvgidGOCzf7px70MTBay9G+RUheB0Wi7RTm30TbLyqDYw/0W0LJzSJ9LiME65e2QK2s3aNtZGjWeFSYLu3HlgA+mOB/msNsts57miOoCaJwcHP6cdgT8LiAsszuRmXe5u9r5PoqP26w+dLx7HUOYSdaURV0BzsaO9pG70Cz/qL2QgPqeT5cBsP8vgz/rzPrmkq+yhtHNKWs3klZrfn/dwJ6yJ92cLmtAsCoeFUit8eogjO7yu5V+mS6Jq6GWWoIMqA1Y63sJzWaBd8O4yu/Jmk673xuLXI8wPzpc8k7elxj03KBU8JBNs/bOt42ReulxX+Cem01xY3Sd09zrX6U2SZLMUNSwPpA3ZctyHnEquOE4JlLJGz2iromlDbP/iTusCW9wR9ijl8AGjcK1ZabbKDYn5fsUejnF8S1Bc1OOy7lYKrq18X23Pfu0VBCIX/bdK1owKvZjolPEpQI42sRvNTdGC94oBo/k6ZpmtP0GE8y57Q4Kou8xW5UXEplztnGp0bEhKcdI6J6wk5Z6SBDSCqlBVtaEw7R1475ugb+Qp+1reRzLrbJc6B0gRbvimevWNp7f8x8jJI9moWkbfLcTubgz8BsYNGoDLWKaM/yYv/oIdgxkp/cgT4lUP2QebVPtkMxz373FTQmXHhV+KWjvWYtT2nG0k2/IR24RPJPoL/evVTtx0nJ/5/XKo1qbxaehYGRl+hy7Pn96k0L5E+NFXemMgUfgDzBjltOUXmwvkoQf5hsqbzytX+7vEAqiJlZLby3FD5DO1ljLYXfs0vo1t87+yxpBbSjrYTu3qh1aJ6mNZ5qDsMV6Nlk8Y2h+SBw2zc0hWusa35F84oxWrSiWpkcUmIXxyIGoF6rm+kXyi0m596UpoIxWBRQlLfsHL/eAxBj3pw3cCqTXIjN5g5A1JTwVudltkLbpDXDSTUSrG2UwnQ3pv5EFYBBNkwdFtCgaldI0YV6jUrOEFdAwJkC3g5NibS8/2p16GCaWe6pW6+TR5Y63tjdrDDmv4OfyhDqemPnihRYdEi1DVEZyrc8U/xlOiG8SE/3LemquTfN7mnEF9MFDx92ws66z093I+xxSzxDcPIUWGjBTVHNKZWSxdIb0iZwc7ZqWM0Sv10RvbDComIFDi83mWnoY3UvFPSnjkxtt+Dn2DvcFqQHEX0TsxBliDf7jjxGY5VMkZPtsvivYo+O5TITkaZijixMZ5a+LJCvEyffOWrtVM4aF6yMMb3YSQXVDnuW9N4aqGmD6Agln8Z2UvEt4lhnzKk266NywHTC3f/eZd0j8JaccLLJco9ITAgWzKt7ZEZgMV98538690zmBA4d6Acepkm6zp3zMl6QP8minx0FLU6CM044NJ07PNoug7Y5PGYRh4C/KVsEJ7hvNnPHqjneTebcb6p4QDe7oRY+n0CHNf25mdoeD+qTkuGoBwgdNn3DSOOokNNsreBElzYxJw/UOQmwmGH8vGxXjIj1CnGPnFa1TF+Pkc1kGT03LssstZvth8l6+TDXdhr26VBv61NQ5vBLKgQ0Zt/wAbKkuoxaVbPOcD0cGmX/y5WiQIavrKneY84kzqR/uugm3KDp9ffnX/aKaGfjx2QC0wij56mtcBmrZFLMXO2KdK9SsWnEbAmAF+B7tJ7Qc2XxVWwMnhjuzGLui9qrZXdoUt16hSPVLPylkgolen7pzA9sDuFR+lB+HY6OAwkmDEtT2jD36m55iLma5Vqc1vlBPBEtwvuAa+h3KmuP30B++yO4ZJ2nfHIPCgrNVQ54w6u54alr2UmqSdPe6ijFoyzEOEFZWlmPNeCfhgDJbCjP6vPhaU7F9ClmO4yXy2Ia9a1GeSu2py+WfMQHUP1ZbnLVlEG1kusZnbj0Mw9gGXp/XM8A3bNwC6CPTBuBdM/sIr1XdfYIRshGlKxJTNz3d1WSDdGqcZJH8u8ulFoeBNmF3zDiNMpYL2Wad2Fp9T8wQoiZGXtUMIuqXnUy9BAntica9iyjHun2ZFYfcAL6X8WDs4e5IIpHmC2chmP6ZC1QDXsEsKQ0H/dUvsRkulWWmrzcDgM+hMZuxRtigZQAAewnLC4tI4tO/MBiWN3wzUSyZ1Vgn6h7+hm4C9vVtH2p6QcKXxOKXsUWW818sT6Phqe1aYSclw6oe8X21Txx89A/NMz0FmIG0b9jvcwKI7Wr3sYbxCd+Rp7/m4CnZaJaiqDRW2gYXs0CtEo0X7p2bqysNjR2OjuDgZBxIWEKNDPOYdFX3Tdi/DxWmz9f9bFXjuFenzEMntXsmT9Zvx1oaxEoloL3QIAczB7T+JPOY3/KPG1Z/3ZFRbl/9cDhF1Ju/lymv4TcdBgez4wTdpLztzDL8WggCxZrWTQSO91fVCJJkKttUimV+9PwIMGDWcQDtTd+jWLa0p4SUhJAO+TsEz8LHVecWhhaGg1QAft0qEdDoy6YorgimiHhL/+6H+9+f/mY+naXYIdgRltkK1m9OefYmmHmZ9hRatzjQnmSc1e6HlbqnQ3k2dKv/AFQtCZVwibmxXmArP93EmfLayZ3jvR7IHLp0Q31zUp/h0aixElGfY7ng/hJViO97Z/iUmvqilwItllsQCopsErlH0oB1SN1IdHpBV0x9+Y/fNLSme5kfKWOovjvQSApHhFTqPfFa+9lgz6qyxmzPPR5IRTyCQxhakNLWy+2YsLmuT+rhCXHIF20rONB5uf2u09tYFwvxqdq+Usz17drg4Y2Qs5ZFih67bLXgbgBEyacfjGoMuzZj29VUCSuqgO6FlOtjiSefm3y2Vs4U3qd0pbjgdeEGpppl7TbcpDSnNCN554rSNfTvEMB1pXtI6YRkNLe4s9IZwmZU1eaXJLTm20H4XqiRQuTIOn4M+qVCoqWEQgQIiixbHL/s4HGCSD6v1X1Kig8agig3e+dL26Uf5lUg/CaFuqy4rai+Refbng0fOZ6ne0R6vVkxzF2vJgNurQmRGrIstwqIC6eeSmYazlzL9KqkBqVwDflAAqxLbjQtpg1G1DeHhkLHyQSuPz/UOgNp25MlORAS/4ASce/s11aBeZ0RECiR4WGg5qcqGXWdLR23/RH/zCZvLsGVxodeJzowzyqC2XY0Fj6odUFEX99375G4ABxKn00UoNWsEuwoeQlPx56Uh+v1mJ+0NvjCWlilbmCWv66ez6AfMr8urt2oPmo6l/0tf109n0A+ZX5M/KU9hV7SX4yiyoQphZjScheX4hAZ7K0MI/exry7Ug634IrYX5G3BDBoQiWMOI9fZFI+SzBMKJ/cpmaqG58RzxaTFXvC9q2pMl33RsRgu1yaRjwt1O3JSr5nNnDTqLQwZEixWRnYjqL74EAT4bDm2arkoPJYAu1fhiPPe/a9MasFpm1ngyap8r1DwlX0+j11+u0VeLoCbPm31mWBeC70gzevHHZZ7eQ8BfnMzbaFB1aLoZgwsg/5GspnEnjYd7vu8hYq9h58FXpen1coosLs1zrKdG1nsmrZIkYECZElCI7WYNTNLuDtg50dLNiCjzxbfJrWj9dQSaQ9B4xHtrtMS/bBSD4jGkeDdfR59A/2les2AHIn8NCnx+HgxNdH9x5JsgDjsGih3KAxxp+tQ8X51NYRnOcoCMB1O1fqA2pAblBmW+7gPV+8gkPYtrbzL1ORAeXn5XOmi3gPlpmKd1tfBcV7OwGCkfaplSjVAHdwEkND2Vk+RDP3gIfcZB473iedhXbKePKmcfAzotU2Iip2zuQyXhWuBRgi+TL5zjked8taX8CZdKw2JOF70OWhA/SYweoAsOjPQk1++OLvNHACG6glrlwj0l+7EL4RBaLiT/4KYviCuJdvt6ZyiMx1e0KfurT/RmAPDGTMtBiWmPRownIAQ/LYzJrY+7T5Jj+huIHurqL+xiP9iTaqSb0N5wT4Qa9EwzsuykMk2ak7R9YzMXutyP3cDV3ZGOgSF8o3L/VaCJkVYU9VUPIEwJ1zlId0GGNoVpJPKNlHGvEC/74Uuo32t+/NeV0gE9kD3EfKWQl/sTSXfNGKym5OYXM/B9eQsePSY2zakT9LCZCS5YiW5P2RXM0fNjksw5PnBF1k2gZ+A9XcKtfUoKxFKqkErpaJZXj8HzaOmB6aTaspPEJ36EJLLW5KLed0o7woeHfj0WlDRj5ZN05Bwo5Zj1pJjPca06a4a/69SJxR2EontZ4FAH+cxoReGtSC2PCIGhtshusLkLqnOKeN6cQmabirZPJU2PJK9zeNvYYDMYTFa/WcWbaN1Nsncc39FAtTE+l1OZ+4hKiLq5CLIuOqbq37+zROQuyySimLopnYlptxEcWYF1TMgMIlUom9Z4XgC+d+Ysw4nkmUC8Zqy2DNq7l4jFgwqiWeSA+XHnBfWMO0RSdC+gmNGJJK3ndabTh47wElH2qmRCFzPH8N4qmEWtLs+Z2NXd94dDkM19kAum/A948NcRWqgXnwDJT8LgatALg2IT9R60NZoMUrNps/Dxlmwnve5Q+ro/zKvTCekaKJ8ohXXqNlBQolEQ+HClu6SEyb5j+sp5nuIfb/Q7fZvQ7THb7N6HaY7fWhfk131PWxr5HmmyCES73D5WcX19OIP2rVtz6xhABZ/3zVutYJBEFYBYN9ZtiFe82WWQsnFfrIbSc79ce40eBfhUDX0dwJjEHoB/Mb5kjMCjR9lu5Q6EzmuvLh9FC71WbcXeqy+H4lDsaSIYkl7I9mBSmKnGkkjiCgavQ6FrjwhwV4MusoJM2NrCrMb2MqBmB825fnO3PmWvQJsAy1/nOWZMtQAIBIz6fLJ9CTPgz+sbaeE1LknhNTdhqKLKzTl7XBLxKRB43G/sYigRpWXPPtnr+gCnAkj3qvd9tFkUdSfrBYd2/L1q3gAc3zUYJuUeZqy5NJmdyuYKMKExHO61Gk4aZgAJWLQNkAdNp5LGUk7b9NxrwX34jYB8heT2d8qg+un/PTEOMx51ZEfSgdlZGxsFgSJtaAsPExOTAC4s7On9rE5iD450ms94bZuWKgo0+lxfG3F2LmJ2nkXd+fTLFzNSgCdIedFvzOaPAaR6M9K2pHYl/ZpOquksRU8AQCX2+NilcpmGC6kALdhm4s7roFpf4sFCDQpP7kfGvu+rWHVWAmCtmvGCGgHOPGvo9kKPqhWCb8/wrhAUDPGS2/psXdZOsdXgaczhnCU/aFxORQqhobrohoV8lYf7SIAaASgypyF90daldsFqcCERw8hST/96cehqLILWEv8yFKo9+b3JA3UnScEU0/NHmWprNMsu56g0vNMvIYKSobt5G0y16+j09ibWU7RKC3Ktxum0IoezkunqiJeRYuHFWl1A1Dyh9VfxTbFPo4JT9n9xVeUvWvyefRmcyHkqQ1HMfDuijGfx0BzphEbEfoX7IWD/yp8QaJks+IPd57y0/Mw0+MjojRQ8h1bUe/DWFO5mucT5LYIoyjWrkX8PZjVqIwjG05O0NNWwrXzPePpwRH4x+qsu0U9Zsw9Exsl0FELwIwqN8a5klxl8x2+MowjKtxwZB/2A85OFA/poDQP5Y3N05xASGSX4JmQ4+RPDP+grc+o/1jM1s7t4PVWahnU2XkD7an9NKf9KHH96wwOP3f7GQ9cOwx8lZVsI3kaxC6k7mtLHdTxqdAlu+cijpKa7p1qWEzGv4BNsu+q8FhIyX079lHn8x2lrcgZvU9VLCGjXa2wyOuMIoNFpOINpoO9DcaGa2vioWpOv4jX++/8UPA9NigHaXExzVxOPclyp4mUgAhdM87R4dRWS+RpMjeHLmRbFmKvf7OZkfJABB1XsErjSO4CpHULb8ICC+TRQh2CAsOanLkZHybgqzrbp0MLexg3lcGCVId0ASKdt06RbJ0gA+yuT3fPKPokQE2FczClJ7yAzwPxRYC4wbdUUdeVUjgP8MONilhhTprPv/UBIuiAl0OvMIZ0+O02vHCo9oNx6ERvj1L+vDBPnMt0PGCkvQx6T+UdJTMKO+Bb6nYd9Zn76StXhebDGw8ILmvsR6CY31ZkYaJUQ4d7QW21Cnx5OqthoXZUtExtYlL06cRbTQPielNy7NTmVQANV7vnSBsP2miTyWmyU9S0NDG3/QSIV+0sIPXEl/DmyJpe1IzjU1DLK391DqrrzVySK6EhIdpPTOMuJ+b229mUsev+APM17XHpdipb1fXgMkHI8j7ObxWT3K64gkgZaZIX1hsWpX5gk/UO5naEzF9o3oR7N/Bg5GHwGpYb4323yiB1ywAv4udfUWAa+1ooz3UWKJoGMOa0l+zxw4U7EgpIt259yRznMQMEdMqbLu+VqIv9RewTBchg+pTK1E6k04AUlMKLBNT3CGK5WXp+KtopYSkfDP1/9poqgKXbXXrKWXKZOo5bDPQjY5opl2HzCCtCzWT26ZAPA5Lq6TjoWPS0VCbJg+OmeHDzDx6Vk31dPHPvWsI04xK/PlmPcodaYF8QrPnk1NmsGuigi/Qp9HvL8KVpjZQTvJpBWiq+wem3nU0sHTRF8V/DCKAObA+vdYaWLvcAJdWtMhkZH0KmFh9FEKpadDtz3p78TnPEwKAAREk+QnjxIPxH5GdSopf8dWacXY25HeJLtsedBF6pme4cfFW6XwDonyNy+vVccZK0gAvMvCfX23JQAPz9zLVUv770tGGAGH7fq7IivfNDGeJJ6FTs4AhmK4cBI6pH6rioTi4HX343CKh7guVJywBSR7U5KxJCZvzhHYnuAVKQbubGvG04nbWpJfdi7P95vBzw5B+k7cqIxMZcYF+Yxnt8yBh+fhyT5EnCYzGzaXCsfV52bfIgoqj1FEAdUSTAEV662MrRAHfwGw1afSxekmmxMUwN6MX5+muIaNmdYRKqPMoedJHH9Gt39pqqAuGAyMRAqRx9zWEVHJyWuXRJ9lG6KKyHnfMFJ80FtaZRoRtSqw4Jtc68yvoSmei+FHZsDmt+g5Xq2A5EkAKSO56gVzPWbEJ0DzA/Ypg0PgKeIMMsyyuL8glL93DSvUkEzormbcPeDV/33MmsHScRiZ3nyRdI4XH5dyaczK/p+4/pXavsOvdskecTayA6QDBdSwB+K2DjFyln4fevVDp9RSa4x8PiJ+LlIP3k+GBVFvs8jwE7L7eBIOC+IMFw5yVaQCGUAY4M4NAdh9URQXLD0sAzEaw5pRzJfrn/3cofr/uLFqAoj7E/7UlTxgbgh8nXBWDxg8bdRX54Kml4S5wwGensMMdUiSIXov4fB8KdA7emUxM1oE76x/LiabZ6qV3sYDYF8ne38jYS1raXIRS5NEiRwuYvG7r9UeUyENBZNGfG+1BVXpV7Kg7hklEHdFEpyBWhMBwGfrKFnPtZeGU4zO+VSrs31BGym5nf34JwYr3jVFpEKHsN1JLjA9MXQO+HoPf3uQ/mZge2FIdowKjpEbMnrw5hJvgmN71IinnIV6G11Wm179/7Cp0aYHbhwSyfManlNQKHOekqkHEEc/Yn2Z/bKAzSv8cSMOTZuoNujlly+65H2133WLSsX+4ywg10E+VDa6VQnJ700/UcWRSsJuFQapnSFiZXlf+nXAqOfoALLy0FBHsftCzi86miWyY1eqhP3IEAfhTZ9bMG9zs6Y1iQ9acBUaNjuXOBnED4cXYr7BnJPsIvb7qeJQjmBW86AVfyWX3oFibTV+Y1itzWASsIartmk86xiY24l0ZSs0TfWGgr6W2nWQvcDyz+CYDFryVjXzXNYfWCGBqtDXFpOs/hvLR5BEojEAjTECbWtW40+705mG11WbC6YHnxrYnaOnNc9JvIw9HSP2NSzUJhzhTjXp/3QXmC5pbgB0es1Ucq76GqmzcXkeB8JKjPONQ05PoW+IYXjGmWJ0qmov3NdnphM26pUU63lO2/I9EFuBK+lpDEEilsAfu5oANtVupOJemKftlyNXFLEluJt93cCoPRk2EItD+ueSgBBCQ8OuVQIrBOs1DM///rxYNdWlDnrjbZTeG5dSIeAZLgWol2+MntN3qrsZEFiUK8/5NAWSmljc3nrSvzZzdng8h+gzgVSXuAU9SC5dgNXp2eDsxmG9epj/PymUSlMqS5ewTTej3Xd7x+1YZeEPY1j+PuNSjVFEtqdFI/YmBdCZeaTS0npOE04QOV+59/2XaDPxCleUlqM+aigR+xDKh88ADX6rz6gBKXqDx2KF5FeywG5cs0FNhgGSbWeALFK3kYhkHXCoBmuKfeAAov7cMEAPiInfkDQgIyagOKpA86V+4OJzzIfEKtAOxyILYy3jJGI8+fiPUw7sCJl0MKx79ZF59hb4f7yEHm/N9tUNyUh0npyzIgSNL2ANOsv/OT31P/6X+lagGqgoAEdq7kztLR7Gh6xrDDdjQWH18MypKc6wppVS8JCTZuzxUPKWRjnGtigj56NzM4acX65LV831lIEQXiJKSXfO2F/agbEvs72OT8HSnGXAdyzWAUGTVQsjlWE36MT+9078wqUz5MVg3w7MDwsTx9vOh3q4HZdFfP0NdHpLr0mMYUJsBm7twTS9D/ntbus7PCfdE1UzoVi2bCE6H45ENsDQhftvj1lNYinNOl9lFMV/J33A1D2W4HuoqOa8yFNpaX03tid3VJ+GhBz9HENHr9tJsD4xInzib53kDvZPdubOZfaZRRsGd5UceykyaRKOD9JxM1gdFsmqKjjR+azBzqYyPZNjN9rJhvFuk0hBZbsc5e/kTBDkbBTxbAt3T0EwM52AcDiU6Unh+smF56BaGmW/Rtkm3XN6Zw7FBXTFPJNIOd+mkkeC5VulUI5HX2FOZxy3INAlKU0ITVPQF3zu0YEwgNbR88YDnVdFzBKwDDHHL6FbkLvT8DGx8Kmid0qMjnf2yHDhCTaNhC9SFbbEnJ7O5Us23pYFEvddt1+Zdh4wScLHg0fgnXh3DhANtwEP5AKzqpIwTteiD9W0NDucEiTMIg2zWKQUzJBxzMZO83jAhw6bSX0lcC2ZnvyosHXekaSYgkyGmeYMN3pi3OCUl7elJtydDsxcr5DXT/+2QV6CMaDq4QLV34xDT6qHKd4asVzNueOlOEcN1F+F6+XIhXakhYVg+aOU8rbvxz+6YF/8n9/eMSwTO3zgrmG3YyZbEghorftPAF1yAzCN7IYU5gFbT27+ICY4LwybhHYjPVzprqdyG9HUgPqazongzMqYrXZO1QIjU9zKATgmpDSL1LIDlvw4lstYci7KtJiht7ntMzbJECAzwp7Yo+xBMYd7kPuQ8fu16895znghP8FahXHdEN8RHP1RWp6HMu83szVoo/fpyTWx3ZWBPlXwGGWXLJaX/yDscDk8ei5zAu+wn3EcPqY5r88sWCtLnLSICKN1JevLxNA/Nr6XU16Y/r50AuKBjDXS6JpAqLXLt8KwS4CPdfuVepVg1NVtcFfgmZvVLvgVwfmH4UxIVZCCanqgmW9AwXHh5qqtWSZye4dCCmwVI96porvjp2K+Lhm5mzfOxCUqNM9tbmX8jfzJrVTr55q4E7kUj6+ideW+82eV9M/jnslICXkASFvWgqoTZ9+npjESIVYSs/RTajrH7ohdZDZ1Wyhz6j1UJg2v5zP1e96ImTJarwKYscCBLXYif4rttnwlrtpSPt4SvF7L9vf9RnJjp16/qbuenKxvK6IzrdwgB46r77CP5znIVqbKQEQZ7b00DvwV7kQw21JoT9jFdhx/nfHlp4/KSHWj11UT+dmvviwfVuvRBEi2SMcRRhaSqR9Yp06PbRVIqsToZ7+moiQZxvUm9K0j5goavwynpGsToRqYwUH0mM96v8vHkORkTWO1XSP9/EEYYrfi9lfMS4/Cqa+YOCwLHHCmB17zcXWUfZeaSw/Z76GzedjxopqnUDgccj1lpdY4HFeRbE6YAJxlJZussAmA4khv6Uv/w8N2Gxu+3ywa9l/ilMwBUiVt2zMgvHFplKSrsdl+LhtcFvG37wQcswhaAAhKRK267hvYE0TeUE81bDsq93Ns2YlWI1hFSwOdzcDNU8zAO2GlKPDalmAprsFZqg2LEwkk9/ymJtuKgAAAKrqoY5B3hcMfSpAAAFO8ZX8a8GAmxUMf8tWuQXaXehJfGedzDccPbB/J2AI8/RAP4deNNj0YhzIjgWMQC/9g0Uugezb+8zij+eIKahctZeDL+fa+UMdIBaIcRAcFBzC5Q4rsuc98zchDOVj2Hq7CjswTJ9LGCjYku21auFkwedII+VJ/XHJNaHTaLef5C+9fwwwz29/4Q3G488bqcD25iX4UnDh4js024S7xJtj9aP08XVtw+60jQ7FPiIjP6rbrCRDJT8Yhkp+MQyU/GIZKfjGIlwRGqFEmZy71MF5ODMz7ABlcBOAIvToNM/NRDcSVhkNGa3tTTvAvGlT2IAjXOsMB8orSgKXhdDNwJmQ8a+lW06e/G1hoGfTDtltkSZPDLmuAsKmNwFH+1Fy/0VtOP/8KWxZcw08omdt4Xb4ZlyAkDPriAc512TeQTIzINN7vw2tTW+l861oGFZoH6r9VYZ3lOjPdiYjPdRoMTEZ7qNBiYiJggbhhEN28YLGXcFQQSoiPdSaXJCEEDIokqdkZfisloBg4CxzsKJH8Bdj2jZc+Gm5t8Jpq3GrGU009rgN8H4fXws6c+RUC2qWNIkgdEjyJ4PrbT+/zowOCZwt1x5dh0AJ+H5ZUj2SRJht4AKI/Vi21NIb66gJoaDKQrvR1pix5W+LMl83CO+ZgxX/yJRrpeHghjMN/YhmAGMEASDJbfVmZfqUFXn2hQnDEb4866ucMewJeNFPDZDxw/LXZnCTduhacXazI9a0SnFL45F6HICY7ml2MoOCyP4kpnnCLtE1BDnzAljNwm2vfj8VjLlR6r4OAw2zTwAo+Inc5iXWNbHaxUKIWSoCv8gkdetfObsNYHaBH3ARPjJNUIbCFJdiwxcA83jskv8oAj/E/Nq8jRuquGJQKdm9HSwE+Or+Zp74zw8M7ZLhyPl4g5I0GdawicCZWi56+AY+76+S+grrsLuZbHMculqtt2WSImN2M04MEW/66gYWHRuEMBO4cVhUJ2/N0dtgYUuEAeKZivd1aNd7vUTidR6kHJi86DFfO4EdwMsOj/aflRIKgv8DmLqceNzX77RYv/sxaWBBVkmM8+FAy9DoQMAFcf/18m5Bf/iemMgkKozlAUC7HUoIK/S/eg8LgXvKv8UVpXXnR3fwJ1m4F3Us3Au6oMbt+I/veqCDrpmfOjwN2HTzQZpW+aM/z22+f1ZNfqB0xAagwYQ3j7O/YkiF377JpaeOhLu0DwV2C+ouCFqmZ5NGQXTBI4ITr1+wH/q8NlLoD8D8muwSs27UqcYreMmxt3KxZjjE4kq46my0hgIwECiQIgHTpDOUkcfwxC9/A9zIuvRSX5Ylu3CQfey/+RBVuuZj98+23PWNSQ5KZtXyFrjsC1zm0lXTnF66Q9S2IsF1wfjdHP3zqXVQu/A4LN+LsFd9bUSJyB/LRm4Ne9qpgs/8UyIBbip0or+KbS369ORWhxBMqc27oa1IK3LZjsZ8P2WoucKMiRTLCQI39WMQyd9qySuQYZ+IiVAoKAEgtHdx4mO5zTbWj1n/sR/RrMW3CEm1qHa5DaBcu6K+/opWHqLgaVh42CoTvoxvxVkNZh6eY0gvd/DDmuYprILQCnku8rLMyZrQUd1oFYhPn2pRlvRfTFvx4xpYVQKNKSNvc+cvlaOKX+RHAN8Nr7fNM5P2MS6Yh9tzxWAgY1MQKq7tuuFw1R/TUUIC8rrxn+xG9vHwu7vlMyrLT2qXvYvzR8Loxj0YJrF3vHmVo/HcYeLSNUvKnFonuW8DR1wSBHdws0qs+WGGu5gVm8HQb4+y7Sev7yDjKHf6KkKNxaFMxOQiV15xWfPTYEaKDXJEQRolHDN7EliiWKMpIR3zezaOZu5A+6qZZflBM0T61jqdMHjLQAoE+pg4LK8LSSkp1D/jNLr2gXUwlIIEosqHtHBfETP99l+wmvKfXgULn/AWDo6Hxpb4MVfdWmkIdYoSjydpL6r7vT2fKDeqvBlAAPOqhBQTbGr2t1lLi7dZ8afo3LmJ0r94CXNQYMwBKH4Rp25OPHEbUTFnqeddk5mWSQnYQS5Cb5HMmj7Uyh1YfyjAuhqIcwdkiRRd2IXBSqjwr8TjyABvtEFwHDCQs1iDQ5B9x5V0hVpoGoDJooFrAD9MeVhCQHfZhU784arYV8R/W//bdZmPN/zkWoroiqBj/TwoW8ILqroLGb1xyDxPTWj7VFV3tlSP6m1c9qR9Y6TsnZ4hm3JWkHVREVGdt/73zqC8W/MhZjoocp9DjfN8DBfNwojWQvl0kQjisPv+NxwFT03I6hlAkwyumPkxY5BM9p9rdY9wUyXtYcrrr/H7JBm55saeMhcM9mLhjTFraDimz2UCu0BREliSuWCVq0oaBl0a1eB0afcPOSSw3Ihm+k4grKOdStDy/GkCAHldHTmBtZ468H7g1n2VnqdTrr7U3XRQJPrw+P7+FxD/SVyyUM2mvJrRhpq0eq6j7nS1xAyBYPiOwGEN962q8yWxnJW5sLj1lBeXIljOdvE4ZkDKfTuZS+dG15fOvSahSNHgvAjUmwrZNohbk47ck0u6NRmZUZW4Va6TaBWQQQ6UYnmhj6bc+rW//sJID2d+qJb2b/sdtS2Ezk369GGZ9VEwo2+fKpiAEd5ZNvpOpTVnOgDvscBp8as7Wefi2cXqB/kS0TTKcoZNlfOEQyqr4dgATsLf/fc+oqNEaLNsYuyOf/BPJ9d0etWw9eWT4TsWRQHabxe3BlANFPI04C3zEhk0Q9BaIS7Ip/Tbn1a3/9gtZetwG91iI0Xn7uiBkK3CqFhxY4TYS1L9l0y/dO5b6fmDyNUm/0zQdyhklfrBr7Oc0pdq5qwfgtcOAAFLEC6MJa4uDiZK8kIwhmKGIaqe9AHyVuN9UO1M0Boyjj9gDapOUSE2g87Kh6nzT+7P+np4F8pnNmZwQFTBqufJZ384yzjhh1lGDy+JKDjr7CPxOusaq+qq7da5ND5LciBCTwjC1nC9khAyQ4+ZC+d/jdO8sB1sAlJiLsIArN+m5ipZP2/MnBanqkPn4T8HI93oOlBkuuvAErnksHtP3VCbD1vQkt6oA1ADhC2mF42PSWSK7OxmHbWkbjBnGtltTNJBYqmla7K4nb4iDHVjMDe6qMHgVIsZvyryJk/yfvM/fnyEpDOvs3ja0E5yEl5OSUjSWba7v5BuWFKRiqwBib+hkC8aStFXwhoKd8iW4rnVJQVokG+6yOElGVBXhXmNMarbBwqw/mteuv+BXEbXPvTwcypW+Uh3qb1VoN5YUqi215ek+tbPp/hbQ9lrrHJPE+Lvx6iuvEjCH+pAacjr8067q0maf65bcVSYMEHXTteQgoBN5HNVVBmwuVFblViHYfVuBvwA7S9UWvlp0Emv/NF4X6V2JD9Je7zqlLPjRNy16Z9yTyypKHIOD1vduvrxCbF1DEZLakPAk/E2jy0pnyfzdFSWLCcI8lXRen2h5fmH4uPzB16duJKnO9IdTnszrL6oSM8P/s9KiRGtERE+ODuO5xyvVmOihS4dIGOf4uVea38fFqa1wxldPLtD2VePGFg99AL7dcM938G30/VTGTRHd+oB5wJfMHZUsQ03V8WrmyseN0TP1qIdjYx0JszQ3KcieOeVXE+1r4iOiFt8lIVCiygXbersNsNYYnx4JXYwIiVUelFn56Yx/CDdypPJne0lQYdCby/FaSI30pIFWxXm8KsnUbOH+lukIMXJhF936cswMm7QiVJMXHiYZeBv+8N0vQkAmt3uT+9kQHKbIdNbV9Kz1A7wuBUyVKztzUpo0LFzI6f+pUCOnkPvUVY79IKL3jjTJgWurKjbSJ57vLjbaHl2YRTi3k9sefa97LXKnERxr6gs2cdTMMd0YB73zp+E4qdCOqKSOjUfJJMGsSDVr969AWNVgTZl4jLhAyCHf/p1u4iI8HQzo0Z4OiIcpa3SIzPr/N5zU0NCdel3VdCdMclVji85deEY2dZMiZdUVNV/n80QVk/X4ciRt7XWOJFFBemz8CBtiK0A6TtqiLNl5z98LqBR4ZlNvT7a90NjDo6SRQ/QzuphFiZ5BINOrYFWUom7qGNrIyptSrhIpS6aMkMvJYrCRpHXRC4UAlJqxHLCJ70pRC2fdOURBdWrE+R5Je0A8PEYBLQQGHvYKencsGLq4Xsjb6Uj3u5U2exCuGJait/4dElpkz8jaTYlIZQNqyggVq+HKwyPgho8YhQN30sB6JVOst1zfIFLD2Eu1WGFYaBA6DbFYYejPdKHZ4+clCwk4jIiQy8PePVZKC/0EpbBheyWkgPl7mDDxdw+t06JnR+oYdkVV2RznpuJklZvIEZLR8WgYesfX50a8F2Del5HGQ0S3bd+STl/NNp0bi35ERDyzyyczPpBAvMnA8JbNUEdbJAFDDkNMDYVBAfroIzAsQLPXTFtac+ReprEH3fzftMD75qUP9DgmaPlX4X/PfmHEPm+w2Uywmd8gtkRGqn459lNDAlmaeHIae+EYysU7FIxxTd4ugNGpDhbe/FMt60AAHTEFWJ/fyjcFxbKBI2Mvf1axwkO7B1+qr8l3utNwhNp8n+BCNyJJX+RRvBveHp7Hi0aNM5VAmkRzEVXwpWmgfw2uWk/mR42XW+YwOZ1elqVf0RyF04o/faTXyX6LoCFZBZ3zsNVBJkW26CGMqbitmrnO0yWxfUCTW9YV4ztfzcJFG3wF3SywDtw5B52naDt92P8qQ0SO4XyTlxyW/SPJPAEuUVCMyVhS4K1Iz5hrRswyM1eM0vZQlbGe6SvghW6a2SWPnhCzVbdaEgIi6FJejxNZsQZvKSzMrvnjC0MOrD16PMZxksS1Mds76eSWIIO8pupnCuGZS4N+y+ni/951zvOIfij9f8jEC3p8G3QP9JL1yAZb0HvGmRQn3nsGB9dOvZKyfp+k4AYGZo6qzm4OjIRxahuS8ZzS6BEr94w3JPx8IbiS/+XXrJmr2rpKvHX4EClncNzUFJd+bMW2NStAhjY516F/QYjmgt+o1BShXJ3hkCzNHYC1qO84Rrc2u8WyX9K5PGpaqifCMXf4CbfeaN5m/7DYPmmrzH6ZpfSSkXgl+QlARlGhnBNGcOzDqkVo7wtYZ2aw772+ZTsTmCYoJL+eOQ/iHugpG3vFZUdTJBQgpuHZPwlxg4EABe3iAAFLECNqGiCC4afSDSvoBL5snLWLzaFIM1Huk4jC+RA/Iq8n8Y4eflScjTVh7LTonreiD+6/dDB5SbvV/AlUq0Gi/4ERtxleBTiZqREfHLzfFoRe54wudVNI4ATyxGzAL8EcE++vVYt1YpLCNTT24jKhLjp7PUETtEaA+350byiJhc+moWjl8lhb3sI64WV/Jhwb9YRg4UexFSve+KMEVdLVJ0sIsLzXGyHvNUYlPurD4LFOTG9hEKb0s1/OEmk6veBn3PhyKQBPrm/Zfvh2nYhP8lq/I5J3Ltw4PZWHQ3LPjGNyDn3gUzSzbjfnTCFeP02XUhFAAKQkYPH3MY5lEHLgbcZGyJg6AkwUUPy/IMENgNGjH0Kpm84E8v8E5tpuDeUDMGpBlBTX6lI/wnHtGbiXLVM/hWydhSezlMCY9LEVnCnXORnHhbEc+uzdxd54AADpiA3zQwBFxhmaGXtAV7KAAAAAAAA6YgQoIAAAAAB0xAAAAAAABSxAAAAAAABvtxnlwCQikeD/VfOki2lHtK41bkSB4ER1LOfxLNwVntwLwcq6lnP4lm4KzLORHwsPutm2SjyUb+hjo5hYgAAAAAAAAAAAAAAC7JsaudAO/z//9nw0CX/kzQgGcYd47lxo7vCmlOaVQBHkC0SnBk6XFT8LjcP8SLs8cJblQ4nrd4bGSEu+NEtrhOPENztdr/6AeANX87nRcR17o5V4Mb3pqg4tD2wOidjuDGV3rdhGNiBd6tdfZRCZ4V86bG9Td44cnmSyQKwOK367Ucm4QLXERy980UyOrVdfH1qCAmz/HnO2dIxzIrShvDsgocn3GyIU4YvwSgB1oqBrYH0pRTzKgSwPEof/JX8QjkWrzF40W6KsdYOqTFU5ownAcFGqPDNo/BG2gI7f8d7obUsLf+HGUI6Gv4G5/DeKyCdYHxCim4mU/j6oxtHeVhYeSFPzij9EYjVKlRGwZhSH3PhgGdzZ/0+sBil4DoP0tq6nx8zmT2iG+AcFDkHydi1aC+Ar5/56XX6RO43q8pOWd9ZkyadLUbX1YbnlQlBQHDERk8iRSGBCI8MiaDM1A9PnSkUhIU468woKDh40DPqrZyhCZoz9bWTGu/Ew+IerHt/UuNKcOciDy/R7TCVXk074e1FHNV35qFXKcm62KXuoKMCSTKRK4wq3yDvYjb+kESlnyCJ+tLhS5nn3mwjuoQhH1NEe3CNkT5b/kE+sb+xOfzRDiDOgHsX+muTDrrF3hrxhNohB4Qp2lhDSuYCy80fmSAQt7IOxS5XQLkTFM4sMainovzrkvSsCAz1otgWZBfSh1BirOk1SPmP9bK5+fujCdSga7T/L3qmDNqeOqo8PlK9xR3HdQWSSMwtvzY8VcNP/IG6PPDnz2zR5qSpgE9zOrczAgLq8kBRir/9AxyX79dgWIzdmFfh3r9MBAjgGuKIvJzG6bOIFnm9Ut7Cw5K47xr019olppvF7eMQxVGYCizZSr5i93/qYsLV8Dus80vKYqNLVUzB76fMWR9Znawmi2rpGkH7KTozJU5QrEXS1vMQjNHTqGYjTyfhDSClsU4suJ0CffErvYYaI1MfY22M37Ed+8InYh+PA/FJB6jncbNh9f3tdv8azNOLmLMv0MNeXbaKje4vqhdzPBxvf3F97dcwLKyJqoCVNJTCjXQf52LUwdT+rtEOnt9cLuHsae4P7JorN6HpkkAAAAAAJuCAGM5Or3vt3wx3Xo5oAM1B54B2i4ktm1MZOm+4vcR6mlnxDaQeeSYpyIhdYZhyNWkLZbudYEwzDpBxZ90FZkwb8IoMwxAwghLp2zlD9eFWJoOHKMbOQME4SbIrUtUhAJCYXs0vSKiwA1ayDABCinTPJ54s9lgq98gYLNhyYnbAGkYNunE8L/lUqN09oXa9oHbP/90dFTNvY+0kxpiQgaKyZGMpP74AuxIWtZqvncZT/XB6Y9u7lTRoCRzcKlbTZNWPzv+kIzdIKsD+zLMdgvNA5nq3DZsfe9EOI4n6V2vHLb0QYjIpfzNin1qgqf0nPQUbpeiEOu74fgLzLK4zZ9vlOjb7Z6Ta2NLQYskGtUtzmScNhmk8GCd7fAcgWj5TbLBWqnX5hMXfM8niOgaWBh6tDFdQ7xqPIydq5hw/u0FA/nnRmpEZMufgIaZfz1ufxb5TAILCurtWHdsLkPdKTYrAcpkizMd1NOrkV6KBScjDAKj3R+P41V7Q7ngGvfBjD74XOShnjXkjGkoRcbpkR9V7/KvL/T8q164wkncEzZNOYsoFG50KKFfH+KP+3lFNcN3oPHE8DRrx8vdQgMROXTqxS4qlh764n3WPI5zzDh97oFcihNrna9tX2rrHMeKEJTOd5plMqMfUbUFq8nxjalm6TthwiAzY8a4jOSz/ewV9WaX9SGIWX7x1R6B9Z/4gNV49camJUKBgtoCknyyymIUkN+w+7Ag9Yvomp3k2gCrY5MVvnOj9moOznILvDtU7+29BAnPZ7gCBZXxLybNaDbUKtr6Ox3Npmy8PeRCICRyWcmFUdovxG0sYBkPDnId3LyA4YXLP1yBLAEawAp5Uk8ElRZX2HDM29Uz8pyh9eBPehyqYmFN3D50jAc2JLejxYGrlMDnpPA6h1UlsUA2MXPQ7Yyzrfu2msCmwWbgUq9ooe8gWfSyGgbQnnGGCljIqn0oNQmAm8EopHx+NgIDEXbPZC4+wGi6YB7c76u2z6b5fQ/g82+aTxkJqLhbgEFVUW8T4N6kC9WZgMVWrEtB7wwSMXzLInvcMWED3FWMce81yFGgS+gMz9ahqJyfGdY+nEr3y4CPg7zFKnExTArCz0a9HML5/v4klI1gNASwzInIxqjxeBiNGiLmt17THwkQbfH/nVDWgNvzRMa6YmC6Yj8316bu0h+BcM8Q+dOb7g31CsQZxu0btGhKc+erlDZ2z75rgGvd6TSVWjg6Qo1hxcVE9mnzB/2vCVSBa8kU7V5adM1ulnopFUwSSAFjkcNkewhUxx/2LXQirrKaKJ/+3QtXvsdQ+yWQ/mCh2Vf1HYip3d74V1HjhEnc1bxfHCxzMQNNsKAJTIVJPsGT7jX3LPfMQQVnft+YD9bQ5EbzGLgCnl+zvK3eyy6bye5Y9thTz1as/knrFuMc23nSQvo5w3aHcFqLF6gmTTDKj+rSE7aMfNjX8rqb5jnx78q3L81eZdBxBL+oQSDkx2+QedHi4UfTJPbrHAmuSuNPu1eE+Xr1i/VK8vhPZ9r5kY1eWDw+SGdZduCS1QSLoXQ1ARdxKDq1gIGwuX/+EASwwFad62Qbzca7h8UdUioSZ275lbP5y8aB9xtZF1375aDDQqoNKlubzrKrvkF9CjnJ7uUGWYGuOC21tFqKANuvlJtmKqTHikiicT80dnmg+aNsKWWexQYO9ufr3jC28+DH8DfUNz2GfCrSKpsBuZqCNkapfoFTybmrBap2lyRN86UI1yypPzpP5r3VRdopWv2Vlhnpghw9Wg8Aj5gEC91ANekUj06qe5FwPksVhro3/2J+kNy92F7mWpXmP83ayPgnLFgrK/yJfflJbKmvD8jn6abegvg02eDmt3eC2zYCLOFlg/L/RY/c4tkq4FKlhsW1V58/rnxQSVLny8LuDoY1Lp/kUkIax7Iqhx52XwswevILVL8QXjbMaA+ssFo23TIGgAAAAAAAAAAAABFWElGRAAAAE1NACoAAAAIAAGHaQAEAAAAAQAAABoAAAAAAAOgAQADAAAAAQABAACgAgAEAAAAAQAABoOgAwAEAAAAAQAAAacAAAAA;" parent="1" vertex="1">
          <mxGeometry x="-30" y="1950" width="748.76" height="190" as="geometry" />
        </mxCell>
        <mxCell id="25X_njBewesHGOsOMjHS-44" value="AOF后台重写" style="swimlane;fontFamily=Helvetica;fontSize=12;fontColor=default;" parent="1" vertex="1">
          <mxGeometry x="10" y="2250" width="680" height="300" as="geometry" />
        </mxCell>
        <mxCell id="25X_njBewesHGOsOMjHS-45" value="主进程" style="rounded=0;whiteSpace=wrap;html=1;comic=1;fillColor=#b0e3e6;strokeColor=#0e8088;fontFamily=Helvetica;fontSize=12;fontColor=default;" parent="25X_njBewesHGOsOMjHS-44" vertex="1">
          <mxGeometry x="194.75" y="40" width="80" height="30" as="geometry" />
        </mxCell>
        <mxCell id="25X_njBewesHGOsOMjHS-46" value="子进程" style="rounded=0;whiteSpace=wrap;html=1;comic=1;fillColor=#b0e3e6;strokeColor=#0e8088;fontFamily=Helvetica;fontSize=12;fontColor=default;" parent="25X_njBewesHGOsOMjHS-44" vertex="1">
          <mxGeometry x="450" y="40" width="80" height="30" as="geometry" />
        </mxCell>
        <mxCell id="25X_njBewesHGOsOMjHS-47" value="内存" style="swimlane;fontFamily=Helvetica;fontSize=12;fontColor=default;" parent="25X_njBewesHGOsOMjHS-44" vertex="1">
          <mxGeometry x="45.62" y="110" width="620" height="110" as="geometry" />
        </mxCell>
        <mxCell id="25X_njBewesHGOsOMjHS-48" value="AOF缓冲区" style="rounded=0;whiteSpace=wrap;html=1;comic=1;fillColor=#dae8fc;strokeColor=#6c8ebf;fontFamily=Helvetica;fontSize=12;fontColor=default;" parent="25X_njBewesHGOsOMjHS-47" vertex="1">
          <mxGeometry x="20" y="40" width="83" height="30" as="geometry" />
        </mxCell>
        <mxCell id="25X_njBewesHGOsOMjHS-49" value="AOF重写缓冲区" style="rounded=0;whiteSpace=wrap;html=1;comic=1;fillColor=#dae8fc;strokeColor=#6c8ebf;fontFamily=Helvetica;fontSize=12;fontColor=default;" parent="25X_njBewesHGOsOMjHS-47" vertex="1">
          <mxGeometry x="114.38" y="50" width="95.62" height="30" as="geometry" />
        </mxCell>
        <mxCell id="25X_njBewesHGOsOMjHS-50" value="redis数据（因为写时复制而分离的内存）" style="rounded=0;whiteSpace=wrap;html=1;comic=1;fillColor=#d5e8d4;strokeColor=#82b366;fontFamily=Helvetica;fontSize=12;" parent="25X_njBewesHGOsOMjHS-47" vertex="1">
          <mxGeometry x="240" y="40" width="100" height="50" as="geometry" />
        </mxCell>
        <mxCell id="25X_njBewesHGOsOMjHS-51" value="redis数据（未发生写时复制的内存，共享且只读）" style="rounded=0;whiteSpace=wrap;html=1;comic=1;fillColor=#d5e8d4;strokeColor=#82b366;fontFamily=Helvetica;fontSize=12;" parent="25X_njBewesHGOsOMjHS-47" vertex="1">
          <mxGeometry x="360" y="40" width="100" height="50" as="geometry" />
        </mxCell>
        <mxCell id="25X_njBewesHGOsOMjHS-52" value="redis数据（因写时复制而分离的内存）" style="rounded=0;whiteSpace=wrap;html=1;comic=1;fillColor=#d5e8d4;strokeColor=#82b366;fontFamily=Helvetica;fontSize=12;" parent="25X_njBewesHGOsOMjHS-47" vertex="1">
          <mxGeometry x="497" y="40" width="100" height="50" as="geometry" />
        </mxCell>
        <mxCell id="25X_njBewesHGOsOMjHS-53" style="edgeStyle=none;shape=connector;rounded=0;sketch=1;orthogonalLoop=1;jettySize=auto;html=1;exitX=0.5;exitY=1;exitDx=0;exitDy=0;labelBackgroundColor=default;strokeColor=default;fontFamily=Helvetica;fontSize=12;fontColor=default;endArrow=classic;" parent="25X_njBewesHGOsOMjHS-44" source="25X_njBewesHGOsOMjHS-45" target="25X_njBewesHGOsOMjHS-48" edge="1">
          <mxGeometry relative="1" as="geometry" />
        </mxCell>
        <mxCell id="25X_njBewesHGOsOMjHS-54" style="edgeStyle=none;shape=connector;rounded=0;sketch=1;orthogonalLoop=1;jettySize=auto;html=1;exitX=0.5;exitY=1;exitDx=0;exitDy=0;labelBackgroundColor=default;strokeColor=default;fontFamily=Helvetica;fontSize=12;fontColor=default;endArrow=classic;" parent="25X_njBewesHGOsOMjHS-44" source="25X_njBewesHGOsOMjHS-45" target="25X_njBewesHGOsOMjHS-49" edge="1">
          <mxGeometry relative="1" as="geometry" />
        </mxCell>
        <mxCell id="25X_njBewesHGOsOMjHS-55" style="edgeStyle=none;shape=connector;rounded=0;sketch=1;orthogonalLoop=1;jettySize=auto;html=1;exitX=0.5;exitY=1;exitDx=0;exitDy=0;entryX=0.64;entryY=-0.004;entryDx=0;entryDy=0;entryPerimeter=0;labelBackgroundColor=default;strokeColor=default;fontFamily=Helvetica;fontSize=12;fontColor=default;endArrow=classic;" parent="25X_njBewesHGOsOMjHS-44" source="25X_njBewesHGOsOMjHS-45" target="25X_njBewesHGOsOMjHS-50" edge="1">
          <mxGeometry relative="1" as="geometry" />
        </mxCell>
        <mxCell id="25X_njBewesHGOsOMjHS-56" style="edgeStyle=none;shape=connector;rounded=0;sketch=1;orthogonalLoop=1;jettySize=auto;html=1;exitX=0.5;exitY=1;exitDx=0;exitDy=0;entryX=0.5;entryY=0;entryDx=0;entryDy=0;labelBackgroundColor=default;strokeColor=default;fontFamily=Helvetica;fontSize=12;fontColor=default;endArrow=classic;" parent="25X_njBewesHGOsOMjHS-44" source="25X_njBewesHGOsOMjHS-46" target="25X_njBewesHGOsOMjHS-51" edge="1">
          <mxGeometry relative="1" as="geometry" />
        </mxCell>
        <mxCell id="25X_njBewesHGOsOMjHS-57" style="edgeStyle=none;shape=connector;rounded=0;sketch=1;orthogonalLoop=1;jettySize=auto;html=1;exitX=0.5;exitY=1;exitDx=0;exitDy=0;labelBackgroundColor=default;strokeColor=default;fontFamily=Helvetica;fontSize=12;fontColor=default;endArrow=classic;" parent="25X_njBewesHGOsOMjHS-44" source="25X_njBewesHGOsOMjHS-46" target="25X_njBewesHGOsOMjHS-52" edge="1">
          <mxGeometry relative="1" as="geometry" />
        </mxCell>
        <mxCell id="25X_njBewesHGOsOMjHS-58" value="磁盘" style="rounded=0;whiteSpace=wrap;html=1;comic=1;fillColor=#ffe6cc;strokeColor=#d79b00;fontFamily=Helvetica;fontSize=12;fontColor=default;" parent="25X_njBewesHGOsOMjHS-44" vertex="1">
          <mxGeometry x="295.62" y="250" width="120" height="30" as="geometry" />
        </mxCell>
        <mxCell id="25X_njBewesHGOsOMjHS-59" style="edgeStyle=none;shape=connector;rounded=0;sketch=1;orthogonalLoop=1;jettySize=auto;html=1;exitX=0.5;exitY=1;exitDx=0;exitDy=0;entryX=0.5;entryY=0;entryDx=0;entryDy=0;labelBackgroundColor=default;strokeColor=default;fontFamily=Helvetica;fontSize=12;fontColor=default;endArrow=classic;" parent="25X_njBewesHGOsOMjHS-44" source="25X_njBewesHGOsOMjHS-47" target="25X_njBewesHGOsOMjHS-58" edge="1">
          <mxGeometry relative="1" as="geometry" />
        </mxCell>
        <mxCell id="25X_njBewesHGOsOMjHS-84" value="fork（）" style="shape=singleArrow;whiteSpace=wrap;html=1;arrowWidth=0.4;arrowSize=0.4;fontFamily=Helvetica;fontSize=12;fontColor=default;" parent="25X_njBewesHGOsOMjHS-44" vertex="1">
          <mxGeometry x="323.5" y="40" width="80" height="40" as="geometry" />
        </mxCell>
        <mxCell id="25X_njBewesHGOsOMjHS-60" style="edgeStyle=none;shape=connector;rounded=0;sketch=1;orthogonalLoop=1;jettySize=auto;html=1;exitX=0;exitY=0.5;exitDx=0;exitDy=0;entryX=1;entryY=0.5;entryDx=0;entryDy=0;labelBackgroundColor=default;strokeColor=default;fontFamily=Helvetica;fontSize=12;fontColor=default;endArrow=classic;" parent="1" source="25X_njBewesHGOsOMjHS-61" target="25X_njBewesHGOsOMjHS-63" edge="1">
          <mxGeometry relative="1" as="geometry" />
        </mxCell>
        <mxCell id="25X_njBewesHGOsOMjHS-79" value="" style="edgeStyle=none;shape=connector;rounded=0;sketch=1;orthogonalLoop=1;jettySize=auto;html=1;labelBackgroundColor=default;strokeColor=default;fontFamily=Helvetica;fontSize=12;fontColor=default;endArrow=classic;" parent="1" source="25X_njBewesHGOsOMjHS-61" target="25X_njBewesHGOsOMjHS-78" edge="1">
          <mxGeometry relative="1" as="geometry" />
        </mxCell>
        <mxCell id="25X_njBewesHGOsOMjHS-61" value="写时复制技术" style="rounded=0;whiteSpace=wrap;html=1;comic=1;fillColor=#b0e3e6;strokeColor=#0e8088;fontFamily=Helvetica;fontSize=12;fontColor=default;" parent="1" vertex="1">
          <mxGeometry x="-488.09000000000003" y="1706" width="146.5" height="30" as="geometry" />
        </mxCell>
        <mxCell id="rkg9Pep6N8VOkwFGjG1r-20" style="edgeStyle=orthogonalEdgeStyle;shape=connector;curved=1;rounded=0;sketch=1;orthogonalLoop=1;jettySize=auto;html=1;exitX=0;exitY=0.5;exitDx=0;exitDy=0;entryX=1;entryY=0.5;entryDx=0;entryDy=0;labelBackgroundColor=default;strokeColor=default;fontFamily=Helvetica;fontSize=12;fontColor=default;endArrow=classic;" edge="1" parent="1" source="25X_njBewesHGOsOMjHS-63" target="25X_njBewesHGOsOMjHS-64">
          <mxGeometry relative="1" as="geometry" />
        </mxCell>
        <mxCell id="25X_njBewesHGOsOMjHS-63" value="" style="shape=image;verticalLabelPosition=bottom;labelBackgroundColor=default;verticalAlign=top;aspect=fixed;imageAspect=0;image=data:image/webp,UklGRvgrAABXRUJQVlA4IOwrAABwIwGdASoGA8MCPpFGnUwlo6MiIRLqELASCWlu/FuZbRPbptZjBaL8/U4k91byp57/9v619uH5jP1d9VP0nb0b/S/UR8tr2bv8FktnkD+gfiJ+JXmT/Uv7d/av7156/jnyD9a/Ij+1ftd8XH9l4resPMz+U/Wv8L/af3X/tXzU/VP7r/bf2d/tf7oe0/w3/m/UC/If5B/d/zC/tPql/W/u29c/2X64+wL6ofNv8p/d/3e/zXwzez/6j0Q/P/77/tv1D+QD+Of0L/Kf1v9x/8R/////92f7bwi/s3+q9gP+Rf2X/vf6f8s/pi/kf+9/p/9Z+1Htl/OP8r/1v9H/pfkM/mP9c/4v+K/K751P//7oP3V///uv/uJ/9BX7gIxeg2q89OzFMwGichlRN8un7fALP5gdvSH9M3yAUUzLhAMMy28KgC/g1mr8IyJa/BP2GTCOlQFIqleenZlwgGGX6MKpPHDf9/xw6U9wDgAdvgCEo3y6eSJeTsAwzLhAMMy2o+ViRN8daajfLp5vuL6ft75/7G+XRkulQJE3i/jh0oskEdKgRvkCTcAs/DqXT9vTm1E3y6ecADt756GDExvjs80indHCcxOUZOVltLUghUqYmN4v44dKgRvlib5a+Oe+XT9Djogp0Oe6Cl21oSJu9luoGhDbPNhey/cFiMrMTlGM+VNgx7WdN8daajfLp5vucOnv6ChFjw4geYtmm+/QTNSh8RD/3Tvzg1/ndirsu5HSgvJR4mzRF7Q9t8Aqm6vQU+cjTUTGAWbuP9jfLoyTBGom+WwiuAiKHEWgdgUcpYDEBYjKzE5Rk46wA/aD2TO20R4SEh/zYMTG+OzzRWS8PcxtTd7PYDD/U8RwdsD8wJ3Ye+ShKxV5LXbCJzDokrLbk5MRc8G3wCzeLTUb5dPOGpIm+O11kMqJvF++jGwqrJEyYU6GBowO3vn+LJIm+WwIMMqJoRxHSoEiALALGZBzMP7N/4KtP5gdsi2z0CRN4wi6VAjRUEwvlyWvwjIlr8D7c1Qc+axo1i+HukTul0qBIgCXNqJvlsCDDKib5dCxt9Zf8P8wzzaLoiA4WUq+7IodKgRoNTXC/zLpUCRAEubUTfLYEGGVE3y6IiSAKvBBWnzqQVz3d70MC0nNMdrhv2+Aab0NdylFmkeTArvLk2gbHyMnKy2woqxpyH+wOUPQKXhQ+vCL1SZ4uo4dKgSJvl0/b4BZ/GjrgPToSQly/MAlRfpxF5LMpgCBAnFEuEAwzLavZ4sAs/mB2+AWfzA7fAKk1I/DpMxzyqXyW5z1F8AjNkJhxks3IwYeJ1v+4LPNwBkOoGM6sHcxcBG5puT7j+pqqOCZ7vZpFZDwA9PVbq7uWUtsQZhMyJYNFuzWgIYjVLrVfmjtNCeYKjfLp+3wCz+YHb4BVGCdborDHI1KOlqy2wtTd7NjQnM14wkAYtTsC1p0HIwiRUYoo7oUQsJe11YA51esFgPKjgB6r5aiwStSQv//9ZOqSPU2GVE3y6eB1pdem+XT9rckuK+35LMtwc7r+PzVN80UcMGm+XT9vgBiGWDbpVro7h0qBIeKL3iUb5dPOAB2+AWfzA7fABJ0gqM2zGdd3YrEcXTW96jXFo8OKpwm582DaKMm+z4zQP0wr6dN8ujJdKgSJvl0/b4AJ2qNmtIP7EthcJk48CAF0Wk8uDYniiDtnXz2/Qf1el72pN71loByynZ8NuxcKXcxYHdO7zY8SZB0w8oZUowAqBg2Gw3ZnV0eRSMDdR6OZ7JBHSoEb5Ym+XT9vgFn8uijy8KGO82m2mXMuluq5D1zlgMm5fyWsImJN8o9dlIj5B/tKrRrRc5R+Ftj9yQR0qBG+WJvl0/b4BZ/MF5LO1aBopFQTIF3x9jc3+gqcqVkAQF11KOtNRvl084AHb4BZ/MDt8As/jSUb0z9Yoh3An/UNiQABlRN3wtng8a7Uun7enNqJvl0/b4BZ/MDt5yXwnYncdU5jfGoY0xciyrT+YHbItBhJ1D68IyJa9fOlUR0qBIm+XX/wPy68OACof82DExvjs/Z75dP0O1Om+Wq2A2SD4UPrwjIlr8F5A/xiZlRoUdNBSbUTfLYAFp/MDtkcEwPy8JdKgSJvF82wwNB7QwNGB298/xZJE3y2BBhlRNCEWfzA7ZBks2p5Plr4575dP0OLCfJ1h9eEZEte6Af+0XuOHRaXSoEibxW8aaiYmNBSbUTfLX/43YYKy2wtTd7PXguFp1m4H5dcvMUN38m0ssiAY25Dl/u7g1sw0njgVW5KAKE68KH14RkNP0TVIKGVE3dbxQqJ/1VxLOxFVL/MKu1XagOpBDodDWIkLBeHoseGx8jJystsLU3auG2IrzTfLo07yMxlzC6x1Ugdcieb1jIMSF721oSJu/5hzdQEHqrXWgb5/g9RGVmJyjJyst65YvO8RjfLp4ZYW9uAmTf7MQJqphVTmzbRLHyXem3Z0508M7MKz5yxR4knOC43gskeXDS6uwns5YYFGTlZbYWpUyqncCRN91H625A/xjLEn3dZWSQpiY3xrhbNTdgrfDOJIyFSKG5GdBIxB4e34W1/CYAwpcOT3yUJWIbKXSoEb5Ym+XT9DmGVE3y6ft8As3jRw6U9wrbG+WwCOlQJE0IRZ/MDt8As/mBOAB2+AIU6XT9rxgHN2Iyjarz07MuDt8zpfYGxvl0/b4BZ/Lwl0qBIgD44dKgSJlk1bEnbs3ACxr44LxbI8D8wO3wCz+YHb3z/2N8ujKQGJjfLp4XpWTyDQhqCQ2CgLfPnBRPwOyGZP9dUTfLp+3wCz+YHbIwYmN8drrIZUTfLYnc1vzG+XT9vgFn8wO3nsqj47PTsy4QDCjHbLHI6G/b4BZ/MDt8As/mB2+AWfzAibSQBJlYiaeyyS6whePxzZlGYhhKFqCfXfZ4mBl6QZmOFCBmCjE6We+BjMPhxoAEMc2ssPB7b4BZ/MDt8As/mB2+AWfzA7RPa80i1LaQsrnYRdqtgFJuGz0HGycbISACuGbyMy5Ad69dvJkt1nlWM9z2z2hqP8wsfGZXnvODNgxn3T/OorIhr+abstB7b4BZ/MDt8As/mB2+AWfzA77SeOHTBSRN8un7fALP5gdvgFn8wO3wAQAA/v9qj1dW31w5xOi60CyGcckOqEO0DO3pPrL46f5172hEzt/zwMsYYRNMbR7ZLMr8A2GbAfEz37i5sjzXg27ruHXWNfEAnCAdDCn1tL2RJPjyiviA5haZdSiQS3woFKExrm5W2KJfCMU9bdalhEf1mU4AtaI47V5kGgCpJ4ABaMwAAABwZRWAop7E+m9c0T63DIANRRIQfQ9qb8C0cJ2zPiiqcz5jHzGPmMfMY+YxOWZGuMNgW+i1jxt1fW42MxTf4AEQVk+cbyvoSlkPsOeQ+w55HG3I5JF/V266JD1yz0RKpP/V6XkU1P7iWg5x/bVE/c0V1jE51iN5qCZph4OjkGt0DEJmLHE7mmKZA4CBdk7fFgF4iXXfishx802dRt03enbZubLEpAJo2UaS3r6IAzs+gR7r2CBmA++ERKPEfnxvt5yGZhgvH41L3W45HvbtHo1I75Jlyt3czxrS+4I22VFX8tZvaOz4kAtvo7O8jeBHoAwTPjDiv3x43285DEaW+t0tlsVvAIqU3dZ81ApuXrVFZS0mqCcVGhVnR5UOzIArDMkeDL+XeRvAj0AYJnxhsQK/Xxvt5yGZhgvH41L3pR6D35oOC2bXno1w/H5+KGguucpret+3EAjh0Qsmc1si6FXuUPRM54GknbHeFb4oa0AlHFLQ3MiiMp5in/e+A0ChJAGZBfK3Dh3HSXcXVl/BzuPqsp2p/WjENZx0dpX8z/sECs016eakB396QNNJs2JGRo38bZIgSBh8ogSBh8ogSCdZb0yRpF+zXYlMFdqaotLjc/kmKl8GqnpwdWIrappJX6SDC3e0YQz8TLObu8DTpCZ6GME+SejhyTmokaUSiBJXic6HFbK3hJsfeQgd1BJOJWu9J716mvIcJlESlzyJQx/won64BkrT3K09yoL6Lux5kNwQtk6VS4s//g6PJGGLOPpo4jmR4P30HkR5pqos7EGsrCjcHRs3PSzbMg2UHEZh69wC2KpKBNgG6pA8THiidqtFip6ZUYxFjkALQJIoLs1Q+Jnif+fo69mvCGjziwvNPBSQtgWmhzjmCSljsIxg4ZHM37utxhBWUCsaolHIsJNMKxis5BCteuuFozKVvU2xY/gcZajhVap/P+dxYn1LYQV3c2Pxoa6cXeQQU1TZAcNTYBwInSInxMAr8StWrB4Mv+pymRDrI1q6+KhcBfvWYEaxJjqBEQRnq4MA3kGsFZVlaVzBCz2u7bgAB/jRfz246a9tsm0bSjWS5gH7LtYWQf2dEddywp3P3DKeacy5S2+b6b7MGVV7d3wbitHdlaEPO5RCUg7J/1DVYu9GdKSGCNAfHkzvoMLgIlXZpKFHC077DS8aZukyfmuhvqoGtncOgv6Qe2Ow/FM7ahPKXn7njcURY5yeFxAX1jSlpE9aPSNnAdCmhcDa0iLa03YABzdc49ayjWbYV3aS8uDt/N41z8SUBNTMlqxlF/TCV9KcBFVCcxjOsbMGV1PrKtfVEuVeu3MldUc+1rwxtlg54tJWqPj5bWsaOyKfwHlmPYq3epeg7qRe74PdH6hbI625+hDCwVznFFczJ6k2OZoOrtzLh6F29ddE8jEG9a34aJj9ek65Wt0YSZFoh2vfnb6aRNr+SSPd2bmzzGbKjNz9+7mxeSQqI5GPykKoas2NMgD9TLHa5fXPXNWA+/zN0MwqjkHFmyuqdcj+ZnoSoU8FCcHgdTBpt7W2X0/+hiqL3n1PGoFJaYUQCqXmKK2b3YjJsnt9Llm9Zqrc6Mf1dCqRIZHvjZlmLPfV5x6SdjhIUFPkrAMe8XYklXFTKZTc2bUt7q50X/zAYFPOjKBXH1hLFkxddl2x5tGuJbYFi/Ol8HvvNoetD5xYdF38ROJgt6e/FzLqD+Gw/kk9kpbHsqKyf9ZpTlV2yEalYk8t8tTb8OrNvHWtRrguN0g7pSepu/Gb4ihB41GPy53VerfpRoJ6Lw518lKOGQkAa1grWEvs9kscbc4+x7+J0lxlg13IEmiOTZAGDFbJoa3ic58cifwBoAxkfSOMtI4vkAwHInjm7UAdtSRyNAO0/ZPA/gnLbmqk9K3Y/KyjttuHHWIxQoXZz6BvcxEqqqEAq2+4DoWnBKjtaF8bMapAk8GJLU/x0WGp/josNT/HRUV6fSh3UMKe+O2G5s/c85l2fb9dudNJ4Ys1D10TYLzSK8DFysf4/vG/Hb0BEndjGB4Giud717n2i9aDpEzR8DrqUFaVMLREBm4H88riu8nkrdgExXb1UUoBywFBqZVjC/HD+cKqZUYXUdFjvOgG+0zxRNaQXqAwI1JrQw2JK4oW3sT+MHKvq9Wf+LgHbIFTGIdJM0BG9WmsgCMqKXPJfEuYiWR4uymhOPMnwcKjPoX77dahOAKryFvWlG71lLcjUrFg6DNJnZ6WNOIJwhsgpyts9DwnMA4WiPdqiyl3wjcawC6ym836BLPrEFyaAB0/3qaq2+vB6yTL+zp+oFm/9/VAexTxcF0BiVnnTR/Un/hEsnNsyGqHYH0yUphJL2ypzkGcAWML4g5YxoQwZ5q6XuWmJLFE2Ci2g4Ztt6DDDDEwg+g1SQamAq+UVGD3N1DIwyxUjzL2wvE6tEcTPd9NWoQzcDrdGfQdie/IT1lc1W5mjaRTmFyohh82fi2tSE+nwTs1kSvtmLzKLmUyUlN1zZTFvbaSjZ7KdmEJ6oSgNFr70OODSSXXriOVierZg9qTMwL6reJa6q4vmEphrzJDpkp1NW8ce+K8iHu63UjRIclup1lwFXX8S5mz5cPS5DImlmtz934wO9LbSM8AzLq9ccfmJDz+O5pL5d52xDqoVYYVBkQqGSrx2Dacoz1JL26phT+4CYGmrczM+T54ZisyZ2/ydBqLDspxGfMElHRiKO73uesixnuq+aBQ19zu/A93Jle2XYshJT6SxZcXmhNlQoa3Wnt6ynfZ3cOF5ZmfaLUuQ81Y89uOK/CiKAizJDaIyElte44dfBfGXUKhku8Jjw8kbS1M7g0AVraD+oac6yuK6Cq/nZv/yODjAlaESYURb8JI04JgCn+w1JV6N2V+mx0+CHfjLB/U88aY9aezMyJVW+fHh/QetUy61LV8Sl30nAb3hl9pxZRTp6fC8e5HfM8lIRYUIRxEaeyIwqXvlwA7kANsVxnwti+yjoCLVg5kGflgESuE7chlX0DgNG/WQ8EZ43V/aUY4ZHaWu/ON49FRX39XjLraRPl1SsytIaUOpkL3EbKB8T0LJBx6bx7GQaP0Sfy58L8Aq9Qy942PWxD/X5H1goThrbsvSTq77aR9bc0SQys/RSwEvRzjn//GbOuyW4Bu2itrKW1tl3XXrGudS0zaX1PrL2uh28iherbPWOh5dKrCGxUSu4qSISxzlh0dGIgGGpPQGYNy8+WLueI6O+g6xqroJHHG9S0I74x/3O55tNskOn8NNvlUDtb1Ow8Xg4Z6F5M0kqGZWRB+x2EQLlCmDLPx2W3q/BHcqoa1Ddikrfe5eBv48ZZdkxPlBwNCz2QAt198FZ2hXPcgRLGuZsk/DlNg/6nQN2XAM5Q9tjRkNIEsnD5MvPOsw1pnoNnmHxxoxTnhcPHuqjtate2k33twTzeDiyh/1Xkwk6i2fHji4a54ltjuk85KAXFDo81vsrLPIYZhKXI/AsPfiOklWf6GMd/PyRq7YAAY9SLkaOeuuIxGIXiSyNGqVfm8wdahfjxRIoiqGw0iheb9Z7RXDxOfKiVhSm2d4TstPUWcSUJAL1S/h6seNCd44nXxlXmMLi8h8dQvJzYkQ5VxwM/toLB0TicI3Zy3Ak9xOtPMd1z10hT+HKzOKTqLyfcJX7vb3iTUQhM9TEZ1p5ru3ft0GMBOxKYeO+g+li8zMGH01EjXsWJ7WwGumrgf71PHlesDTP/GgOk5LNnafR6ASse5y0vmvqX6dPg91hafNPxNpG4jNCLutao8u1LaREbUu95wfuec0IdCP/LOY03WQgRt+zby+wkHgZLvuOOy35iavhraLq3U09PAqdbMmzGuniDvBXU3OQ+MleafueR1JjUis7Nx7pId6ucVqvFIA8z/myWd14weH5svYfBbdi/1qeQwgl/Uakx0wVv+oV/ml1aiY6eOOaPtLc3lsZu6ES0OVf43ZrF4kzGN9loNO75SmB/hEPzJvtAZMBDmnk93WidkWbh/G8JBFAcAw/8R9gDF7wK5gSaTLC7euFr9nIuNIWinsD8+gfRywQxP1LO9P9A7AMtd4g8qAW8lJU6w+DFEQnpLt8brQn2+UcTyM9Tp8umYTjU3hQrBy1xDZjBoN9E9p9s4WV6VntJ3sFBWFy14SjSHEgQzsNoJCg+cebMkpiAVWPWIcijjhVllXAlU+IV5sN1Ab0EXcWXGpZglhoZs+jeI/J58hzbTUP3KF95F4mJkgXFCyKB9GRsENW0EgYSNj4GHK5OnYigCYB6le2c9v9DxpKZ0LT+jUhSwYYJFOLP3bwF4npbP+KBd36T9iFg68gMREkgNucS1A2ijzlnPdrlvCCh1T6BnuQYIQuGsUAMQCcVirJ2XVfrCfwf5t+AN8/U+XFeQigvrqHSRey6cJdxHnVijTw7M+HwPcTcItnLXtrhm2B5hg5C/inxafYaOnhAEBvWADn8aAAB0VgpmPfLRF0Mzy0YLJSCYmuXEC5l23lfNXDJaYEyLc1hJFvn8WTjnqWyD9WLIw+5rCSA09j8InU3/5XFMOuc9wOp41/v3Q3/3nSuTXHgcz/yr8b0esW/g/ZyllQeNO01umsU2IVBdUNyjecPPYsjJsQDXhnVxO0aMK+TCSf6r0dJvWh/oBploXbY2almkWu8l16akGcXq0l1CuoJi+rAMZTVC3o+unE8kGzb/PJQmhxYtmc3VWRvBFQCbD9toEAkAbGoV1Fl/SD88GXBFng6a72FM3dwslq9/wdTRaUos1rppgP2RZwzTIwqYxDsvPAyYIFFp6EkZNwS7bj6yjPClw9t3FCLatxZZNkXySO3iQEgK7dwXcoFkhSZQhsR7Bz/wpfKclBPFUYo/ym0NxGjhGIL8MRPPQDsWk4RxEYatkJiTg69zz0A7D22CXX/WlgEf+uwAdCfIwEoNiToj32lU6YaSQOW+ZUczFwqbAb3JFKB4ze8+BRjUlog2F709q9QH/2ZYhbbeOdTYOCxhgL9u3WNAGdtqoM9urawoWtwPVTN53pRkznCo20mfIfYpKTvUT031MHZggvMUshAELvF4/8KnbOVvhVU7u3BZdDN/dxbdOGrK/i1DEcgxL9ZJ9SOK0K22nH46wRtATYRks5WcduHvOqPKaJ0+LjtppKIrwga3jjGdgfX2HdjcLJKwQ6eQnXJIiHyhYBKNgjz1Dahi1/9MK2TnsvLlgPY8y6cyFu9Ayw/+Gq288JPyfH+3V05sejG93MHIl8VztlJu45NrcZJTtY7LPs4kXrqvZHO53P9I+/i6BYjy8OJkMoojGJX4CoWX4CUSclUC2FpwBmTI7T0PaOYxLkacHmr1r+fxJVbqeorS79X+J2VomaL+sMHqA7OJp0iFFd16Z7IFHXxMLnnQCZ4nI0xaEhbueHmyoPqSmp+JiJW2aBTaD7Tt15mWM03O5MGGkuGYg+x44Q3uAEJdZp7lZMfUQniTw+cvbP/JAONuJGl2CmhYrFC2qxOOzpP02hCuAoPbeeXti2m0z21HMowedLQzl2qhJaLBmWnftf8zaBXSLewvYjNRRC3+7LWOXuqDjJswJL+QC3hRUC6G2oXBEKFVXJBeDc5LmQDuagwbnH7vq/o00wzwT0PEhdE1ew7m3iCR4MuP40Ht1uqKORTex9bhu/I77Ma9VEFOEhjEBGjzOwEWiDpD2qGeZpeVxm79hdYSKDotBMEVztWih7KGJeZDmBa+cM9VCjxrxWZ/sq5BzGCediqrIERb+6swXBmKpKpzz1CjX5YPcNY5Gu3u78E4OP0TdWH0kgqpT53U0m3HGWPx5jZZqtQUqOg23v8yMk4RcsfH4JgCw6czMA6PHwLK5fteZsvGe3kF/H40c2HoL5mAenadsYQqTxd3u3u8HxPzwIBZtZXncL96Zzr5kGLrk1miyAVychp41B6z8UZ/IWJwGrrvePaE18By3PESXb+C8ucOkc75ccYZsRP78EZMHaZKZ93Ao2YbMpCMbGyifL/ox+edvrdsfAV7fwF8tGIjoAi/0Op/SFvMuIZ8IUop4NvyonRfHCGtTGCO41OS5e/HTQKUNvEv5f/QS7BTYRUIWbSBinoLXz6ArHBrN+TNBrS7JDk4Dr/fXWQBJchVKeJ8fRC79u9jD4Z/LiO4/2GxMf/BA89yeyfN59/FI/SGn5aBcUCU/5W1QKLQpcuK+ez1EEqQnV09CTCoYiCnZggU0WN96V4dFUZswp4Lrh0PIRkQ8coipDDI+CE1rGzsdWfK8lz6YC99vXUUKzUM+Dd5Y0vew/a9jEYr33azLYhqUwPCCd30liQY8vYAuohFu8kLRnXSirP7H0fFdLSrE810aMIFl7mp4S9uG8LY7nMW0rn4xPyVgwJaM34gN26OhxppiujpJLuWm6gQ0ltG/Yhepn8FDtvpv0gdrWi7ReDxSjV5l2y0VV4S+n9AK3SrjyPN17J6prPsJP86k97yEYtLgRKkaLV2D9rL/mLRfZG7TzO/OGKad+xf8+LjMSh4BmKLGmE2Q/qZrahEYyRX/+IbVtXgApP6yMhR6hNLslY+wUl68DZkyLX7GAAJCZZehFGk398I3uVYKx7hEjxSHtSRA2h5CP67lCPakSD3ZnDvcyQerEsOCFilbbHB8gZKmR4tlmuAWN62MKuUIbwU2pu6qmr+mwuoArxhDObvuIxW7H0tAW0iSQX5FgTgZMIS6u4RRaLalJYiRSebBzHeyY6T6ReHRQBxXeekuuvIgZ8XZHX0Sa8hfYNeMUMGbTdDWs2zdawV8O/lq9bzlmdzlBvU0iJzx6AArrLQicv5ktiiQ53eSjfs3Ke7xCPjsfK70hupSA390EgpoaW2e2u3vOD6SbuQ0lak4p9YgWz3QqrjTisHuOX6IABe6xJg+6DkvYxasTleh8RWp3awOABJQ2P367SXaJYPgpvvrzyl+o1RjITWJsjJZr0mEjDFEnCWrzIc0QVqUaml8dP8/cux7IexReXqgX8LkUHXxIBdF4APm1inYy7avDf6NAy+LT3FcjJ5H+QrKIC6NyC4XBD623KiTg8WIpKPPGYlLfYIyyGhTaTIY8GI/OQfCOZb+UMW6kDoTKfHZYnWBsuNxalzi0YvAaOw5VfqsZAltTT8x1sgkxHlB6V8XGCBQ+WnBRVFQWAAAmAHSvyh5q1uKjgoZTQdyl3Ztp13bXiY3E9ngrb/uceG/qCec6IAAKRVKpnOZqvCFObJCQPTidELdNhNxYxg65IuyVm9MQ8qGUTG72AI7SlT3kNq6HKOHuwYlDcv9skxXOli2nCdezz2VRdjidEjh6wfcmAPPYGV8TSbKTHVUqjN652UQX0pR0RI/x7TgBL7Fyv4l5x+YZKftemVa5GrfI1b5GrfI1b5GrfI1ZwI4sLuHFZJPtYnHEj7+Jb4MnpFNeFHaveYM0/8s83NO5PhINie5PhDP+wlDTYqUbr6u7jdplw0DGLMdHarFojTIhIqlUSExTf5jRMlXRmmTdvLrirSYpv8xoBmWekIVJfdIC1V3/JuD561za6LrVwFKqwsMgH3NjSKDukO169GZ1V5PglhcARmpPuphmU54AokLhQEXPsKmFTKBuE3hm5jDmT8nxHhr8BHxdzH0bwv3oV/mF+zIisXZkhx/BO9I1zPTwf7WLbAdfXD/PRp5zE2gk+Np8ify+j12XRsFK/mNzH4y76aMGrafwEfF3MesDuiAMf9l6ouX9hdmSHH8E70jXM9PB/tYtsB19cP89Gnmxis0I5BpjK/JcWV5wL2YtvtgdHjLvpoN9BxXwEfF3MfRvC/ehX+YYAtmEqMPRhkd+Mcpb5+fz3E4VWf/EpcyFYDT9YfLD09K3Bwb/QOdVxjB/D8jiqL7w3mMQwpM2AGZCgS/NR+5DSC0KL7gY8BiWgibIZNwV5RQFfZfFrGSkSP30reMB92zmIYPuiSXeZoZ+gCunhuy9ELE0mbn7gcDT2WzwD3Lfeki6DaB7Pf4x+kKmakJzi8PzvXmTA7oQ9djjhInkkJHkjHt/58UbG3puPvc1ybPBsZ3mbIMwDkyyitPowsLokoGZMbmUThSR/PqwWdYZIFG43bTNL4yV8WokScIKEBc2aiI25FhToCaiK6GhyE8KtLEU9lA2r/v1xANQgv++xApSetIDJ+T0vTfD3ScwanWVJs0J7vBR2YY23GSnWTMuSsxfr0IjduPpNlrr2U02KvvM3vHE51/qqeCU194qOixTSEZBqNnp7xSltMoc0/Nfzb8PABBfh8CgJbVS/KrZFnbYA025wKEYm2FO+GroSBlsg14h8l81JzTAwzEHrVzO7Hn4OhOy3Z9XJX/02d1QX4bpkdwhnpmj5/a8+5KNGh4W56y/mRXVGxd1ZvBZ9i1iKAcoPHO9n/XWNjGvcixEeHdQdsETmM48tiXa3vYJnddCaCsFBByES7TRpe0BXww3jpOEget2FPEy0xsff+ZwupyKyAqPRi6Y6J8a4k7FJvAZcHmt0SNLkcrZxRb8COYzMZ3cqafouGH4M9TvPGr8rfluaSwW2BqmxHCHT186r9W7z73Tj4SfLGzY9JSUc2n27mSY9gkSG0CMXEud7iwma0EJ5oqzObHljeh4BLRv7ycNF3ia8Mqx1XKgbeICuGrT1XYeyfXifGehXkq7hWBQCNtQrHC8w+xA55YXRFh10cHFaFZfS321hlvLIzOmzR/NCq/rhwrrlyc2Lk9qnsUNxpDnYFShyF0+tvxMB79QS9AP+cYQKGcmr3BNxjqPV2+c8SyRr3nUVszrK6BVgXEIN3c+JFfk+G7mq94Ng1OofiU2HqTLNnDf7VhSEud/Hamrj/cnVB+k74HHzg2cUooA2OcQ+DSJhJbA9h4kTle4H4Hz7xH2bFqL2E8zY+bOt1G7jhVacby/fN4A3k9f53vyoiAd3EK2qLSA+NJmgkcIFYerKN/vIgb3JXcieZEr4V1FvX7jwRi81Cz7oU+v12yKPiYP8zWt3SsvJPeSe8k9OAC3QrypNPm9n/4fa20jnKnJUoUkh7bpDWAAPDoIHILob2ABL/kAqRE1fJ4dXhJmtRZc/HTDx/111LDZg20eGmz2QkCWr3ctL15HauTcKTChoFTSva8Qlm0dK2/qM+aqmE2gIBQrIKW5W4slGEvWq8zCnHN+HQQ8ZJXCLpOYDkddX+UMlfL/KqrvMhv47TF/+cIZAK9sPVChhaQHyzy/P5DI/2QM2WQjVZKFCWkO5h480KPo6lH4AUQPRJFOMCJoz0h+XHBILZFbxAdAGoI8mtbWqBGikdw9ibqyoMRlQHTt82ma0jxwKENzO2Q0LxzzBhsC0vZudz10grKIHCEz4sgFK2rMh1FTHr7H7uBrXW41zgAAGTkubroVymijzz+BQLovBOd71DecrwIAAjWO2TtfIKwbBVx34oH0s/00WrDtH0R6h7TFXd6JfH28jV3RV+ybIOW2wITQlJt0Ewbpaoqw+GkIjvEhptDWzL5vC/kX18vWH64uOBDCaYcQn534MVL/WSxHGvKi3VjzIuCQAAh7f6Pfmi0rZQHMJRYfU/27RpFyagpkJiUWTj8zLFHUuV4IQEnNK6oiidvQGaYnWmn1vHZW0XuNejM5Fh+gaV6ZWgplK1jT8lV9gLYSEU93Q0H8wkTlAxfIuorXkhXPXdPtKZfQBtvo2aM6ovAvlmCg/gNuCjWp2tIgaO5uyKDiC8Zt2i6U2oKaMEt5bEAz44gIfRDlCqj8D66w38vXTtkWE3f81D9HnD8yVw1OjeBIsTyz08ed0NoMR/pyPzjO/EgZrxHTSf3icBQm2an82BjpFoD8I7zziNLau77e74BdS4WC8WlheslbaVCZawEFI/wbqVzSM+SKRG9HC498js/kBAWjKhPE9Q9s8kLhxTV1N470ICOAAAxl0zpHvtKU1ffQvqjdXPPviIi2o6W9aYQOX5AA+zv/HAABaBt948w5b6uTfYHco9PT+06FmkeA+LW4++pJRDnanyH4P1kGSQCihy6yB6wLeO9xSdQ3l0sdaKkd8JD9TO9RDWXxgwEvHFi2Xks4fHycrUo8t91V38lUE9DXcTLB7aJciO1Ni6BdsEh388n4mcwbismDIJjcBBQuQOsPxaf8nNNQ+tet72RsJ6cebrNy/Sj9bLGTkoRwIaRYzQy6griv6WJ1ga/tSai5ZOGrQKht5UN1iVKx0eGsfGtwdHWI09T1seBU5iEZzyD5k4Sm9H/+NRRuqJHwLUSQW2JCULc8cM0cKQwSEMui6p4X23XZOnQu96/j84G2kGvPPNGlCnv2VathwZa2I+OGnNeLRt/JDmmPnZvNLOzFdabuhv0O2zug8PbmEw58j51pLlbY9XTxP+mnZ2Lkvl+hXSnXCtZaOTbknPyH5ueOlAO7q6yDNFHhXM0WxreTx2Ajt+VyOw57/a8KHo4VubCo3F98uNlrqO4C7SNNRCEMiuAAADHCYsEunB42PjsN95ZYmuKE/2L8e9k6G9P7yb6IDqLAGYESwHez2kGup6Kv0KDdCiuLxjn4Ai2n/iF56yaBHo8PLtCRRWRqqQcBj7Dxbv42T7HhGV5vTj51HtqDHj8YATXrWZK1rKa5ue9Tu/Fb9Qm9l7eLfwGHaxVqI82l5vv5olzOfTsd8Hn4cD5EN8dYIHkzsfhTb4khwHxMr4roUV5msrrR1pZk1z6pR9wSN0Ls4gZyE2TETsbWU21WV9mNz7a356PdzquQQrm/DCtGBWdyV3XPr73O9snByUJ+RiaytNPgkNi7v3J8EA/dFyv334IrIh+ABgr8NKHEA+Ijcd/PSkffoTTPvHC1bQqqPzkHuH78NOIOjXaPY1fCN5hsqmHE+CeucwMDhnXD5UrhfDTxo7VGb+wvTsrrlPBYLuf8SYGu8hGyaOgSbFb1FaT+PwB7GI/LpRtDRODfJ7PX3TCEe3eveCRQW//abAoP6sZ0ijHh16+U5V1ln7yLePeUmNnQXuWYGdTH3ZzPeluF4iTPXya8i1mnMDJWeT0Ml7HpnqwXJhkgLNQyKU5C3aSqZtWlvdM3v6xzm1wyu6Z09tvXcdJDQioA24Yi77F+jkmgyVRtlSvlmaBOK9VJwt+06oFifcZW+fGk9S87SuNBS1bNj+/3w7pZ3++B+anp2cY9DoPeaM7pxwDV/eEOGLbKNK26AzullyoIhpxaFH7cHbEz/DUO4um5I8KVMJuiSnDA/rieWrXxljf0vOEiJCIgTtQOQTlg4NTn9PER9Jc53yFx5vUnKv6IRnGWOzJz5icJXn31YquHGysIaMS0XbPEJ8GR2HXd13H+Ksmj3V+zcnNeflTIfbRxfaJhQB1rdz26I9Cvzqp28NUxhtmWslq4503WIat+cTV6y+SXfL/Wh34eG2vi85WcCYnmevPbFECKH/adxIJDjfqsyZAPGMWpVULszLxhSf/kzg3uMrn3jleC7k/ivw6I4lBvoV5+RnUMl+8M+/VzCaCg6YN1MUFZ1ESb7WY/zNBW5yqLCMtzRbo75YBfvF2cEXCZn2YMMtoUmNS7fuF49nm9wpq0QV9OxJGRi4fJ6CXJkKyUlYTZqdDVKlTJNFb4P6F7v4z+Qyq4ypCDOc/1LEkSuXzom7QqRLdgyjvV/pSIw0KU/YT0AdA1/us0OFG627InwVEAjY/WzfF8XOwXE8oHIGGWOLUd1gbdyDNa91eJH8bNl9ujpUB+Utm20lWQInjfPYUfNOCI0AAAAAAAA=;" parent="1" vertex="1">
          <mxGeometry x="-920" y="1590.91" width="293.25" height="267.87" as="geometry" />
        </mxCell>
        <mxCell id="25X_njBewesHGOsOMjHS-64" value="" style="shape=image;verticalLabelPosition=bottom;labelBackgroundColor=default;verticalAlign=top;aspect=fixed;imageAspect=0;image=data:image/webp,UklGRq4tAABXRUJQVlA4IKItAABQSQGdASrJA8MCPpFInkwlpCMiINLZqLASCWlu/BFZpwyvw6HP8LZ2pe+VseDt5zsf6n1d/3H0m+hl5h/5F/svVV/4vqq/t2+v+gV5dXs8ZER4z/oX46+AP9g/H3+4enP418o/UPyL/t/td5T+sH+b9Dv5b9XPu/9h/dj+yfNT9P/uX5cf279l/Y/5F/3HqC/kf8l/vX5gf2nzsu1427/W+gL6s/Nf81/aP8z/3P9H8HPuP+g9Df0H+2f6T9YP1v+wD+Pfz7/Xf1/++fsF89f7XwvPuH+t9gP+Rf3D/r/5z8uvpo/mf+r/qv9D+ynto/Qf8t/3v8/8Bv8y/sX/F/x/5P/Ot///c9+6f//92b9yxFxqbXgRe1I6PUXZ9oTEN1rG61jdaxutY3WsPsa0e+aNImpHR6jA06DuPZwcd4OO7gKTIlI6PUYGnjChUPSTpwy4U4owNPGfo9RgXJMCjSATEax04aP0rbRY3WsbnwHeDjtJuJiATBYWCy6PUYGnjP0elnItiTYfpDl6dOGZk9B0WN1rELBx3g3gO6TYfpW2ixutUJenThEax04aP0rbRY3WsbnwHeDjtJuJiATE0LG61jXJShwbvg8osbrFkuDjvBx3bZA9ok46ovMwW4Ieq5QH2LkBOjQzB0WN1iyXBx2kET0HRYhYOO8HHeDeEwFZjqwUXd7LtosavL0/HqsTnSTrT6NWKFIStjmhOe3UAnMuxhw0gCa0nN6xutY3WqGa61jc2GwzjtUrh/EpxCb8jLOC0u2TocMgwbtk1grsu3CtTrJhCPPWDjL83ZGwMp23TxlvvHb6MSa5djDhpAF2K1jdaxusXBN1rGuYf8iYSRew8vna2t1ReeS3VafRrrOJc+7/tLYbb/jzbmGZdjDhpAF2K1jdaxusFGzy9bKjCc6SdafRqot+RVGd9hV/DqDEkifFSINmfPoKdQXy7ppW6DWOnDR+lbaLG61jc+A7wcdpNxMQCYmhY3Wsa5RJo4aAOqpMbBD9IcvTpwzMnoOixutYhYOO8G8B3SbD9K20WN1qhRO554Z2+uhjXgt/yS6TYgC7FaxutY3WLJcHHdyJxEAnLtY7XkMoGnjP0eowLz5tay3CjGbgC9QGg8aqpBX2FX3lFjdaxusWS4OO7kTiIBOkAl05b3KakRuj4Mj5klEdYnu+dtVaxutTGZyv0hy9OnDMyeg6LG61iFg47wbwHdJsQCdGR5JVkP48r7WwCQBJK2NByESUyfZ9B0WNzr0Ec81YtkfmZCQS8mPo+jVihSE2Bg4ECo9E6HBx3g4zhv13DDCFGBp4wuxmZBbaLG61jdaxutY3WpvI4FhHB23hTTel3uzZjqwUXcCTjwhE+E2IBOkAVnDD+M/R6jA05lLD+Qu0WN1rG61jdaxusGdrlKrQ036DknwIGqyJY+s0XUr3p5rxJsQCXIzzqTtYayExh7VEnUtpJaAgdR0Ig7QkzxmUHXyGVRJ8AcKjN934XSAkYaynMS8eseOHWrKV/VxdEt/8z9Fco1fwA28yrU28yCAnSATpAJ0gE6QCcvSvBepmuiqit8dUXmYLbVttXuS8QXDuwsnkgJ0fEdoLpZDZnBN7SDmjeAFB1WgqEwSIEOcSylEQE0q78FgKGVJoFhEAohBU8J5EB86naLG61jdaxutY3Wsav88oQotaYOq7BWUnlT6vDBN1rG62/HrGPrFjdaxutY3WsbrWN1qguQZrDosa5KGwSMvMNsYbrWN1rG61jdaxutY3WsbrWN1rG61QXIM1h0WNclDiZEntOxtrRbFDZikkBOliZuJfo5e/BDDgcxPmkTgy7wcd4OO8HHeDjvBx3g47wcdo/76KBx3gk+5ZFukwW1jP4LflsnNFVYMN/U1gVqZYJgxhOuHSnsXjMWsXiy8ALxAJTREcCmRmLfEdImERutY3WsbrWN1rG61jdaxutYbFkKbxGSsowZXLyWUGjcHvgaiob1RFYo6vE7alGPCKiiYGuQ/vEhE6GcU2vYSFXYR0iWej5+zfC/AdS/hFge9BDosbrWN1rG61jdaxutY3Wsav8fGtbEZWCi7rBGldtGs5GxAc2wrfYVvsK32Fb7Ct9hW+wrfYRKAp/oM0dTgmcBPakrxE356yWe3Rs2My4MUlcUWN1rG61jdaxutY3WsbrWN1rG61hpgp/v0tBmtYThETdrJWZpP6wf3apD4Xviq1SW8BOgJ0gEvY3vAwhRgaeM+qxrfExAJ0gE6QCdIBOjJ4Nhd42tCOm6h23OknWn0asUKH/F8vTvsK32FboaFjdaoS9OnDMNERb9paBp4z9HqMDTpVFGVGRSw8nHII2K1jdYs4DjvBx3gk++wrfNsHHeDeAIgE6QBdisNKXKEYpcB3g47SbiYgE6QCYmhY3WqEvTpwzMnoOixufAZ5jDd5d0kZ32FbocmbrWN1rDdrLf+whRgaeM+y9Mceyhwcan6AnSATEyH5In9NHG8Oobd0kZ32FbocmbrWN1rDu5uBnrPGE50k603pHSzyCLG5wd3MRpbcR8PUYKm4KPjIIB2Iy3x6dGC83OICRDzddELBEhDxyqEWN1rG58qhdosNvCmAERa2q7hxXfivGLMSnMALXpyQQRQvZivJl3JQt8qQAgk8z/NXxibA/UvKUwQSeZ/mr4xNgfqelAEYT3c4ONWnjzWy8317NrBaI4UEmaNXEu8HHeDjtK0TvsKuF7HDvcO16ut+kAVxm/Dv3TzBbgh6zxhO2s9OLUrvBx3bYhNebiCz97najdSCTd+G4eJsmu45bXRSX2pCmsoTFAW8jY73jsKS1cfTiR3g47wcd22QGuXjryE2BhOdJOhk8dS8N1rDv3ulXk3AljoUvch0WNzpbPDlXoIvDSQVvp0V0EYgC0JTfSCR9cXK32Fb7Ct83mqr9ByWzF3IkVp+wrdDQsbrWNclKHBx3g4+Bvpw0gE6QCczJ6DosQto7wcan6AnSATE0LG61jdaxutY3WsbrWNz4DvBx2k3ExAJeoPm+HIUYGnjP0eouXHwhXkjx3g47wcd4OO8HHeDju5DpsQCYnJm61jgZJCCG+PO2Jp9fIQaGBaxvCgtUOO8HHeDjvBx3g47wcd3IdNiATE5M3WsbrUvvfe9wVL+DZYo4Dpdc+KqULxC8r6idsbrWN1rG61jdaxutY3WsbnwHeDjtJuJiATpAF8orKcgJ0gE6QCdIBOkAnSATpAJdmVajdA08Z+j1Fzmz+DXeDjvBx3g47wcd4OO8HHeDjvBx3g47wbn8441gyDGkD2cWvSdrJfxg7KCeyrveXZ8aL7RRkvwnbLvdF11EQ1IMOl1IJAwfjm1icaLG61jdaxutY3WsbrWN1rG61jdaxutYH+RnDLIXpT0a1KhQAKBnfcLuWKY+ubrH3DEYw8taYLVpssBHg2jPYGFofVKaD7r9GTdvK9snqbn48mkqo+LLlTOtKraOixutY3WsbrWN1rG61jdaxutY3WsbrWPw0i7RY3WsbrWN1rG61jdaxutY3WsbrWN1rG61KAA/v+VLy63llynvtHqBlyI4iKfgD97BmtZCYf4fFFjP/DDb6BOm/Ps9wP8RTCmHrvEIZ0pqEZ9sgeitezNvKwNOubxAsOa3YI0Ycfeea6j488PKYkPvNVVo2dGv4dB44OV4Tjlo4PmJpJUpAXrZsZ3xZyMaEc9UxWD3RAjohM4oCCO8BPtidpAAG75wKBN9uZaR62GsKnu1BpsoLYodEt1SkskCU1pd/jmHpT5XzEvmJfMS+Yl8xKqYk5dNNqSqoOQaRqPj1q9EkDwBhhU06wyIUPHoB9ZwIaIVhZo0skbXMJzDXleFT9Fn5QMlORAGwQTMr8EP2HOaFJfWscM5QW/OYjqyge6YMrlgEZRNfO2IWmnNh6HLNzOC4sF4DDHEtqcCe1SqyMoPDuznwIjQ95htIuU1AjGjSCX1s1LFvDjBPrq4TpaOU65xLYuJVcUGLc51iXGO7IFxlMShRCnj7m8ffEKaJGY7eFuudMZrz7kILnWa2ClKcv/DjBPrpklk8TFYoeR3jYpTi4bO5ZOVJkGmu2QSPbqp7Y+rJQbgdxyBt7nNiiJsmylYf2iX28FnPQS1u8OME+urhOlo5TrnI1EquKDFuc6xLjHdkC4xiSwFd4iqAS1SoaFTsUwonRZ9qpw8NKF10Tv/+XkFqtMg3Sws3bxwG+8E2QPita6GJil0aDX/SwMdQsRSWX8EgXyrwRYvVS1w0I68cLLA88ove/5hpDRD9iShQJJft1WB8NvC83lHlXffKFYkXfKFYkXfKFcTquCRWDVRe44pK3PIIpGJChPP3/2juhY6cABe2Z+F5uzudjl4IGnhYh1yMLOMXxOzOqlcvgDfK7HKM7FKiWHywgfuVp+TYBD+xRDUcWUTunB7610A2rpWREibJboEqnZphEknSJPcL79MeXsTydCiMQ9cH6w0mmnMaWTSPc0Al9GuxmPeZDFie1uXNiqCgYzRl6I3067zDfYPSb/0QwLnNhbY8KeYKNe25NWCsoYHAGjYuk3uIX182wznwoiM4TrmBQyKZMkO+ALhxnrskfM/K9c9uUyzog7baFbVYs1Sm5iaV+lJtcyQ4Ae3RFxBdEjcBK9AABMw/bksDf1c+1WVue9yGOKuDsnMRPjO9Gp76f21rrY8r08Felx+atx/C3ZMczqgISwHQcAACoFd9JZa2dptLO3sn0zOfvuFZnmBXnBg/8Vaf3MHQPmcfz/dpxwadVwKldllLdIU44AAEOKC2MWQgWud/nE1x/+qM1dQrnMB2yB0bs84+DBTJQJbKmG+OqbSp51OkEouABVDvo/v2HDTa46riTBAAWpj2lBxoxGAKWiT2TIv6STrlXhkMNrpFL5syKm7p5/YAIMNxLBS7LCjGmxf7O21P8OJn4a10oOwhyiRpAyrd2HooABmV9Jmj6wOiEotevgdpzL+x1jzlDx1cm+vR8PcwX3ssMQMWjlvmMtntGJp8g9CJeYY8ab4WnS2T9vYCaeC3dqhsGJ6Q8tuoOJYROA7GYKrKfgLsruhHz9m2Wiac/gES+xKWIpZLkzyjWrn96iEo6urXQzDsGRtEkkhgKt+LA0yRNgOzH8446F7iXbiid7jn9w1og8NBgwtIETXLhNyrJyHeg8Pb4nXZetF6xz5BWohrmiOeUZ/SzIkGjCOkpC8qUvd9L1RGA0Xa+dwDYqoAq97gFHOGOTtGCj2XYZqya5gA4yfLwIPFw9qNuIBtTVgWtHVlHYEjFyopCuMjfCvEcBpyrFKdjhCNpLd0LvQcNBq7m220BEK/3rzIVHiZJ3LWFoKTuvWGnTgZ9KeTIO8O0oaTIVURBLkn+J95s3qkEi38RUxAqcnFq5oShvpl2a4Vjeb2t754GNp0qYzYKKbGUkzOL2w2YXoay7YeGCkErJXu3tfpN4Bnn9m6TICeY9qhte+s2loYBcIMK42WDzdIXo8Lr1TBUdgJfN66PF2H8FgitAhUxbmCIxwbi2jAXDt7oPIbehl/xBtKVlPbVgkU4CvvoOfGT5uuVghRi/xUEB0JAG+sAtu/PkkFfY4tdCoFeog/edcVQkGpwcIUQY6U4/JIKVtsVSahAkOq3MLGl/jirtL/HFXaX+OKtwyqzjy4fNXx2EDY/ew0ZO0HsYvj/kmOhlsmxihtZ/hSHRaggpyaf9/eP/lZYA6BgbKHg2QMulmiQvkdb6y8E3Y0mRdkn1VQCISiKp5op8JEPgCWH3iVUYKSxQ0l67cBOr9TwyyVWnr1y5SLWmMTc3lBFOV0EKGCnBUyqnGrK4LFpsRF5EaXPu4AfPTYv4EwZFAZvOJq31+BXawipY/Oc4mTP9VmimmxpPoPsB4SpvyoYYakMC5sNradzG9nTrrj4piBAKgQAH/NAUlF7ZGTOHr5kLmv4VjJ933X5CoEfjVcp1rdT2SJr2vQWPf2Ych6GSafVxJI2oiNctfp/Mq15gqoM7bDHKvCi/zCVTE2WYm62Kp+lfXQEdm2Wx2aEnNvav95NHOmEuFcytV4zFb221AWAh/+MXi3D5mMAkXOP//rC7fMtpcIn6dQY05KFd090+DK+a5SK/EoHww4cNDoTja803hJL17PFZC0MMwqDAfYBF5Gu5ffCFmWnqn7A8vep1+JqLvFLzFadfLuJ118ISsrvB3umaF6nmZQwOrxKpKOKXjax1NPXyQmDcIoHXJisObRS9mWLkDPiRgPPVFHWlfRQwVWbmqmF3NUvNWETNCu3ANn5SVVbEsMXTJEluI/ZDWAVc4Gn5WTwsKQ1W8CG8bHeXLweTDSHoFyZjUDzS7460kJARHYGEgyA2/gfAGS3VyCduBrzHmt5ocwSb6dLiHSzVczwDz7Na8uangFdrUaqMvlZ12iEbCWyOoVuM1eF+KnFu+mXgiiMaORsFm8Sfar3dNA2SRYz3PoMwSZMWEv9wrprmXP1dBqNTXw3Qs+4606y9RtqrVWctmrXQMSE/r6ZQIlyDtY0ZZ47T4WBqP1ze8OJuJ2i01ModpheVLtv2RBnTc+TOl47TvER6fSeDibmsPH2GuG9Uw+lDwVebTy6ca77FcmbQ+2gMct0xBFhp/sFTp4zUBVAxhpOK5Q54AqWrpETBVniuLJ5n+7wyFrN5XEB8EUQ2qn6J0OjNSoYRMrkm9ZiE4mzavNDJzXvVfmbMLbiBzJEkEb5cKHWxfzhCDG6kzrnZvtM/j+CoHBagISP/18f2pQybjBOTjUECQIU/m0cklH2rxPSdWrpLRAGsMnuOs58NWEnN4s5iAzI28y0cEbKjANwxP0Q6RbZZ/jB5Rg+o68yVTH5xZR0f0v8+PaRmJLzq25kHCN5CCUj53z7+1EfE+uipOymBFoUlnvmVIuWH48kIgFH0USnoKLfwH/xnA/V1Bsce4sw/JPBeBhac6Y3q4xt4hIW8DAAoiPf7WyiSS2yrxCQHN4DYki+xS7vBS8MlH9AAvc2CF4yv8h7jv2w/N+ehJ4va8TQvKocQeWo/2Y/4LHrFsjWCdahWiG8dbtvOFiynNh8D7CyFD35heK5+F/Up8cDKAWOcPCvpq366swTON4LUxlsiGUqBycTwYviQAKjZ+rp5v1JN47TXnOwSs8UZrR6lcHVySQlapaxBmtWjw7jui0mz/ISRrWSUeQ/UZKBiCUD5+HyexIWpp0lhOLwtLTu+5tajOMGB19+DutzOOUUUMvgLuEMq2YbiOHFZXhj+N366SPoUplRjPHCroeiWLJ3DpdSxDRAsxu9HyXLAq93tA7H+aiZp5UjEWyfniptNl4I3iXkSSAlW1Cly/IEB2LqkjNdJOdZjzFizOVqUF3S7MJv8wINroTHCtD2KUbN2KzLYZbO1kErHFnLAyzbbiKbnkbQ1rnk4noHJTcTY9AYPHiuVnKkuMFoX5zQxxmLNDate9Bwpk2oeEZOOZkUlqszFirW1SW1TZd44DuHcBizBwfPLri2BQ6f2D7MCaQuxtKXhxcpF47dOLgslJ+typCw9ZkvUa4yXzkM2aRG8ZKa6AXA5FJIf17AUEUOBHK76SBWn4Y6kYoxDEuev/AD21fBNDVDW30JcpKaTDHOgar0NzcuXcT15j486xAW3BHtVbY871gGpYb0g3Qql4LCxPMKr01QpV9E1yBI1cwVFCxC306MU7ptq9016I6a/ufRoSCxRMqbDoMYZQhtf+YYhTphkZZvMXEoyPqn6Hlow3Jrmw5D9iIGtTZ40A0giowEHOFNyJwWSrRGDsos06t2Ntr0Il4Od2Yi8D8fLz+pqKLg1Cs7qBEgEpb2NkJgX/hp0b7zQt39KRxbZk3xTfwUrjRXqwK2F/wr16nmJ8e5lgOBbuiGq+pIOdhF/vrDXh4YzBs4ci21zpr7s8TSQiylawl6l9V0kPk4QAx89B4WIUw1GwbuJdcmbtdLw9kDn4Fq76x67AftskXF87AobhJ0l7PvUwbxdXs2CjBUNXMOIVELmSEFmdxdVzLUrR4B4nQCJb3y3YL1be7OcZb+IfidGpSxvWeAhsLgVDtsZ74Pce/Mr8KK/hfOikV757IZc+KMReOY41xSWZy0t3RCF/L7v9z4NPiAF4QdJFP0KjgSlI5npINb92dge5GMyiGHw/myXMnBbO0roZUQ/+EYAAqrFAABVL0NZjUYwn1dW5eDhaPQaAI0KFPBbijtW2XzVbIEJUlUKVARZcSG8s1gY5wKNuSppQAAFq/ZOSBztzGNK6GWpGGqQMx7H+blj/J/OD2iCKPDZ3aWUhORURQ1cT7IEJH5VVwkzUfGBg4AAM2opGb1AX/ae3fR9+YTFzUJvFh60t91DyP5k8pRjrKxyr7ZRlTVIEtmWBeGhGohEETJ/V4+ET5X/w//g7y/ZbNjyC/pbp+7wqB+57Fy7vLwZuF5T+CA8rIC6IqutOQKf4XLUJXpjSeiHb2egOVbL1vRf8SozdpDMrVF8Aec9chfY7V9WHpQpbQQwqsftSspWrwXSw2YN7yMs+vryuEtyESftpF1/B7qH90TAI0/NYotd/yj7H8Iuoj7fbUGhm3z5QXc6t2SGyAN3FdeekUTxDI4v+IqYV0ToH4kBC49HB/R8xMiqO9zixUwJ8ysxLy0PD8XevsJ8rjd/s8P2iKzEbgkiJMJXyP65/ys1UW/gABOojLUDvF7GfthvfHPzFp0cGu5nCc2rkDi76K0gSoqn2jF4gDDM3/WwfF1H55ouUrpCMcb3u2wAFqG3zqnHwlfn1CC9VPKSQpC8Zxhk11+uc4FD4bRsqMmXjX//zwUeAP7EYYQFYqf0Dp86wo1gwq7ktOBfwku3p+wVk81nkV4svVVjMK3NOI5nX2ECPTDoOcAnncf2e0JCRdbjp7HqfCX/cIDIr+j8hBKDRDySSL8AWjtzPoTFnW48HPyz1NuuCiymUrqZFer7LXqhB5VWRp0aqFa+hUbiazJqUuVFHLSX9YpaDkmzML97sv9eF+9sxONtrH7t/6HAl5UZKwS/8rhosLE4geHrv0B8FGFVG3Nj1R8LEr3yFJ0fvvlEEb9qFfHcRWVbBQV7CAtzj1Ed6fWR8vWcKcIif3nXupgzp7km9OmiCvADc4T7oiEqpmyQ+hWo/bQlkFLpF4fm6gNBGlciqE9f8DodbxlpPKA65ev/ccYGTO8X+HQgfaLyyuF4wH26bP/PSErVni8pjET1hOTdAU8HTxhdXNoeVMUHxA+RiVIT/eyHsGqkwxcArsgscUmU1zS1C5Hs2EdgkIWMAs/ROUW0a+4HY2aprbK8agpr0gWC62eK5jUReACHKcRksFVQipWRCf7Y7i/Xya0viEQ2gKqty/M7tUB+qBuadMenW8MGStvB9KPHHlV1iFWgBAVL0q79BX1YQVww7PzoPgNG09Wnq+oDls5m/Rpn91xP+JR9C5XZoriav4ZlHK9cu+TOoDfG9p9LwzlM7pYwj7usAvMtH11CByMT76dxHXXAEvlVh2AMMYeUojuSAd3TyjjJgH75fvlEPV5cv9DLRUh450QVkgW0zX7qcLeQ8TqoX4pMatRU9Xq8aiMeJ+r3plQaj6QUcrsLK+lYT4x7Lg/kNDAPshGTP/xDW5/8w6jT7O4GLbTK2tXSbyPjjWMY1Rr+rD+SPbdXitIXKvg0B1/iXKUJ7XKwWu3DtV1aFdUrHyqPomS9AV9FJNf+9lFTvuv2BP2ntH3gjQ9rnRgP2Qh6J1i87+PSaIgNCGR+i6Z/CRkK4EY4GYLGY+Y6RSqvOS6DU7BMRjHgDIN7HWgdyh/MdaYvBE0lHI0JMf+Psbaa4hzP7gCNBbgXczeoNnSd653jxu7IHC3LnHcJxuIj3eVas8LLFaft3sdg9SQAzJ0o+fitVWxb8g8BTp/+1nlA+AmZfQDaq0o8WDcKQYFGh+WtA5gzoMo5zYH6+JHY9XXGcv36o6Rb2Dk2221h1txS5AkkVhqLct4R3/lyvtvDbYspLcXAC/h2xb7tiUKQy/LkiYomxyO2wG0jKrO2edGuP47jOYC8iAnlJndWY2gTjm+1ICjEzIx2dIM79SJ704CAb3OJ6xl8HA6KMFQq1xPTWe/TSzoTcx69gxV3Ht+zqlXDeMr3AP7uT2EhhhI7zKcUR0THCKXB3XGOdUIV6Pnj2SAvn/x5onQeoYGCA2pnrzZUd3Lo2JdxaoOeY0CK73Bn2vB1UKXvKXLCb8NBBiOz7y8C+efyz/MopxPXUj2ODBZgqnmnwy4LOcZCPtMgdFz1KTQhz2sPHovLyl89uj4hGh7IXOKAHcifu6aITbDzh12OvXeEIS7YQQYb95AHXkNRWIjhmOBaewlt3lFMyNpwCoVDbrPIZif54CHANRR8hygoagx+xMgRTZy58YdXdb99Y/Lftn6YLJAWfJ1iIUucurc0btdaYU04gotRJVYzTWPjuMw5Wf2Po/V3lXXoJMBTyvNMGh6Vz1PQ+ci3BTw+lCClbZuBAAuKcUuTd0Sppx6PLZZAgZn1mqC43SvKpQgBBrFyuVmQEdAblQEf3wg24SrYh0YsRWe2pL87WXfX+670YVLGZwPsqMNzY6Ln3aLS45y7elybO3+OsDMfNub78PijFWTDuqYQ0U6nRhfEUwofwkAgnHGKY9u+3hQfldiveCGMrHLIyS1PNwi7F7XsVXPilUEhdu9SDEb/ehIvK+8VE5EXf5fh5B9xp56qAMpuN0t4sFyRSnNyK6DB4arEqMVXdd0TDAo0X9nfxTN9xyjn8XVeFlk9YocAIktbZLTT22QUvpcA6qUFKeDoI+dVDBeGRK8v2sB+GqXb5DAGTO4oDcWMGmBHMmpXpfYCtOS+B9gry/sN4g0iCnWu1BPoPSDR8ncaI3fPLjx0Vxx0InCg7sAT4VCEEieNsxZlz3gK6x6NJuwsm3jlKSLpAFe8dAAxwl0A4mQ1lR18DiitJTgUWXVfgArSnkkvfJLQ5cMX6X1ggYHAG5jbeuVbXM1FoH98kjyHVPNRMNGRx/qdAAAPc3E4TGUeNCdch5GCblMlAsPeB9A8I6qFBSS+8vk72eLW1vXk2B0wsBCzr5f6To3tNuYo6C3GGwMAAAbIosE4w5pypiRgDYQee/bL1kB/YCDRNwPUWDJv3j2hZpfOGgt0Brwqhd+cq5XcYyzDylFYf9ZAeVfWuC+Ok0DFgQeKT0OgBUo9/iEnO72n/xCtWc0HluXMSq7VjlTIRO3yJ2+RO3yJ2+RO3yJ2k4W/nLWiyTlFp6WcDVKSem+axtvvl6Hjh5OR1DhQRczNJOdy5BcT3J0Ge3ZhboTWicSalSk62n/Y8rpp76Wi6D1UntabxPOupQ+mwJH5SpdAy2zOg+0uru1eiHBOyQU1pyi1UN46IGqrxAOwB+hQEUAtiqBuNxV/x3Bv/oMwbWw4byFaRYVBPUCRYTeErXv83eomli9yeLwcuvEGaBWFSKqrzE2jJJwWZeMWxkugKFpy2I2jtP2DiX9NQpT9Rq1SXfRh+YdfDAjICDLBzIN1T4D844tHxaG41ZoTy2pOFAdrOHLxj+4SSZ8AI4BEexvatDi5hshWS9MgzOG8AjK/VStQbAQqOKmjgrwohPB4Bw8cz+l77Fo+LQ3GrNCeW1JwoDtZw5eMf3B1IIonFwPeW5i9gcXMNkKyXpkGZw3gEZXuv6ZIyphFzyIkFeFEJ4PAOHjmf0vfYtHxaG41ZoTy2pOBNoja+jmm5lkQ4Ukt9b8ck6AnCFdCP8L3cUvoz93ny2U6H+mlfACOARHsb36KxCLSxrxp0YpBaa0cq+HvBndkOfdHB1aMYHetodmcwXoO3fs38KjL4w+9SHPHYTMOpCaIriOtexHgSBJz4kSAHuiIz0lF00jB5MjBQPrJO+j9wamx4lLwYiGfG+7827ILbLmC/g6mSX65abv8Jl9HVfxuLzpTRPDqgTKZX2noA/fQK5rVNJl0tmzgA5b77AAgrcjnEe/QnNwnVOnSclQ8XqGHbDjr4EuKsEOGU5UDJ/ijyILBFAOel7nJnTvB5o4cdcpw7lTCU5T5PTAhkmIG8N768P65fc8J+P7OwocII6o2RiHwfVhXuBeKRj2WqoBOscEAWdF0n4YSt1y8PlObSAFTXLHRYTk3cPJxeGKqsaDd3nGor1QtTLdSJHdQNPbFt4HkvAicqeIM2hXp2QGOoZ50ztkr7pVNLafW/Ij5lUHhfNyzxKosGbsozmc9tCsCHuht0D8etQX0i7ZYxIA9/0PZIJuHOeiXJQ2YfOCvd7NUHGRgYznlsY8FiEkDNxfgB670bdyqi3ewgzl2KHIwTBuOzFZL4abAfW5sj0dnPhqN7PfLgHFDXtOvvV5PNrl6Feb7JvC/4Ae2qtY0BRg0J8LX29RvAiA2ma1nBdPfKORHWe8PgG0x+bCJ8NxpLDDPJuTtO9U6PpAuzFGQ4+uy+jMDPLocBwSn+dBxBwl91j1e8ln8WFPh1dYcUcv8Ifdow3EDRjuyUMaVya8nrl9r+iW8dgxxMnBhn6WZAy6jccxm/FIeHx55R9LfDEaa8EKcuDplJYnf8Xd/0L7NzGconq3RrZcoSQhObzugr3DQqXcfIKXBgy7zcEkvkNWcM8QnkafutcY+Or1LpaT+BjQOZGsiOJfAPLkIDnltts4UAgmL7cc6fXiHLQ/4L+HVsMmWvRPyfNQr1E13Pjypjp+X0ecEa4jKKJooevHNMsVrKry4GK1cW9zd++nXSOI7ckDdV8YZpNmZ9JxKPJrfsr+tUbGO2/jLIozcRILLz0mbLW9+7WD6peLbXyyxg0t3Xitxmp6ciLXxuC7nyst8reo1EwxaF4dmk7Q/fTeyK1d4ddfurcfnshO2R/TZBRDBDBLMEsuhhpttqY2so9QQ6aDLavb683jAKYYD203CFiEYIzaU6vR9WroXr3pcMhrbbehOeSc8k55Doz8Bc67hrot4J8CvHWUr1wrPsjIg5t1zAACZBx3p2gwCjM1nPKpq2kwPPkub7EIYBO6bLBNkBTRoxqpUcWW9y1lVcV73GvE/7Hou/Fhk/uhoTDlqrJbl2+muHkXo4l4fyNBLLl0PijgO4+hivLhDwbgERO+VxIipRKWDWuASF020LOvC3yJghowtiI6ZQ6fmYDlI1oqaiz1YmLcdm/GQ7K3XkcqVG2mIOiJHSH00zm5+mOiKH1Uk6ud0t2GoSy7BTlq6LAPPLOZPkjoGoU29PaNeQrTHpXTTvoJVbCVeZmVYvMgkqSHGJqArFXUYczHiAm3locO3HIg6bIMmEQDifwtbsEsZ/BqXYw7sDRewx1ETiAAAkOAAAWJKmDNR3ezsH5SwGgtLkpCO5SBT5UAAFh1DpKradDQQOs2mZS6CxzQdXQ6BFZ/YLq7C8Jwy7CgqevGW12rheEkDkp+CyML3DaS5hxOmteiPUtE9yrN61k2oWRuJpMHAoJYjc+L4svA4MofTb0KTaABqMfuVJ0LXzgfAAAt7V/mdxt3c0a9t4YtfuoYKz80WqoIAtGA5+ygxbKJR+EVj7KpxcvoEtqSuGqFtHpd5P5HKe02WqXpSj/dA3Z6gqtoH7bptUGCcpP6RvCmiLHUhT/U/zrvEgYgaxkOHnYW2uWu+e1B8mhuodMU2CreDN7++vKIPcSiuWOF4YuvVOCOunzYg8VxjLejOfVkplRIhU64UuEurvp9dLouG+akgQN0ppQLAwHeD0xsNT8LXspkfudh3JiLsfuCaKqid0+Trk7uDVfv+FRuDVIYoSMFoeR6pTj780K96IcmxqbiuQvz4LtQLHIInwGbRvnsGBOmjXS+o7bw8cjz+QmWi2bzt1/q3097TydOaqdiCN6/2kv7aNBrs07AAAAFR1r3MlJVlbBmVn6D+xq6TkdDAIAACYzOrfc3ifcpBKDqVjT3tWUi0VvzTW2qMnfnLQD+ySYPUf/97n67Z6Xll7FHe5efmCaQHSs6UZSWOvBidH1D/c5nBDO3x7ou8lEk9IAX7pqb43382eK5mfWMUT1nRtXji+TCfhtfs+UjygsS4+TGGVyBNKnMuK1lq2n9uICjNGPd386AmPrjEPBxcEBmbwIJM4oeesu6/J4FPguX7wo5EviEFlD3bKt3AZNZh7cTRq5bzyfQlMMSeSslBJhrEYr5b0tRSEUOEpekH0Qyfxa78H3ibo4yzB7ulW01+p4kq5fLoIAHcbRoWucdMqRBDQGfnm3vs74xl1BGrFzOme3KLOEXxwo7xga4W3PkLk+cyyfEtOZ8ReTRHJvMcxi+F1MbRPjy9agGPpzpCiFrZEJNniYCTM0ZC87Nu4jAK0kV/b2grwN/TAxB5TZsVjJi2FpekeEgR/IOOuAQ1eK0qcpUNp/sVS+297SHupZwQBeGHX6UmcJlGWDpTqY13JPX8iieZcEh35nL5A8Pj+qNIuLTrQdRs8ao8aKlGI9MDcx7Sw/NsuQltsH/AB7fN/axWvt5cTx36noWyttTVtIaOUWbTeoYlCivEG/a99Td5I3QoP2a1W4mJkeVWSbrN3+Sjncjk2XGVVBdm7wkG+X3rA+q4HulwhuWK1taBm8+boI1oboV4we2vzkTu6kbDMkakeostbUSxY9qa9GVOqex9w2sWIbTYN3BbMiZfbg41w3nPrUK/iR+XwcC6+FMKLoz/PjjM+UM2wN166W3621v3Eoq4sMmeQaRnkis3BahUISae8aqj8d1TheDQAAIaqjKbexwYuC0wCfTSFBdb7iKBX0spML2A4JldutvVBLK+NM9JVOJ7l8Qa28/OqOlzToEeHXw03o+LIHj23ByxH2YO3ud97e/oQ9iP9vtv8zZ82am9LdRAC0J5X0DX9FY9p0DInBQhIxVSOBejsP2dOw2MUpYHGzagXdZSFkCbDwHGKEQ/6NeobzRH2lys5rtnMo5cGGDYY7t2sIHQzT8/IM9N/H0cg0FwTS3KCUcFMIWhrBdpj+GBXdJQtp+KVDzh0+UwsXkEtnSk3koN/x45JA/KDMaegxO/FeBXFjG9/mIWzazvNNw4v1fJQHX8Jtc7aifRiZp/O/wmOGDpYV2VO9MTPHzndt9jIsfQ+hVxR+1HF5dL1K6iuL72nw/VZgNECG7Rx7YUlvcowP11BTZM1H6s5y4lvSSNSbGGI9FCCHFjsD78eaoodJQmkUSLe3ct6L/zl7sP1j6BYji+cLditrgSTst/HUclCoGfjydopjq48oJtFqRWmQkU+OreiwNvUV2n94Js0K1unGCgadAf4yaG408gFa8Gdgm/hOkAF5I3hhP65b1sbM/M+Qvh94kUO7weDXhGRa41tuW30xW18kKSnSnzMx92yQqQtGxNgTMJXJLHPE78Mec+rKlo7vjRFbYXP7oem1XBrLkMdOhAKjVmzHoUhYo6/5yosp1crBznAujBEeKxEOpg9tvYmo+NzECrDZHNTbUyhhGzkuHO2A/0kUGyuQ5mfUUDJ3Mtc9tldjtlVOCX8LODXeNgng7RcSgNSfWSpGh3lD6MUFxp++42dmJ1hEhv+ue+NB1UVGqe1gGrQuq35YpsS/JNXhuW5hhFLxy1hBI2SQD4KszCW0cNyI2OlnTZlZvk+qdFZki2iwHYhN7TPSCAS0oxCAhYnuc+pGhGkU0Nhz/Bilbm4AAAAAAAAAA=;" parent="1" vertex="1">
          <mxGeometry x="-1350" y="1580.0000000000002" width="359" height="261.93" as="geometry" />
        </mxCell>
        <mxCell id="25X_njBewesHGOsOMjHS-73" style="edgeStyle=none;shape=connector;rounded=0;sketch=1;orthogonalLoop=1;jettySize=auto;html=1;exitX=1;exitY=0.5;exitDx=0;exitDy=0;entryX=0;entryY=0.5;entryDx=0;entryDy=0;labelBackgroundColor=default;strokeColor=default;fontFamily=Helvetica;fontSize=12;fontColor=default;endArrow=classic;" parent="1" source="25X_njBewesHGOsOMjHS-65" target="25X_njBewesHGOsOMjHS-71" edge="1">
          <mxGeometry relative="1" as="geometry" />
        </mxCell>
        <mxCell id="25X_njBewesHGOsOMjHS-65" value="避免额外的检查开销" style="rounded=0;whiteSpace=wrap;html=1;comic=1;fillColor=#dae8fc;strokeColor=#6c8ebf;" parent="1" vertex="1">
          <mxGeometry x="-20" y="1560" width="146.5" height="30" as="geometry" />
        </mxCell>
        <mxCell id="25X_njBewesHGOsOMjHS-72" style="edgeStyle=none;shape=connector;rounded=0;sketch=1;orthogonalLoop=1;jettySize=auto;html=1;exitX=1;exitY=0.5;exitDx=0;exitDy=0;entryX=0;entryY=0.5;entryDx=0;entryDy=0;labelBackgroundColor=default;strokeColor=default;fontFamily=Helvetica;fontSize=12;fontColor=default;endArrow=classic;" parent="1" source="25X_njBewesHGOsOMjHS-69" target="25X_njBewesHGOsOMjHS-71" edge="1">
          <mxGeometry relative="1" as="geometry" />
        </mxCell>
        <mxCell id="25X_njBewesHGOsOMjHS-69" value="不会阻塞当前写操作命令的执行" style="rounded=0;whiteSpace=wrap;html=1;comic=1;fillColor=#dae8fc;strokeColor=#6c8ebf;" parent="1" vertex="1">
          <mxGeometry x="-20" y="1656" width="146.5" height="30" as="geometry" />
        </mxCell>
        <mxCell id="25X_njBewesHGOsOMjHS-71" value="" style="shape=image;verticalLabelPosition=bottom;labelBackgroundColor=default;verticalAlign=top;aspect=fixed;imageAspect=0;image=data:image/webp,UklGRi4mAABXRUJQVlA4WAoAAAAIAAAA/wEAswIAVlA4IMQlAABQ3QCdASoAArQCPpFGnUwlo6MiIZNZyLASCWdu/ELZjuf/gQ57gh8/0W7ajzAecX/xP2Z92/9u9MzqRfRP6Vn/I7//0t/Uj+jfkf4G/4j+7fs759/i/y/9q/tf7B/1D2fMW/Wt/fehX8h+xP3n+1/uD60f6H8rvMv48/1XqBfkX8l/vf5q/3b1S/7Tt0NZ/bX1BfXT6P/pf8F/lP/B/pfh69z/x35ce5/17/wn2pfYB/Lf6Z/q/7h+SPtTeD79+/5HsA/zL+1f97/Af5r9zPpq/o//F/kv9F+4Xtx/Qf8X/3/8v/qfkM/mX9r/6f+R/Kr53f//7hv3T///ur/uoLZsLKqv7GG978ot8sxxIpkWXQ8fcGw8yXuDOA1PK0Y4DwCEtEWgVyLor/KmhSbCyqr+yDyShUu+cGufF+Ic1EJ8RSq8kb34xxWyIilsgpKPnIOI5lEcORVV/ZB5JQqXfOC++rSCfRNISBgur54WVVf2QeSUKl3zgrQ6M1n1PmozZ2I73NUu+cORVV/ZB5JQqPckfq1R1/VQKxwsqq/sg8koVLvnDj1dcwuT4Tzx/5zFVX9kHklCpd84cipgLhOZDWn/OYqq/sg8koVLvnDkVMBABmiUJbo6xiscLKqv7IPJKFS75w49abxBD8IwLkDyZKm3klCpd84ciqr+yDxprK6/Y+R61l2ORVV/ZB5JQqXfOG6MBogoI/XVrdzmKqv7IPJKFS75w5FTASyJr5+qFsAySa48LKqv7IPJKFS75pqkySj27GXtq9TVETvPCyqr+yDyShUu+cFTgSVOO5YN1pzNd3OpnCi5A+H6vIQ1KcynFfk2FlVX9kHklCpd80ZlE3GaevOmvDyYCPb1IEShUu+cORVV/ZB4vgxCL4IubjvPCvLd4TSzjwsqq/sg8koUEJsvIkj99uN7Y2g0rMbgDI5Bwg2kmmUKMWV8vA0wyOKIrAnZGwSq11uIdLtbm+44dcyfP1y5V6/BrQKl3zhyKquJPFyAWYND2LJjfpFMoRhf+XySpg290egYdzN4p4eOiAsG+UVaeLdsmTeRy8BekICbhnjCb2WKOaKABWoJQZ/Cx4K16tvh6XcpUu+cORVV/t9Weg0XAyEdjGy+SR4vYE5OEMe1jFOjKTBjiI4w06p2gxA7d8l657dABFCZwQbK7xIzVq/MnFpt/Ppi5GLvEjS2m2vGQkIEcihEq+sk159keW2BFCZu+GLLrB2OXbvpipUaofIvkN/LJD4UH3MEU54oWZLMlmSlPX/ifDbzsvymB6k0P05iH4C8sm6uitYylTHebI+I+Uj0ivhyumiBbUx73ucEIJnyVnYql/qJ7sDbhWKt/tA4ciW5Gp4vr5w1j7ySgeztJCFaAQDGqqkBrRceFbadm897Qg8bVPqng69mxxyQIlzxW+bXVVRwjY3RAqiv9zEmws9cbzwcGn3mLF02nIPu04PfpxONNE5FVXPtSKmCPxamB9LdscFJ9F7OpO8RZ72rW81cHDdFwYqcqpzD8lLtx/st9qPSaNGSwh40u8f6PcwRvAEf2BsVDvmdx2pwXJY2mYeOaXO7XHntNW51BnuVs6+drMnrkjCaD0pzKhqvpatXoNmixO3Xnvy1TXa2RA1b/oP+o4MGx4so6eQRxQ0+NM9uY9hXWeslO/9ZFp2RmKFlPrM4DxI4x/K+D90g6PEzY8yZwF/2FP2i9fA6EM20pq8AshvK5FtDH5HEyi/T8AQGVPUVHubEOTu6XTNDoA+4g2garnws35Mx5ohvcHR9ioPWf3a55j2DxArlqYIsw5FTBHsK1ucvRVqY2r6q4acH40oOu3V8TNjzJnJq/JdHhgMqv7uvq+ow8VmrVlqf1xKB7PsL4B6q8Ser0TbSJUBsrvD8jS1Dj9v3KO3fJrKgdFCJwyDyPsdUkobePc4+jtNtkmcEGyu7N/IjAihM4INldissQu1DELNld4kaWt9CA/1KEVVf3unGUfPY+T2UrUBmdbkFOK4FznIEShUvGlrOoissIxKdpnfzre6iKqv7IPJKFS75wYBeKMN5JNd0XpSWiNDooQclPUMd+aWvSmZV54WVVf2QeSUKl3B2SJpeNAODjxpyl6JIV9AVajx1KKl3zhyKqv7IExcdaGBlzT2w7yOyKS/iR/JMnshcHWVVf2QeSUKl3L4k4tEgfkBvD8HMbjBH6RGtfuySIUe31aR/r+yDyShUu+cOPVPpLNAxGJhcxnlOMwC/NfAoA+PrPzhyKqv7IPJKE/cJycxe9B09B4EmlsTwFIAgDF9dHiMF+rHOPCyqr+yDyShQb9QVUcYwTj232QjmRlOANh+qHf/K3l4BAWVVf2QeSUKl3ziBz5nI072JEdBnwlEL8ihwkgAA/v+boEw3D5/ueVDgnw8dI8/xrIzvTz+Nx6QvM7yRM0f69bk7WZtlyG07NzJwMlvgCkUtvt9Opq+BhTQE7w1meuIXnfnLDWRH84COKbeAEMB/z65Vb2Cm+ePBWSaXwp48g+FdIcK75eeCN9yzi9imENEzHj7Kh2R3i7IyK05lz2SDw3aKPp3wsr4E+dQUGyVr889NVImGRxSkZq7B+uiByul0zJcq15x7q34k0dPFqvPFbXXxYV07ElZBDaejaQRlbjhDIIZgTIx2LOyRkfQc33/NmEX1o/I7ZTyf2NDghX6HjRaFDFAOvfrOp1AqLe+S8wa2zlx7UARtcbemka3g+urJDjKoj/saSKK6OgdoMsQTo5dIwipIoL/MDOi+h9aF18apX+SBLBmhlTlWJQqqo7PSD5EyHFmYyPBfnJ7JSzRdzrflQ43tHBKu6OqzBRCHn3U0vOznpO21utPjZsPSBT3qWhN966KwU4wo3/xPFXJL4hSeFU49am6Bd1IW4i2j/ZqVfFve/UWslSHihxXce1jOWT2uxVzkASltk8NvhogARcrK8+L6On/8HcEqDUv5MHCZ/sRRjgdwngDik918HlMWKMz81IC5xwXQEyA9y83VJppAY7EoQT1ZXJ4OMw4mK2R3b+pRzPduTbojEBoqMV8QBNH3AJCvKR78UiJ7oVNRlvRQO/IXH8BCuyao7hBNIXmPeAYXvlXXwTixqgMR9+JFuciY+wFUKvX8nVksO9DSu2Rn9FGQukzajMwSPgGiH9HtyyfeTkwEGmIgohzVElgPsrzhZPUqydYvsJtd188zehFAWuOGeqJtU6mnXNZUFIQVDzx6O3opa3d7ug9dAAGx6e5iMZT9sHHMPbT5n3rxeToMr+qJ27gXRjzvzxdQIt6TJMG2BSiTJl4JNks44aU2LkoAjZbRWQwPYEAC8KbSQt8qMXL4fBe1h+8rYsAkBlBhTnNjOnhubhIY0LnjFTWOATcwKW1NIMS+yydr1y3WWBiKxmzWrZ+J/h8TiBFMtMfcpcUsaKmVs6p6019X4b2DBm1Njjn2oP7ywvWlxLEm+J6d+gAAiUWANGFaTJFdCQs7fJuvpYBS43NQDkeT4khAwgwIoOGNwYJyH+V+FQM2Xc+pPA8JHxmIqJVlsE0MtVKWwJxiYNs1KAEN95lP84mKYnYKfqgB6dIIuWLF0PgycVoozki/G5WhA77QSS8149fa87Pd0xwo2NKVn28xKxTkRfeziURkZx5iMQABPhBb4TMB/hqhZak8aRTlat3Spkiq5JDncj/aHYVBo+khuvtv2JDcCkA7W+i88xeKgJ2ZZY3pgChH8cwaEW9IVBJ1NJEZhqv4dg5fNAVsyNNCdXnD88hBQtz3emCCxOiQeNRYgDKKyhEb7CZEoABner2m4vPPezrTG8rr+EoMVwXSShN8nPL8s1Ss+naqR8cSPI9buPirArQjPauCrlKJ9hVMPUJ0ppwAOZMbZflECPQfOT04/iO+fzmoeygxox8OAFCOjePgae0FADJ8vBzkcpNCfEUH+CjfmEJyUG97vLJkmV5aymLDRC+zou0hFJJ69BdzbaZkPgAXsPAWbXUkZ72gn9MgSRNr/gkk/LcL5ypUu+0/u+kp8QZOL1BfOgGWiPrYe9fn34K/ZYKAHm9nbMfBoqxlsigxunKCBYADeu+zz5AktHGb5p7VLBh488jsqdaqn5nGt71qWVNi3+Die4qXmvdwktl518xBfMiCAwEnvNBGoR+sPsnt2lrqQUwnL0wq1o4SdQaHlpuKgCkwsOANfrB3QBEdcca/pUECcDiMdcWn3fwSmILtEn1rlS0rRD50OaEW5p7Ycwb0hU/hAFbRx77SRBtRX8CZkjHwZW9xk7TDYZvjtWwFI5ZIhLAipNJpYDnpcZBD/X883BdrwABnUuzs0OxxDhqdaQfJpKecIPirUuHDUmuFeRu2RzVMphtQXOmbqM4T65kh5i1QQSEaTpMbLH4MYtKSwkaV/mGQW8hqpF2IzyHoJ3vZCtVUPugmET3kOIft/3oTzgngUZCRg4arwBnEN+aXXFIFXa1vfNxUotG3Lx0gRre4Z8SYyCj5pMGnkM5Qc7OvOlfRYYccJAACLc+8e+UzjtDFSTm/H90+g+G6SdScXRAisz3m6zfWVEVDJlqxCUAW50T2GugDXMs6qVwq6WdEYQiM1N4K+GhhuTAfnZXJXEFlA1AL6lXc+lOHegelbAIBd8XFKSNDbm3yhtVC+WAbsiWMaul6QLUq7x5nHdVNcyMZLmWUwpCbyW9LZzO2AH2DIhZGPTDCbIXoNI71byjacJa4HNC8Gn9PAEDIhaOCbV1e8f20txaTIsp8okGqOkv6cwRuu9ciGztHNCobJgfG3yYnYm71+Duj53YKacGLehmJjbzXt0xFYwv2I0YvwIpJUek26c+f2P4CRjSzs5QQ5miSafon0m0TdmzF5gEf/Mg5sBVxu4WgeH6h+wG3D7gMPMDs9r63M8iuNUVdrsDjpgNCOkhJ92USrWcrTCBuFG8TnPxr7NsL0QlizkhoqDGsAZ7mpi23Eif92/8aQj1ABwnl4E0B/Itq8Uq4UYI5VqctTB9/VeY3Xa5AfUe3qy/reluXLWRvSDhbrSs1DvFA5DXz6CfOXuZiOeOW+wwq6kv6FniDxAwkuKwGXfNjcXsCHHIxMqejPXMbrq0aWRtxOKIUlAzdayEnaP6Zo+P+VUWddctWuyFW9POQOCTQj80Im31rsxUXiK5YcZ2iAasagk4YlVevnowaLV665EUndsqCIw+EU+3GF8fggcWe7zcE9UzpfI5JCvD2l+30395lqAQwPK0aePEC681/invvZ6UkdQ/FZCzO+3HxyjVXJnB8+CuU1W6cR5RJHMY+zG+V/prKk8keLMJ7LfqZE2EqAzzZ1weQCKtdC9froDSmXdXTx3AfjjqaRzdlufXscqKXIarbqgfXjyJjQ2EzKCOLq9ltRZTLlxMPdQKRXVed0d8hEqs+wfqWBd0q7vNKNgbZN1zDCvxTivhbdNz4+mUVhT+2cJ0erb+cgzwiFTW7rYjmnpt7H1r08F92KWqARRq4glLOYhmr9YuX4YuHSr6dFnjlMzsN3b//VA4/cuul+XqyOmW3wIV7IT2lvE673Jrq8E/hk1YFi6kAEKV2qvqXfPw4L1Lrxc1cExiAzEIuHxam25x1VME1xTjGAK4COhbs5s8erzOcFKuwz3m1FVoyLRJW46G4CG9tvKFlwhugMrtE3X6zc3hOeTklQalOvIWjEsW5BnyFzQ5lwHH2i9pheofYhqeCpommQ4W2KwmtoLUa/HBBs/IHmESAvWH/ALbuyklCIqIGiOKyX33d1c+utWLXlokX6lJyHH+hCgKl4iwPzq2GZxT/HwIiF/j5sAdzqX+V/2c0jo6L1xeNxvn5+fewmVp95E0GISjw3alobpWccTK4rIwqBCAKbiKvWoJ4NCk06asN2CDzCIhuTfqEdqrjp3Ov2QQoaR5YPDoNgrk/G6emEAKIYpvy1QgIx+ZReuNtPi6dpOofj8QxBxJc2A+J1w4mg5wARd9CuI33LF/JeND8ShXuDegHlCRJBrGyF5eLb5mBVWItb9o4LiJJKKLasrVnGcDRSw9tPS3H4Nr7qrEBBHYyNBSzjD8APjjaGp3E4LfFzekzkQ+Oyc4mifnJ/tk/ypkp1887KXM+9ChPHpcza8Br4AlEmaIp8M7H/LiUjcBcUYBSabKT9MI8ayfkPMB3/AWKJ/g8DCaHj1DXnxcUmty8unQJIL1VykdAjyxCS4ccv0M7pClnZhKBpnNDAENZ6dY/FjuqZej90roChfwWHeZtGLyDeZNbJdu0daIfFfWo0i8ZOx95I6vvNchQqztGGF7SeW3k9CqcYOC0zbhNq9Q79/232GUfc98t5IFkz/l9qVIifEsjtFRwFq5Z97Skr2bnhV21SIFtQlcstFIgOR6xFsdVafsvi7G1qe/FZ0D38by85DPSoCDtgthjLxbSQZ5AibV7NJ1nfVhF/38CMcpE3mNLP9N5ZKjPkiAaDurWtUXewMw7xOWvGzg8qZUC+gmpkxV4rI/e0GdlvLk1zJUI8L31m+HNK6HpzVMphyVPuXkjHC6WpnuEVt/H+cKVwURwSdGXSTpPxrcOi36MOxSTOZ2wN5cwEPg/8G0FGSpwsc/LFmg5MT0UD/BTvesRTewNvDAXiXxHUyXLmR7lBK3Aa4geAXN8qv8hM8hdbcoKWgnYE5zyBSnanxA4zKoHWAmIvJwzQx6zw8z3Vc1ZtpUo3GY8J5ogqzc7yEt6HXhUjtYHnjep4wuFO2f4J/DMC2FTRQr87je0Zy9m1JujENXHE0/o+cCEVo2FII2e6wTXquXitXKRiOy0HONcsca5WlWwTXzxST+CJt5IwxZbjTMy+8m1mI8sM6bZ3SVQyuk1utSvzwX9vk7OIF9ZrdfSE3ye29b5PPH9OJ+ayDSlth4DK2VnhsjyZ4YxebDRVTWHn5V7aaRlNkPD7JUMdYtKNdJiTiaq0gRoUun707SrVcvUqodVvafq5uPOxgbLK3MuhEtf29q1Nh8avyQSwFWN6Y3oxzcguPhVefvva46irHpBPUcHw4deQZVlqU5Y1ZnnYo0HxrJzknzwOcGw44ZBJTBFg/EfB+KXcVym1I3+67vD2XCCSh8xaRMp3hXq5SlWQSqZYsts6AUQ1RgcUyyM1yEBw/pgh1t5gEgDbIOle0qZrMIYTktWVCxX5XDltFrO91zch8FaZZUcOV+SdrusV/+jB6ELkIfWxvBhv3un78QuxkoVKsEIlgytECcNy08pmVJAVYShm/m5cDOhBJnLg8o5pFYBydIqrY+lgAgtvo3FrZUG1VrhdOYdn+WhqtmNAQa3RxE8mD4yYyQy3aRb+2kwLpsKl17r7IwGp6027rehgi4OEe0GoWrZyZsU9Xxm1r8OCjjRwkAUkBYyvF2kH4gTub1oIdPaR8fN79OXB1UErWrVMIBB87azw370vLkiX505VRb5URep8HJJOGoLogLcMc2pnha7UDORcmsyAmxKW/CCjrwZb+uqA/mtcNcR5ekxkXwbw9nGJkrxiPFxBFt4X7enQ/JdiCi/2Lz5yJKXXN0hbF56Zt5O6ZMfxW08X5vnq6Rd9yT/ddeBF/0/yQ8nRdUr/HNkzXJ1/EAX5ieIrWQcoN+qhs6QNx9nk/FdweKbrcd8yO9E2gkjESfW57UMsGJ5R14Ylph1JWzvGYAj8UaAIF1W6e6Pf/vp6aOIPMRwJTqDhC5qDaOxFV60ZSHNAg4gfZk9B29nia+yLzTWqExPW6MyuTY17B1rF9fJHDTOEEpp2IoX/afABnIGiXVlKAjV6Bu7TO5HmLTG6C2Z7zWETm8y0o0pnv4rRvPr6okwun6v+LQAxhEBXwt9d9Rb9motRFG7YT2FL9QllKASBOeJBd1f3NAngp2vC+6WC0mE3BS0pfchf9l3ZkOhsYQl7wv0TLVLg/RLg8CrcWZjJ98QgbxJCo7oM4ynK2unX3ae/8WSTABEr06QU0PJg9VufdU9U+yaK3VioH9isdvWZ4Mn/IsI9rsgNh+0vJ2PKk/x6GxtRscih8+prTDAJuas14Sw6/yE/rTVGkZKP3o3b9pL7/mVIPMEG7ia5nyvd3YFx5U95de/GbWO0KHWupS+b3WEqqIYJtHewDkS4ONDqnzwPBTfnOE7+h5FaVyzggpAQfZWyP3JNqmabl4/hXVRi/6/AJ/lC44qSJmx33jB5tWqMTHutBZ9xtd0GV0FURhxOSHtfIyQ9Ym2zQcbksLm4/J3eBtA+wqovol7YAsFbNaS1phOcfQg2FbM7qt7bz7Wr0MYgHYDf5T4Yq4zDx6DffIcEi8D+QVx/iJr4XfFsGu7I7Yh1t9WVpcAAPXoUaXBctH/fZ4SfU2W1pgbbMdA6ommXI3j5jOZmcHxZ1hS+t29a8FNiqSL6yr3UYZuteG6C5+4uZZf4h98P59h0+umjVLc+Owd7OqEq3Obk4pv8ViLtvo57a/JeWKiIqgJMgK6ZOFgeS7r+v/rVpmiweVZCV1jDzwPePaNS6Mn/k7SHAGUTRRSU3q1EQMnOyIWEQ9Z1da15Iz5u6Bny22Mpo0+oQ7Mtp7Y62LSi2DOdfbnP2jMMnKT0PhaKO5l9bZLXIKpC38KcuMgKSEkCp3NAz4isnSZWDPeMdTa8uu97/nBD0SwzoPO6pOWbItMFabO/n8AaQC/pM2geBq8S/mwTqtQbXAoLljRI2FyLwenQ5fBlR4bSrjMPexUmW2Ut10H+xJoqNsR9GJO2yAQH7/zLyFuRhTzW5o4EgC0d18xTXEi4g8i0iSsxnd4XH5jAvbnjTBgvx83xNYBBkfz6OwlZLECFv+nKoj31EQPvupdPwUEUDyfw1EQIkxrFMs3l42FgDN4tnDvcK5vdBBTQDtkxnf/Hmx9XHALuXoy+HbVaEaQWQtVTxMqJZHFKxvjupToKj5vmTuxY6ksdImBeoOPP675PakgVaS2MFkC9iVHV1O9B0Jr5mHeLLwdpLcI0YV5DaVzDH7eovp+QHRirWRSbCseDWpO/STclyPcKxOben0CDudMST/Xljkbh4xnGRugJq/I6TF1JpESMDAiRXif6UaKO+JkV+/qotyUibAfz15XFo+dHtZbr0KOM2rT8hbCOP43WddKGYsS4I27/SMVYFE291afyfTLNR5owleJmfHSRTctF6axEyWCSdgOSNr088AxzFFNnR/ma9oux1Q0cgU+Vkiv08pm1KILVcBy/PgSfL97epMNGkNISaac8BteGoqXu4xeqYEC3Acd1Tix+cVxCOPUIlTIHIkt6JqYCBplIYlM0wDoEI76PoZA/XPFDcOaZa5lTx4rysfUlUEFKegvYxwFu4DoZ51zxyKw6KC9PugdpwQy8aYnzHlALblUfrURmGJDTjwmvbAZLIJSRXfyaTGerev4xL5p+LHw7c2yGPUWFcTRvCgfHqGbE7dXMsTkDdJUhiyglzOOEuuiE5wU2DfvF3OpmIoy4th3oaMKskVgqTOcOkNa2UfzOA2zg6tiXh3MhAP225oPmvaUuhw9nJyWPpG0RR3+9VYPECZujsf9utD3nRwfpqucOJ38JZuPTiN4lHuJXq48w1cqMdBxPzAhv6X4PrLzO/Vhb/N5H5MaCYs8sm6q1TaFiYZ7o7Y6ycoq/IpnOSSolz0HsG5q5/4QeMHxHohi3g9r2xXlM6WUw8s7e4WTydTLJmZBoNhzftUaPvV7NGe8G3EIExRP3ttKn3wnM6/R8/G89ALS/Lh44lhuKFanc2IcAuuZ77YcWV6jd+VbOopv7PkMWmgN/fiCn50/vQMdSyTkJieOMzZ/pAzFL9lh13M5+pZSogWqfh3cj5IhtIksk/1mMVkY5ylzBdcD+my99oKn7rbgj7G/B03KE6kewsb3u57+6qFY+LuRN0snw6l4biCttcLbMjSRE/i9dasMiGeLbSHbS9M+WcNuzN4CXzcyQPgu1uJVgP3G/YHJB91EqckzmOEfFidS0Cda6mRtHm2u9HUAVC2QSUssQKNi9d+vbMa6rxYbjsyo6pexhHm0AJtwoF+reayzU2HkiTJFLrfgpzCcNLivVQRa9gCVPK126VZNeyQYsRalCJ0sZmPaCXufmeukp/l5Hcm7ak8c0kh/PfO2XFQnNH4Bfw1UervWXKAqOJ1ur7WpVcwIlWHe5mnGru8N0K57rakhlLfA5Sf2dbRGaSeZPyQAGKguUPvcY5cVTKs1UdzooLlhdRKEOhe4qe8MNo4Z7bNARpmOH9pmtC3E7pi8BzjozYPoPPnvKwboqurw1gFX3d0z4wFv+xIgU7DgXrCZt5vSZ+upeiS+T80PqwiG/JLC35ncR9lv96CoeJbshoaax5NWnEPrgvTOoFA6kQ/ZWmTWauqvax0JFg7WgqxNumAQ+c+KiGpEod/E4NPKDuwx+lxdGf2pbOZwG10pY9M7b6aYZDfFIhr1OktA8rcfuQxpmGIm+2bIr2TN6boMKSvvEdqq0ucM2+xUexARm7l30qjk3G//FxiQ3XKrfNPe7aCBOli+Y9iBCx35S54RWWeMWvZOOL5hDzYSZIvOLXF02SdDgX8LKl6AZH/Tpc7MDNd7ZGiyuboYTxOCkBuNO/5ePZHb1g9X/EVCzWzXzOMaeEF9I1S5OwfkfNmb3Db7QijWb6kBDym/zOnqZxn7Gz1SxvVsqtdQuT8RTAdGwNyjwfFGrLu0bL+Sv4d9LWd7n+ZcuiHjCITa9b66Ddjk7UDzNyI3A5d37Pj4E15dupaxhfNPOTOLHhKnoBTa/3ws6aBftrb5RVNFOgr8tSNKJA4Oojc6wGiVWnM0TtRzif5RVSUelvdEmFlSLcJAG4gAECe6dNwzeh/TZFX+6FMV++yzeg5hlAd4b/i0cSe7UnPUqmQ1yL/LB7HiNdaLaFKyQ2GDyZF97e8Yf5TBw+LQBXBRxlJs7kBw8/JB3s2Omi9vgaxrbTtTnO9qGOHq/o546MEIA0MUr76H4fS5YWj7/1xvmsVFrX8QMNxr3gs3H52YA6NxxeDN3z4zRjtC4+OruaMQvLJYpnfBz++DkDJRMv0yR/m5QnzGDkNYiU7r6tRd0bLhnBjktK1MhlzLttGAuY7Zox2k+81XrsOITHE5hqHSfsfDQWPhoHNwo6AkL1yFfp/dB1QZFfp/dCNRIWupcqZbDbpPaH5H6csGUP3qsZmNc+sVJZyOSZcNZ1eOpVf0jvLiigE9DjBCdgZYkC4Y+Qr9P7oOqDIr7u5AAAvcxqf1Pkk39rCpN6eYiBVqzx0gbXYNyi1s5cMUoI9WGcpUMnSC80kAk8ISnEcdsTuSmzy0RpuarmieSgAUkcsATwzTpKEgKWYUMoTFH2MWJuOM9yFv8OcaHckiScrcGwSOsvFN/qGiLbupYAOptnH9NVX/6L4jsVEVQfo6xAMfpafd++KrHTNWMgua84zmFa48cwq08xbuy8yd2iQQ9fN1crbjaN6kU3jgAAMWSHuJvzqDltvbnBM6KZhn71YEROv8QPS3v3dGj3FGn0Sv9+rA5NgDneyDLyo9jZb6Oi/XjPY1PlkHgAtm6vbysfo+wHaUUhFuL4SpG41TylRoAcfLy6meIImExXvdpSc7W+wPBoqlpUdurcJJo93MQ1TogFOVp1OtYShJuAAqMQ/XCheaBVh58aRIe2E6xZgEGN/yQ+7CMECiqZ7KTfDiIH26RlXNctB0i8ntDlZbhRgw+74ggthayqHBTzkbWnya8HZGvV/3QtBtpgH6MbpqruvtuHVOY/N/FTVsF8lGDzfyULbZb1+gkKlpdyIMN2tlVDmUzrWyOp72ODBQiaNrfp59uuYisifKTJOeSTpzjFo9XikWNfWwBqabEMSevNhtoi38tjndezhkJvbIABwamsS4KKx85fJwjN2EBfcmv5qF9jDSHy4DvN0Nyyu6yX6xVOiersEUOkJ3BBGxPVLU9j4BUd5FpDINky/gyU5lkxEazbYymXjGusKM9rXidpGoiMW7SuwkssA5fepnGed3hgz2XV++kdnh+XXaky7tCQRQqvNJxxEC6SGUYuleWEBhdhhyLnKBLrekw9ek8AjiZqkMWNr2cV0SeJ1zLg0dI4RnzFcxGQfmCpo/L4EaGUhDpAAD6xNaSHb1OSF5wGWbE6oIGaiY/MgBsWTBqz7tIwg/IUNKTkdB7dDoVYfEMefQUwE3ht4RFitSQWmPUMfN6NUf171QG5M7HNNkQ648DxvLJATO9cbd2U+h6W14IF3hd1hHQiUbhb/dem/1JjcKlfIe8OAqAyemWos2k/Po9xHeB0oeOPJdxtduoC6mMiXUmCIoIXw6YM6BVWwoOrrvjQvPnI61P0gvzvEAACO0Lastt2lW58F8GTHNayPoLUm1ytF/19sy0L9Jmi/24uCBHHV/mb39+WLGC0+u61Lo2A/DAfyZ06q98/p+01ogw2nKDwNZruothEDQzyQYuP8iS8kezbmxSLoMXSbYsy/aPrYb13LH4uMPhDqmyiHYdX/+WSqD0ZS5pZ/as9mgDGqgEnxA55HUOIN3oWEka/0oit59ZWmwmZ9HhD+ZQ93/yjTJnQGHrYbvNIoNB4Xu7mDIsIuYyWpEbn4KjOQTsl6eSkEevLkBh2NX42PoPLoyr7tSAnBH5UrYwYAX+Cc6CQU+/zAg9838mrv55h7PDaQFK+qo4FQ3gIi1hs5VypPuc6iGWJZmtGuNQNYDonjnj09GHUIoq/KXGv0pVQGLNAh0M59ywLkSQWG5qOBQX8u+E0hhXWO5YQPPVnz9BEN6f720dHAf89M6mM6rh9YHQNdxDmUzrWyOp72ODBQkLb2RQcBmJDhXb0Bdqe+0q5DeVd0AOuMF7tixholYLApn8npeNxQ1ABM1r/mi2t/By2yo4XAVv3f7XwLeoGzYjEkil0KqTyVbOUSE3uDbrtQJMcOOynnjcgYB3osntg78vQcy2Qxe1sUJFR+FH+Opy9DeXd/53AAAAEVYSUZEAAAATU0AKgAAAAgAAYdpAAQAAAABAAAAGgAAAAAAA6ABAAMAAAABAAEAAKACAAQAAAABAAACAKADAAQAAAABAAACtAAAAAA=;" parent="1" vertex="1">
          <mxGeometry x="160" y="1456" width="207.61" height="280.6" as="geometry" />
        </mxCell>
        <mxCell id="25X_njBewesHGOsOMjHS-74" value="" style="shape=image;verticalLabelPosition=bottom;labelBackgroundColor=default;verticalAlign=top;aspect=fixed;imageAspect=0;image=data:image/webp,UklGRhxYAABXRUJQVlA4WAoAAAAIAAAAWAMAaQEAVlA4ILJXAADwUAGdASpZA2oBPpFEnEulo6Kho/U5oLASCWlu/B+8EWbEl7xCCH9SzDcn2Plz/P+Dv0v/8nd488Fuz/rk/yXpw/Wq/9GTLeLv6D+KH41eYn9h/sf6zecf4p8r/VP7d+x/9i/+3+U+KP/W8RXPP+v/xnqb/I/rF9q/sf+a/2X9t+aH69/ev65+zP+F9FfhX/L/mF/b/kF/IP45/bf7l+439g9T3+0/yn7jeG3r3+j/yHqC+rPzH/F/3f/F/83/I+hX+3f2b90f3/+S/zr+sf6T+//4n/wf2j7AP5H/M/85/e/3f/yv///+P3V/j//F4zP2n/Xf+X++fAD/Jf67/1f8b/rv3C+ln+T/6v+e/2H7a+2X83/xv/Y/y3+y/ar7C/5h/Y/+X/ivyp+cj//+5H9zv//7pv7l////1DSj4jZ6sZmW7ShryvIDFko7Mt2lDXluJZGuplu0oa8tyg/VjsyvonBvIwHS1YzMt2lDXluUH6pLKUygMs1ZFbLB8tj5YDndfStWRWyo5K2X1CpvhPyR8k8ipEDtO5NexZ2GjWKXbIiKLAc9OR752weQO8quJiEqZ9Dj6zLdOYvjT8LKWvWLAO0klqO+y2l9pK+2p3oBFufM3gqbUGtJCIQLY0ez0pwel2CmSQFD57xUmGrTxRzCJCLX8DlM86v6lR2a1IrUG4vivV5Eg2SwwClnrpKOqtnDpqJ/RVw5S5XRiM196hmY8VvHiK+yBVzpi+Dc80tGomZVjzVHUaUhiubkHROnMO+ss/6KGIl5fV+EJQiU+44ZNJB9W0xmz0pf36P0WJz7XyBTsnl9VHZrUitT0r0GiMPTM1jAzgp7acL21whRAMRsKbT8lWfySDetGteZKSxOb4T/wSROb4T8kfJKP3oKv0SiGfsFLy7NbmpZVn0fnxD6ph6YY6uqagdLf4Iqs+j8+IfVMPTFSF16jrZ9XB0aDuzW5tEky4HvAz6Pz4h9Uw9MVIXXqQpn3VDA7WP/lrKZcD3gZ9H58Q+qYemKkLr1IUz/XbRVJ/xOpw2SEJzfCgAVc3wn5AG0No64cQBm9omMT34II4ce2td9QkDJcVu0Ims1k4y9PlOGNkH5UzsOzEjSayJslC23U3xQqxdZPPA6dApNOeg1ii70+FGpIDPWJ7n0y+weIgE3BSOp+IRYlaslZV7OctMWNg+6QnG5Eq4fcrzKZBEBCAi/QIaI85qauuHHL4RYJNa5B3NW4S1OdisM42eemD152CxtKEYoSBpgJCK/wpWpM5Ddzl86Bq9NsHyDyKWSCncgT6LaNU0KCIiEKX+V9GdokDqDhFMgtNhK4G1XQ6Hcwn8tpXoGv22vt7nDBtlfDeDotQo/4Svw7dpF5/G02+aJNoGIBm6AqY/UfFgiOOmKVs9H53QsKLIqax1GJEElf8z9Ff4T+2M1xM8IPf/1DwzN0GaII/1e8/jH9o+w9g6SHJLwBDKoCZDxj8FROKlkkOVpF4V998Hrb4WqikvpWdDiRu0fYOZGFCxZ4Fpfg1Gl44PMoSrz1ajBi+n0a3MM9pMWofASl0AbSQvfxcC9zeCptweNvSmOt8i+B7g0ozu/44WOJhDMbTghzKeEosGNey9rmBdsnzCeONVSekj5D7Z1jqyY2WKhZ3010eDoN/nehAithl16eb0C9a6BlOLYBpReRm1i/TF60wOaAehVj23uiWO6F4LnJF1UdhGaxk15E1BDuDTR79LfjxD6bf9VKNEIzWdR5Rd1vOh34CRDpvxEvBLa1mouiLCLPWM8FyzMkTX/ZNymqMTe0b8SbS9+5naIzy8k1NwcpoP5+Un+yl02a/rSz2rjTi0/GmLddEXPD0mHczS4QmiMSSuSp5QxJdBW/aDIt63A+hzpXzyKMIQIOCt7zwsZfRR07RAErbmywXorCFS1vK6ik1yT13AA/eUM4q+oMlbrPrq7RMN7x9v+litlRyVf+E/Jh5IfuofeBb3O6Dw7AFiJBNM8HMt4g9zugPCgONcuteDqFhQpQLmFCfYkP9Vp0C5hQpN9sDWv95vTf0ZbFhhcR/ZQdFKBA1aJfCDVogQwucF3wn5I+pVic3wn+YQElic3wn9M26WrkLfJ0N+GSjTX+cHohRvmTome1Owj7ImlzAV6QISqa6gGooEqbT20sv93xBHQuLxG521+8rI3oIk9AsOgLw93BEyP8U5zhg6SOvJDgZ17XGdfe1DneXxBsYaIODgax+YO8NxjVLRsZ34rqYFWNv7swVdn40XLyIoM01ScbUE9xb/wgERTxNoXYXJQSO2a3ctHuNmqOoRwtdI0ojRMgZtFcf/8a5zz0TR/ODeUYcyDk9RVwv8DXg2ygZ0jV+XqmXYg5amHFfULUtU/1a8rsOvIVAbXdYjgqiemuonlRBJobcTxWNwA/0yMFpZSuuvArVoexFN4ZFMjS4tDK73nrLxe/qLQlKZkZsGS+qa2X0ddeLoQIkIOyXSHg16kogLiZBEp9M1EaiMEwlohnfshIZp0Op/uDsNlFVOPatb5LH7mr7IfMUGAwlSrEFaYpFw14AvG4Swm3hez6S17nIilqSqzw5WrsqXUTae6f9xMslYwmzG9vsbRZPO6qFG8fjomsnq1hpemTm/elAnQCTaGB0X0L5QIqfRXfDN8iOevb6wWuDtXdNiW7IAAp+GwAwEq2SsJnPMHHXDseTA/XXEWcatpP6fEeaEYNWJuL1Yxw7PeCb+if4W9Zw8n15MFClAt3gPmH8LgEgH4BT1MVXUWpLm5Kfqv079WIP94tEkj0v1iog/7RD7E2GCh/ZRVWxlHVWckAaNuRYBP8kfIP/DWqSPbJBSgPk4PDZ4Rk0ThpIjTn8iSQRJy9pMuB7H+q3JXVDB1euWIKPmdKarshy9m5E6Wzp6s4L2nM+mht+fhceElb0GqmIVmLiPRZLGYqW4XsWcCdmDrLCWAkeFiGROgVEstuR4WhCOuBxxhxOK2CI44g9IuCeJkGPY9usgI7wB/km0sp4hehl/FLK2GczQOFW3FNSR9aFCLMtKB+9iArxtfmux3D8YAHivCMp2VxHqR1WdeNY95hdy4HwuoUcWY7fjoJ9uktfw5B/qs+mvmdFCVa+A76Q3yPt9sQNFatAGPdQXBeOMq6sjcC7iBX/EdPKhdudKf+3Kzj4RU2JpX/5OQHowXYb4L8rMTNWGL9L6OmKRGMj/WnhyEp8k95SZ8PX0N6u/9u9VLSBf6ACQcHIZPcoMvx7YY8bM0p6QS/qn6s1G/m05TKAETHrPbSJuRfl82DgKKN/rTmGkpFQwHcAcl6ndf5HSoXEio5+JIfwmjfAJ2Oo6s7Uzw+Y3Le5KwSRpiEnatLu/B/57USfsAqzFGI/dlcvjq3dgWjCHApQhKtANr78BIQe9L+1jPGhjT4DUQjgrebQfab4xeCowrJECyWE50r5Ew9ZuIaDgv3WLqa751gXWmBASfCuZHIQTQsVMCiQotd52vevv9ejKNTaomaDfClhCNujpYKsdmW7ShrhwGjdcW1x3PFHIto2dzxbvZt30XqT8CNbgPN3lVzCsOFZ7IbP5u8quYVhwrPZDZ/N3lVzCsOFZy+Hs2Ee3mUH6sdmW7Shry3J7ooYgAAPxl26myTtEh+PtjGyFG1ajs+SxhRDlO+PvRq3BffBzMpUBF3lXH3NzjvTfKIf30xIjJEFg1BSKoYe9eIHD2SnCeRQqr8xWxMUOzsrHuk2oWhKTahvbSA9JZlt1JqroqWYPPwupihpwDeYhBT+WzVsUfR9vMQgqFFoAyCLkI2UmeyqooWuv1wOVgOPBnSNUDOufasHXlPaU1FO121IR2GXV4YH9xYaMbvqzn1AoHvV4+mqzn8aX5ZPbdJQdsf1dhbciAz/W4YtY4b2qCHNRERhHSAAB0o1wJUfyaIDoYAN/dhOphcl+CTIyIwfI0pcYd6khriIiCsow7fq3CWV5Mm+3C4vqNnCKDtHg8sgp0f9rT0oti+7Yin+ThxLCx8b8SGCsxcNKxt3yE+/EYiSuMogQLWauEx1Pj+TOPhhVFinhPx8wCIaREm0o5qTFY38PwD0wwGt1Dbrz7Vk1sonIEPqdNBBFHkv/DQx+TSrE8HyQ+JX56PeNjbakAnac0jW03ToFEz2bwxD6oAwEPxvbspx6lHIlgR+842JT4z5mtC5N4EBUYV7MuAwOegGufXI0GAI4vbefxITJnqwPS5vaom3HzkHvFEXitbTYmq1HBMrjhw0nL1OZBEg8QFH9lYZIVY46qXcfYJNJvaPqkpdy/1vH8hyZZQ57d7563mBjlp/e1rDZ7RuHv4Bom9cFoVd2aePLr39J44bhRJYZe0tDjIzH27sIDHU6Onq1J4auq9kE3oIE+dGskryxeZaQ4eFvD7HYx+0/+/MR6s0jf2kK5AXTw/lIp3nauUmFGi8Lb5c+PNw/x5F1QKJVBtH/IXwKAnIA5p3QtREPRnd8PIMxpkq8fOSveCZbdKHi59KJlSfVdmBvZrmMl4rZL16SpiFc0nu4EV5k30c+GM/Iqo8E+W495bgcsKpK6hPDlhWAsoQbQxq5UfuOzghwHoWAKl3fVFb9QQ1u1UYmK7i2RsikR7CNuOlR3LjDz73syBlEawdqdrEz1EdxyS3R/jbtBsug0h0QjtuI+bYBiyySkb9UnOwemUj2rf2kDgHjxdCXIlPGjEMD2JDGYQch2asmbXFWn5jkm4+JqWzGoQjWedHSG5Lt3UGOmUf8iIM4tMFYy84YVpgfIun731n3jABdtYO7mioB0xbod2pzpU4TZJ1WxoHUWNxesDZvPzBnNVQUpLYU4JMIWu8LHkA9+aDkZ+/79yrv+04jKajY1FOVEymiho1URIw5q01qnnnU5xWNprmTzA7vLNFUeERFMfZz49f8hVZFgmchw7usGACg5mK2L6yfXoW91ouJCGBewPUNuep+an/583NyMbKvxZRqbulwJyp+/LlhhE2E7FTaM1a5iSW6yhXZJHpwALVPmtYxT+ygdqTvMuE6JhBVdkloHoKWLOHB6B1trH1h0s8PFWFxfQVNN6aQvtgA2Qn2YoZOQj56hWbqzwt20ikZstGAIjixNuQGjMM3eBoXmMPgeB+6D1QZTuSnADGhjLZuU2/w/NulmD6lgZR/WdGkfx737DSFzBzSUymkmsNmuGtILc9UHaYUgsiyAVr3ECr7hnfvuAKBykKQkOr+C1zVWTu8mptW7UPhlIjmiGW6NWkzwPK7GUmjq/5mwGdicRTXjvx2/ctKTkrwn/luLNQw0TmTA00RmpwUI4BRvgwsgwnkM5o/sNPDIRQfzaYd99QSkiP6qVzj1C1Qy1Y2xPD6UQ9kMYK+wi4YEGWdxYbNoCUdjSWiUwUU4RTPBORlgk8N380nxF2FlwHAN5k5BSwZbWoIk7pnbauwvvXn5ViQNFVNgPybdYo5Vqr03LjzPJXybMRxFYCxLXUsDRZTEi6vb42NCbRuCIakFfnPqZANCC1ikUvZJSIOFNc4GgJtJ2BQr9ysA9dglALdYWZ543e2EgXAcFkFfbOKhXdj0RHLpPaVjeXKhGZJ//7Ap/bDAUuJDuXCBTFp9jDGxrBp8X/h8SmBtwQyL3jFj9VOZXPt1TVhu7n9EHHBxJhTmsx6EjCZSYXHYejP76vgPrz7OIpYY78YkNz7nzvw82H7d+FfXyBz83fKh/rjjRZZH4SmSnD1IG4JtHPAAjGDuXbuPt9lmKcCJaC7oKUulCX+J3eNGTfNf1Jj81TKqUoUDIkofTO5W4dntAkIDXnb9Y+7xDpQY4nISzL5y9oFG8rft77QHZmiFa0a1bN2CHc4/oGj2GCbTZVa5fArK/PNmjACuEHJ1ejpiwMJVoGxtJeXmJprncjxzAXKzGG2ajC9wZvXm9ydQl12lxcLLsfgGMUhEMHc6lGhg7f5mg9TVr0t5AAiaNXSyREh9FMEgvOeaFE7NeEn8rZ7P7tH5thR7LYHDlwUZBoUWQ76qQFwrfOGgE/3MSZ7S4pD/7P2PB8LNgIQp0XcMzyD3WpNWi5CWoPh+6OvhtLBnYL6im6VR0L9OWAZXzt3qByCyDUZnl5KLeeLmxGSjOhdUoYf8gmCjLDllL+wY6NwZrftNCpZ+HiqoIi+JbOhi/hd/lgtEkSlOaCSpEnbNINSLvFslsb1BMSFKOKK4clLXbw8qE/nQCGXQ5QRYdbfYrPMFeleqCfv9CkXrMDkUsAwinAqosFgPxtYYO9jQTwX4mydR4F4YS9/i/bZPiQRD7mAx7cTeowELfmzYBPFwH/4fVXIhUD312dAX0q3H4ErCwwiXYNQGqN5WcPoA8NhKwCkwjQ6WWHXeR0rxIn86Sh+wpTVLaPzbCjWIYzT7xdeYls3Ilz3dOLapi4j/bn67NKq2QZOrJgzP0FuZr1tWi2tAL6EFeCZ+9M6RWs5wtxMLyRthuvujfUSzHIlIG+ga0zQjClg0hEhpxrNdLJnFAvC12Frmf/KUNUFhtdjqwJvpT3J7U8Lne12NZeXr0gX5n/sDFWwMSmaFLA01Yrxn0V8Xj/LsaecEsDGMXClEETvfAb4Un+kHWcKEjAl8aWym0iFC/meD6e5YwcnBHxk7r/nxZ+VrflKt1Tsp7MCSeC7hV8EY7rz8YX5if9SuE0UK2fdMkw+NnV0MCgQt1P9GU6DWiQu+EoUJycbydpFthhya79NeCROk5iCGh+GXe6e+Y9DHMxSTY6XJz82rvrfO0zxI9kx2sqOVqwbpKMT+5eQXnM2ZPh9L3Oa4axdAVLLv6tof4ejgWszy6/Wj5LNxjQPy6nOBSp+ohu5NCmCdvyEPkyDEQeBK/FFe5izzqboWJBz5xTeDlc8R05HTS4xb34V4MhCTBOnwu59zRSLYNW8Ope5A5seVjQX8aekk0G6KKKjy5vEQTlLFkmUgQ6ADS3+gICE//9ktr0RGP7X6UdwyviG2epxXqPRTaKZ0eVk7oLNh66VYcymz0AgOk8c2pbznH0GwIr1fPj2XzeviGKJHztFqeJGWubwGurLo0QwSznj8HJq9VBt5u/gRhljeYPhlq14tK8ljsMxNhp/IpeVLEbNpQ8xy6e1PJwSsSAmVSJCIbEVmc7G1iyRG2IliVHbZZ/9rHIISOKvVs/7C7eVpp9dgVEESLF/XvvqmjzU1VkDdaK+YTnUUjOgAABTDriBaSAD0YpmEHgaydw+ArvlHJKqo8UwzlLve3yJo2wYF+ay+1OG/y+SwByjRHBbd/w/HJuToXDIiBkPCK9e04fWRr3RHBbiKbjRsoWFeTMqIjF9YAGd449Mp+fqmm27TLDkdfz76QpaJw4IglhEyvGvFF+pUgGUL2XgsFCF3BuYkZ3kWkIN7eUFphTRKd56Im8oLTBonjegIGY6VGoiorqX/LNSYjmJCUiX4jfP8WB2JEqHuQGQAARY/JS4Zv5e9bc19Y2PqYMfLyO2O7zKbqO0WRb/gWp5h78HhWa2HSuBY7ttq6U/Q+gp6YXobayfc4fMlw14AyEdm1w12dS9+SbnVoZHDsioqv7n0hO66KT9Y6mQDgyjLNOvc6dj4DQlSZv/rZ604z6LX+SVAzeQLPrKK/sva66akEKHB3RijAhj+JXpvfvCnEbGQhrncdiiz+8zolOg91N3KizhSJX8XkSEYLUnP8ZFodG8qOmNw95sl21eVqkZA7pLTxr5NfTqIZPtg+5r+eAx8BSvMzzD3RLRf9eF7yxjHMthjHn+GJMO8nu7MuOeWfBbfOsqdLu/ofjeaj7lLWalhscEOw5WUzvoI59FY+HwuFlDiUGQRk5DwuwecFfdc+qLVWugM4HFkBKtK8WJ1m0zqGANs7eWua+Bo4NKKnmjyORfcJ85a2dZuUZduNBmD9LwJfAewssEOGl30vpS1NmDNy3dP2MaUJY3gGBz3ETpOUAHkJxpmSFZfqCTTr9A7ey+38zTzQHGkDuaqGqpDX+YUCILDX9VKw8X44GNpjNLr5nBZ6zBt5SD9IAsNp8aHyaAn3dmJoPeVHvMSCU3/OP/ppHfR8qugO5HucngZd6ALEi6GXyBabpUcBRy51foQGSug+hMIWV+d3FtYqLP2RVXPB4gxxeD7Nalac4LiNw1i56+BYx4vaHrTY56FhpSiOYlHL1/G43YesKlUFTfkRSV81rIlLvgXzL9zboPnPWZyAcVYTVA7zCWKCjXf0CQtvmUrRqZicF9TXb+VQ7SI8vSYY40YYYuPHefELs3PngiW1Q0DswDRL9IgyNDEgyaLy6YmAHWgfJPiuoZJQUaHNNVi8psbcvU6hzgyZPpKWQHzEX6dutv8kL+Ca9cN/P12i6mQtwmA+PKfEfc73TkPSMeSF/x0iqHkN0ioqRb6M0IRF7IVtSNFZ/3o9GRyhaqnAd9OL3soMRLoUxFUXqglO6zsRUmnxcdS59HSLaXnVdOJkQXAVLzBoFhr5YROZjCSP4Wcu1N51pub5lrddMhwarrIrgc5WFTkMDTlCGh3XLu865qUBtYwa1IKxDAVpBIswi/cgJm6WnRJ1Fep8uXUKInjtrzq9uHgqQZekBr/+PYlAVQd271g8hHXpZKDIZrPDBG1PBmkk4Re7E18Jpq8mWkaYTqNk8cZKOfOyamAY5f8JaNfMLJnsb0SgK4ikF0JB/RHKaLzig7UMV/wTFO4R6+u4CZSZ5sEY7zIBLsyLNKaZMly+7kBK5W7GtEV3H/N4CIVCj3wjQfygxnJnJEVgpoYx1xNLuGkt6VWnhd7iQHoC1msSpAhngPpGX62rPNin0YW4qlOskCCNmEmTeuMGs9Fsb63cHj8A+HEkbPoEr2ORgPB5GbP8D5UOKW9ba2GHsI6xsStSWME0h/06mYvh84hTUC2PpiGBXxzsyyIp/uKsm59NwLijt2zH/SIWnqz/n6dT7jYpVkEGLNeeF7a2d2ljZau+dzQ3Iur7IbxGtIjSlw+hQ/Ci7ox0+kamUt5IR9JDA//BjjBE1LPP8j2ptxh0bpkXOdem8Z2zE/6YuWmka2WDsCOyshUGxsGGjOPzQ9KYa6zugULyxXzuA3Ktn91CsfjRw+cHoaF3FclqVLhLJ03nU9ZRe6ru/EJYnqB+T2O9jvQ3a4COqnmofqeF37y4fmLsOPth8yEpL0ED3OgPhSdch6asozoNKFarcV0gf48c49QElR56ArNmLMnO0PHIV3LQn9LdqIerUm/xCirCENxvo0DieLcSPDxdvzBhVmz39YHU39XctM6U1SBJE1p+OFZ8isPi8dWn9Huv3FFyulLq5kzMPqcc27OKNEyfVc2kKX491TDmh7Jh1y7mD9EVGKhYMXEqaMj5r9fbi/+i/J282VN7FDfy6ctWjmaTD58kRX7sT60Mu4ArTRdhngDLOsdQHwjzWWTAg/Iu12R2yhqrmNDNRdnZ74tWGgPoPq6UP2RTdotHeQTejc3dFLqCoenysi6UMPUMlzrAv31Aw8juZR3iTkXYXu+YXSRRb1sBVjUcArfMgsese9rOL37WH2fWFt4C3gCGwE69+Yko0XvozikzKE5CiGxgDKp2TIgoZNiT5M9DwQGDwI/aeAfXregR0lSYB8s9AVftRM2PTaTAVBSnvzYwC3ZZUguiuMob+09l4Uca2MXzl/Bpbhy0nC+o9DkKykjblbQbtNrhv0ANqUp1qZ5y6Oq9qx6jJDtSLez4InRC46nG5F7bVK0/nmmGlqFCcIwBQ8TuP4VH31df+n073Jzg8qxSFZCb0L7bu+NoempcOjVcK0QvOInz3GkVOdmqIzs6khzBlIjNSIMCxRgfX+p44RKCfNswAS8zpfJf43r1eT2I48zszaZZFK9jIT2f/Px6ZjxJWr+cgVLH8kwMEnP4NaRq4bh5fV3kSdmtZXTGN32e2Fz6XBDUZXsc+gXNkIwHu3Yq5Y6VF8zuKtJ4G17cBxY/DXrj3z60dNf0EgPeEiPb0gfUyFNemMJksKi5IWTZ0jP6q07GQWm9zoV6tk9nEBVFWz0TNOXhjF70Bo+sSbt5VY5QNCPvdv++1FOUUBfGi0VgLrN8JDNkxeGvoypjdDmXVxRQBq5EAtF89/AymkMILzhDn43qb7xXrkzarxu4O0oDkyEh8FhA0P+jtwBLsEDOSQfS2xdC2QKUWEfwnfwr919ZZ9iC9hJqExRV8rU6Sok14ulbpW+wlLhQZw55WCMGlQQXCjVvD71BU9wMUP6ElVTeTdOaVOAMYkX2vfG0VLII8Z8tTS/P/CSzxKj/VTql9j/ai9TBP9A+EXN7+PlBDgNsRa2ZCcbSgyCW/mHo1vw2AlopBNnF25G0eEBVSmED3v+WveKSYt8VEFKdPExGOujfI1hqZE5u+q8K3hgaRDJ9V3s4gp6zR8DeYZSuZ4AfDwiV9BTaflbZRWFuNn7/Anjld9JYLCKkMin/CXR0/DwagVsDLa6vNXoPVkvYw4KttFJlmWZlaJ5XhKwlppko9LIEHV9eSGC3SikfDSevG50tHFej6qGaavizGTY0Tjs79BTeE5EuzvfufLaXUREQLv5gM4H3Any6ZAPpMVNwNdK0vov8pFt1EppBwuugpeU/N2XHa04s3UIusgl37CRE/LuIwsBYWPpyT6LoFsc2DO627UKePBB5meffZPEqMAi/JpM8oLqtpIpp4Vn4QnaVS5y/8xOQQrOhO4eM7lZOYN1EJRtFKtrLbhiOjf3QAGTkBsIuoO9VfhHyPDarAtf+vB2mgLPIhEQiNdtLcTJNmDhpwjO8PkrGbi0rbs+kBw4RnLpG+Pp410dhcvaRW3pwhZDyMFqtv/laEEc0hqo5Nq1QlMpE0vt6HmUPjX9pb8ysdg3ldCufltpgQXblMqY32OGN4SSjnXdLOe2UF8WvcynbK3sNbxJJx7soaqPeBztpqwenU+js9DnWcxaLXehiDAuptCebD1nHvJtjoQtLQVsRQp7FDJnnXqubPS0923mnwHtlXWNZegDfy2da3ezKq92DNK/zFmuycp6RNnj5ah9TGyO0iCctmPc0gwdVzU+9o5rQLsHI2VELSjnlFWb+W15ZG7YYk7h7MU4UZOHGcCQMmhpzECH4GbjpY9BuY9kOJRxvnjkXKEEwE042dLvxPJOFhGHPeTiq8gg/JzY4x2TxFhP6ePY9XNw983aWQdbJF5kyC/k8fatXeeW34q66Jy6Z1njXVzldzrxcPqfdJe8axm/r02idSqfsP4Opk/ORqo4jWkZ1YUOvdPWy2JMCRJg0B2pOAgk/0oy0brx6b3ysqL17yBIv3V/HTfKQl/hq6qx4Ci//1ESUsbW+VoTkp+mwfhc3ErSahc3gmWykEqfHY8mI70TvEfdVPp8EGyVbsIvq1HWv5gfks2N2CVlCiuR0hYswOxf1uRQ8OvxFmHkvMYyVLkTXXt63A/N34rkiGDr7QDzSJMEhmzNjlS9nTqHwbcC/U/JR7AMu0wMHEQ8S5qn+0jZC7RklHBq4kbK6Prymcxptuxxf/MT+LSR6GlQXOu4lCK1H1FvtYCxy5HAOOC7emViVAfiW+5ME6T0/FgnBPyMi1qdaoTAvOqZb6jvre5Fu9cDZnE/N3vOvG46TwLqJ3p+RVTt2rzYQA6q69ZKxlHaIHQJuFc7GSk+Zx1p73gQqslcA8P4EFPxuavbYclXII2J5haeilQaoS9YHhiTdgO5vjuxgpMLm1bSJQFaeTFZxh1xKjp4LQGMeFvlGVDyH62GiYBh5iTYmP87+HZnMbJ2PW2OLI9waeq53FnFESfaLnQ57syAlEv4sKgK/p2hy8YwbR0RG8YYIWFZA+G0ZpF9Ws4nln+IKB/FVBaAhwlzyyBeIW+/Zw5N7M1K9kPeU18yn7jpIxIUYs17vXDRC4qubSxy1o5zwL4ET1D1Mo2hCZdThybpJo2qLM5jsIqUgoS/l9l4eaz2DwGxVIqVM8Ayi3Fxk3ahwDwygQdCF3bnkekWaGPcejFWUOB1t5oU2DbrknS94+ouGxfGqFIxJVu55IeO09uOXA4n7fOZ87IWgqVnsbxpw20jptbF145LpzfaMt3pWY5gtCWImlJycAmITPBk1b71He0IMxS3w1oSYhcWclmS+juECK5gg4fa/QMFLWygeCExKIr/pQnJupor+EQJm6ytbUnB/foyvX4BLi9DZAIsJ8HQI+JF36ovxDbre+9t9R7h/TdwVrBT9xUTbf6onK0LCTBNn7JEh79GLR4t8g/kwNEj63ptscquafQJ4Jas63q++NfeHNfdn66uRP5oFBQ3swmZgfMTSBUG0Ul4/3ZNBhYj5cnPvC79nzA3V2HOIlu6ds/HVz6spA60B+Je7KZKSRysCYAzgKftCEbAGpouOXTYrdIvcPtY5oCe2AS51HmClTzsS/soOfcqD10uA7uOFRM6kvK9Ro+7QLrqNPW2BH60Jyms2xaXcIvKlrz8JfHrv8VETzV0o0b/vCLDQohRl53SqJXxmNyX9HJsM9PAbK13xxalRXsMn22YDN4L53yzppfktaNuoEcnUoe4Qh4pj55MDe6Vv9kKHzAK0o8UyW1b3nEHDQJTEsGXPpjPm3lrpMCz6QsOt7Ogvs0rAXv1tmoEojSClvoqW8oQMZj/lRWmLLGyyWWac1H4qTK4M9EO5KB2Jeg0NASCXLmmDFHQFSzo5gqWKZg2YgRr9XtfNIVEvaQBjLMJklTw5Ow0SCeq9A4q1RafRANYvg66ryBeIVoD/D6+NAzU6aNpUkUFCRpCMeltFwgKe2rHx3NlATTxQoTxT+0GcJVYzx84K1oCKvToUYpUDHc6b7Cxj6k2NfsbM3xOPsg1A5zjXzKBFB/rxtQk+T8CSaZLh5G8S7yUAnMhZxRLvAuyY8rbwsN0RVN6KZcHhIN30Jcs7ZQLkfdysahwphVqfFSjjt/Uqe6coo4AL+sOOSNKW4uy1JCHU5Oe54pEXlqQhtfZjG2F3350XW0ItyX75te2unMRBvl6hkNM4fpWPIk7gxNh+x7CZ7QnDUsL63ly8/sMWWtbDhuq3PR2ItAuPnN2FuaggQWByFpGA9BdXB7ct4hfF34a7xSCuGdkJT58t7fqK10OpwE3RcJJzBayX73slofOqrje45hF+vUlocQUjG8rjzwv94gPbVja4zO3lD65i30xMqAYSacUEGVfjr5z0hSzFPjqcGKekcyZnGZGz1/p3jz2iZmOTjyxU3jigpb21BxEa6XwbFZUpgnFqVj5nk0RdZqrt3dhRhcMggSn7f/4BHxD+DOTBzszBVorNhXOp+JXebgKLNmr3xD+uYSW1Xnn59OPHCBNUgg15WUV2lu9SDWj9m/MQf2fX/Im1sdGR1ROXKG9juOd7D8t2Xa3XoZ7hvLXPBATZ52Bal5yD+P1gMFfveHnEGdfINZwUB+AiyYndAMFa/x7DNY3oOgWGeCja035TSzr6QwKH/pERp6jGII/hroYHzc74/MuMVZrvmn7zFOdmyHlqSOjdct+Ewh+vnWx1qUixWUWvjofNtamBwZclSjDOD78cVooLVKDQzo2mDbEN7OxpxHeXBjHV7LNx9DIRntu32LRB9QyaToBWOdPd4yMk2caUsbXXtV5GqFHuRcHjLDFJCp7YscOqdushGPoF+OjXuj5AgKkUcPeqDzFdUGTpNeLOy9E1SMeXyFEJwsTVqBn8Vv66NK+H4HtYt+x2cceKtLAVsD4zBetqi7hNV4bCPfJttIq6nCTQm2c22TS3gmQM6nVZUntnww4CvvCT2fecXnAEWuKQoNrDQuENWy9Gv4uuFbRli/30bYemIbd9iTlf461bVBekyoKwGA90i78h7L15WOhyMrG8liZujZaBBoB5pXkSvK3xyFqXZpECHDugQIgUQz0H7IoTsJ6azxEvlU/7FM+qVIlLvBRvBtee/0/jWZnV4rCPlAdvPcGrN/SVk1ZQXd4zPNuk1GjZDCbCQANDDMm7Dgi2PPgjYXNJybj8L0TLKP+gTPduSVhUKSPF0vEh2knwkQn2s5obNYt7XJlX7W3RpnG+kMgVun90svQpPXnXc0sagVwq8e3eTp70lzuXmQFvcRDjoEtkxZETRlzSgnZB/orkvd4u3mGmlZWVIZmEyyN0DkzmEyv5ac/2+HWuNNiTyZVqDztPVq8qXF6r20XO5Ll4pMiBNkGBhokIOLd4xNHO4FjavisqmW8PWCzPXIdcdXveGUZH8YSJ4kOFCkoFw1wrYclsV9Gr1MAS60XJLcXAWWpUHuYG7aUlap6wDBgeD9EeB0InpJbymh3sZzrdn6pXqxP7Wt7nRV1dXuVHdkxcLv2B6r5y5TFHGgiUENs+Xs0QJ4p4zuGjMLVW/IXIuFmvUSjaTeS44XldDZDICLSXWJwWdXuEe1JnSiZied5XZRwfeiDjq4XtRueNyBVuYxoZBiiPLteJ+rjfaS/Yq1eZyJ3xfGVC4IyVR8eFP56GtBiB6jvy3vf/wsi+XhHt+Ijz2Hqrb9B8nzsa24QQGIa/s/dUzejQgwBvl0Nw0wU6B6Yrrd1hAXn2ekl48QHOO0tujKqzb8CJuQUswQ2fp2QKU6ORXeodR5ZBldCs83P0IdgTca38FqGvlTrSqAAlPv9GH4D0IZHfQBs8XwSKaG5e/VEXX2zQRqUD40QVB0RUkTV4ik/9IP0KjTIX/QQ79oYmrZvYcgRNsUF+8TEH5/axQosDeXqS11gX5jQOBz+oC7vIwYQ2z47irtblCPLANOQRQi1Dwkb41VIMU6dBTKYsgf3sLniWvxFfwNUzB+Rua2yHb2CRQzVbcd3nTt1pnvt2/WuB1eeZn4r7cUPMNTQk/P2sbSHChNHE+jPywB/kbADj+8F+Ey5+a6/fjGuPDGeKCDHuv11kAo/70hE0dG57ZctbNWISkqlKQ7LbsU6kE/gOpAVohVNkQHw9XunaHHu0CWrIhtHz3k+ovm28rj1v3kOCp8Chmyrg91c0uOIkXUuXFjAFifr8tJgciVUb1E4m6/g1aemh5XjaTsPTuAsrHN2d7OhzJk2VrzkKtYzLFPyVQ3LSgWPy70qi9wzq++ZU6Qu64CewA2fgj9ERFKdJk/CARNn5uF23UjO7daFr8MfShktUTIVb0DDC+csF5qM6sYxhRXWpoKKAar84CMvyTM6gD9hQ79i3X0vi2WY5oAKjeFIGOmqrDWpFaeVIzErVzByjl+eH1Zd9I9i5tju/hvgONkt/UjN1Z/Zl6jtdKq67n3RfJRKVIzyAtbuVNxcTIJi+AX+/GXy6qsGzrKHVIN1YiOOOfvZuJUBKIz1O735erR+L6+SnV8Tz91VZoKKZzKIitjRC3Nt/BKOgy6wz3naVYwDOJGAIdnXPJM7JputhuCyEWQK3RvAAbi+oBZ2oz41zLcI42YXTdiMQe8ofNCL0+lesz1Buj8YnUieLxma90JG3yLkylQcig8P0l0tmlD1lhUAn0rxTNdOb80ebjiAeUSlIAk+eXbKtoumdey7IVaRtffQIAnf3XqPbPShq41qOam8oiSka6V00qPBLmz10BCwzetMUSjQo7+LRRUipXkcpqLac0BTnUIS3dq1LotB1xLKIMAnABJ8a7wC8jJ6q96LK8o+PwdOl2+jFBdHqCyxJS+W2+o7mNCUvk6MC15zzJ5tqxovVGNW8PXVB/yx2x/bg/sjtigD/uWZNTG3iHgEFnJWe/ACFztB93Pt0rZN7ee96aekZwBNP3r5l9fcwB8OYFakBNHfrtEbN6+gAtzhdYv4pjOliKMJoEoX2By4tHDaOzo/QZmQkB6XLuUvDGlXpC93RTwQRrFK1F39zT9VQpBjfj/5zHwJXZ5KEpcestTzGywUTBay1PvMRTnM7utVT08ACjri0akdqUu0pQcdcNaCQHofeWRvKB1TCQJ9zqMi/3E4lL39T0RkznS8+h9SpI749jRwx8NJbtTjn9cKC+bL5rW24pwhXiP6auFdCSgn/wPUZw9E/qAX8zdDHHU01MQwQla+nD494adS8uchhc89l8hqLalhGSLGY/4mzr8DAXOesRDPvMSZDxJmHlTM8q1BQjnQVmi6TxwhwR9UW4ZfDuqLxj4FmmN2nj7cFqUYaFr9WpgVKDqLRcP0YVSzOqRx8VMtxioq2JWAGWXY55DPp1ZUdyLJ8NRoMscu3idM3jCrVaVini89m8s2wtIwH8s1nuVMbHrBuq9y1kBbm3/gSoqz/+fe79wmJ7VKm+44UDcVEELoKT7vdOHEsTWbXqLgRhNfcsnuwdWqm1OlpXpo1ic/6ymq0W8ZEvptBQiDTsgFwJd4w7QQELOu/mbSKelUTdrL0hAueyrzs8nOYl3hH6nIrskOtfdhPC4dgU0x8j/XSLQcnQrEjGg039PYe0o9dCCX2gTF9+xq9Jv3Jp0BGvEEaAjzNsxRAaQG9A7kyu7S/PhODZ7DTc0fTqrj+01b2DJC5zQExl0HJ8ME6/uSLzKbe0eCr5sWz+7EKgyODO8Uz0aXAw1uN+D2iSixNIezLcE4dM+R7+h6dM/p93xoG0OOhSOgV3fZayvooDwXgWUG6gmuVtT65sf7ICRVneKitu04OwojVKs7tgLRDc0gEqITKuR8xnsbsXHu1ng3Qa0eIYFpxyO08DFGLHYDOtJ40FP5JvKTeryinohMpDauacjlcSwAAAAADozBpfik16hEhTAcezWAABtYjdACFu21VBgqog3bOlNBiLAEZkmBplmseLYWrb2zKjtk3QVKgN8Vw74WqU4T2kNtW1ISVIXtbGy6RJMY0cJqYoAkiHfXd5N0FSn/LyBo8VDKrJgy7WzgjgPgQfjOAeRCpUNwbAc4rthU7SZ2M9h8KBV2OdeExj8FwQ5F0Qz+JMakvLA2IML5gDzMhUCLPk+C2A+qIq2oMPrJw/sULRiqjuIDNvSx7pVEP+bAaMxG3JwDcLpbEB7IMI5kaUNj8reVcE1N3jgMjRZZeBSJntvCK4AHKywMDommrMRzaVs4PSiKlxh9v23v684fZQnxzRF9GJG+YUusbFrGUbmBdA/OlwbLnc4f+NxwbRgzwofxChRTAs+wTGZFvgzZCnKA9bWYGYAQH4BsJ/rYOK/Xea1GWZ5/WHT9ytbLHd7kBJYSDamV+9HxyWXG284Tbs5Zw47OT4EdfzsorkBzwLG30ZIBqYT8zVlRJsUij83FQpggH85zdCwx1w9hIZdlb0+CJwnnMwD+rfUssTpiAh2sR/SrXccoHUp30FFCnqu/5Dj/JOLhZXybDz1iRAOlyUN3Dzh0Q5E/A9Zc07WSqKKKP07rlYr7IeVYX4sCSXxAkZ5EPmvFA24Wbtdiv+5Ko9kdAnZbQXtn45sMTlSQFZ1YJetsnkvzD3gF+CyCvsTe1ZNpZBSibgLYACzTSyc7e/MnDHUwVHQQJHn53sQrnte19Rdo0GuvNHP2p234KBg4Ats8rK81ONM+DPrJcuIgSukNf8nMdxmdluTIHILmNjVXkuORJcJ3G/zMdXk3lOA5zdefTh1Hl4f7E/KeZtrGXjTW2ROAYfxp/WJ+GTQ7X08MzTem8WDYRVG12dNjLOsphEOFYEPOZLlsU9OoFsG3jPSpdnbi0OI7pVMyYBHrt0KETtCORIew5ZdIQyYKyL10IfK9V/6ADmcaoC5cpawuAvG8zgnB+OVro2cJNdwp2YKbZ+el+Qs5/BRLZMHp9E7FoYO/Sjk5i2gDQ4UIWZ5F+ZK15zKSdEXsp5imlIYsnHOixuQgqGhcl011+NPwZd9KqgBMJNy8Lg/X3UNPfucJSzLdmdbKeRdPSOosm3PaVNIc15XkdAFv0BnKk8qA1gdubyAs0nuLlzH7Tue4LfW4tLEBb3Bu3vwHP6SDVp/mCuT8W39m04arRhuekE8ntWkEjIWRLOgIB40tm5L1LmPHf5+YnjKm7PgoBHYPKTbv/UzYVisRxujEy0ELlXcrs3GiosSWPhbOYfynzRYE0jVwo5tOTBc1tMaPdQFuNY6oW2aJBieqmgDiMjEr4T29Pdq61i9Zmsf6ztrduwepzwlrw4BCSaKGT/aCU7OgrPyJ2dgEhBh5pHjG+/0VGuPfRNLoSifC+csPoenKHnMH1Y/GXGFIx0R9vBdbhKYYsLGQlw/x4++aNTztdK8hxEFom2QSjw6mbqhgmmX74HV5q5gl7asgFSH82CylE/k3ad2jawRFTI/kWfVlEXuhGVJ7/oVIIToA6/wgWaEdN8tRBzJ8f2u8A8V8av2gFiLDIEqYvolXLxTKL2PK9h/URxWjOL9gU8N7i2xpSCr7c/CKe6j8mqQRmCxNkZrS6f1U9QlrBFyG7m/jAk7Xy+gBqWs5jD7Rt7yGMuNCTZJtosrk9stFayoroHPqQmUxKXKO6xKD/4Hx3sFucBh8TsNSiDjV6SQFfZmWgUD7fHaTtK47JQJxdE1kENbN34GI1AjbzDWbVl2meeuvFwk1OmJX6f+G4orqeM5+ddPRUj5cUTVRM9RFBgHrGj+W5u6q7wUqNfJb7ZWO7RWIuJ+UcqMvX3jzgzSBx2n3NcpCA70W6EXr+/mMFusTNS5i4ASbXvkl/QIAhS/MT/p+Ro0eoMxC15tpJp7ww4y538kyetg6pc81o00dnGMy90AF69aYii4CTG51GlD09LSgRemwqPR72Y2fPVojFNUKfxI+5Beq4f5UJhNN0jkWh9NI2bhslXTicfTP4Pu1Mm+EIhSrx4R9y/pbdtXA3BkTWK+XDO9gjpY31snPUotyKehp9n4+IT0Ae1XUdsWTtWeaA4E8Jx5VCAW5T9NTiuSsmij/G78bo+6lql2P81R5QxSUFeJkIg6+l/vHwkXUsPC0a8GIlhv9RSIztZBzNshVXWjmZ+5i5+AJQj17pPVMePj/bMr+JLBBF6miKSEyLTUNir4Y1/JVVR8Z6A7WSWXwAsjKcrcZQLide8hg3NaxzulSQeiwzz1uaLUKmLftlZ8Tjd4qohQdtcqrnCzBZhRCCLGAaTrrPN3s+yQ8Whx1At1+xuEaLvWIrfIBUg5kwnszMpTaHlUkQcst8lzGkGMeXvWOP6RPchjwbUPRhcJhYKLr61n2YXVhWgTsi6ZfypJ61Genn2idO3Zgz7awf6C1lZxRugeZAxtSHzJ9QoAqXp4F7GkcfkAkofIIatkEc53OivprdoUyXt+rBUve4ZorlLfLTKbrm/HzqfqIW65XUifUN8suhM7iirTxRVkWqVLAXgwEngJr3j66YtBmkpBSDDN/MYberiq/Hob8inhD+se+PbZGpFbu03Y6iIYWB2OVNUx+2+MjwT3LJ5eusSZUNIeCXcXiRlN39z8e1JMj0ustjCekkqNkzXjib6hhr2Dma7lNSVjj0YaM9J4oJT0pY5ecrlcKlFY2IHNlo8pqD0sT796vjRq/EeLv8HagpbDeR+d9dn36eh7J7ApUXHsEr9xa+XRschVWaZGrXlKRRGfpX+ZOjYL0Dag5XpUYJU2Elhnh1rcFFUjhsQXVcZ+MhsNf2CD5KhBqONTPQEhm6iEEg20oCREmqPy5vbtiO+i+r73r0lCX7X/5qaw2lHfhGISLPbcB90Tbx2rQql6jzpW9LitLyCMgLu17Pk6B6pI9Q3qy/EgsP/eo8DqUsOTIj2UC7wnwiXKijF/yQnhK2VJESLbypNXbqV5kTSfpRZUzIIi+2PjSO84zNfXO5kRqpoL8/av6pfMktQr6PxKgdALBWPgV2c6JUFyf+swBkoYgSCbLMbS1urvPI66TP9nyCILy6wmQzwW9IuM8Sc2Vxkt1KDYI+aqgBjByEdvWFNRib9JlASJBvI9cq7XjtUyHk38vjwqjK5zvJjfhuL3U2+bjt6nMAhzxlPUWu0UObW7EMZrx2RuRUNF9HgUyGT8TStcfrU81NqbA0UyB+x+bAJkelUwWIPELgscVUCGfWujViwgNu0Sfj9iYitTHBql3ISq4k6brK9GbxL7mrpG/mjTR+lTS+9+ct7nEmDyDc2Go5rdcj20Zu5OeNV40z97uezZFxgfQGCqUaSx5Gg2E7E0EGKymLQyk29GbyUihoY3md3R5JfNP0J8xWnOS2g3ROcxecJIzrwMtLFuNmbrFB1B3/b2PPSnG0GjrIB5iikOLKXZIgKzoM1/DHG7laqZhm0V1xt0OBKP4tVBU8HvtJaZLiy6LomoBwyCGKw60GeZuDM+ECmuOLU0HLYj0FqD+/xZRoO6Cb/4tEq1ww5zoL6PZ9itXvmXhdWZ9M65JBIAaE1uYC+yd18h0GlQTgDeSzefeSyth+RPkPh8mwBKF+cQ3NS+g6fDzGkAj8GJvsGUX6X6jnCPE//zoWKR481o2JTt6y1oQsWvJ5POzNYta8Sef2XqkMIVlb+U1zh1vLCYZ9stjtOzxr70ByBWFuhiPaXiSxA8+JMXDaLptEv2jo9mECFwU8IFqXLEf9WuVpdJeWn1N4XY6eDv7MrykMXiEPJFQmrxFGz+751ruUKhLuAmnwWPi6wRJvnrWGAMNT8Sro6+kwcfqlosKrv4mc2FGRgGvwIfYWSpa2PlIRIHmCB6h8rjl2RTHRF+midCS73DB3/SQxPEWVYlQ1DLfyrB36MpTvmfHTUKFV+uDRJBivlZnCgqDK9/gDKVwRB73wv6ZxyZdB8rxP63+0hdmf6G2ij6qenMZHXWzu7lZBgY8d65sblV9viSGH7WCBr5gALj4882+QkhNEAU8stJIS2N+2vYlmqxO/va4OWJt4VgcKzf00EJHaQkAX8yVwPSOlqDaaIWh33VWYxuF+88uINtPZLeZWHO2Oz+bOt7X223RW2E3cGKnwgkjjGOqUUmPihuUqZ2C1QKjJkV8urU6YQvy5I3R691iis/Uzt9pZ/J3kqup3XzNGa7/+DAF7ohxu55HgBLk72+P3QAq/pAmz6MNMsjv1XFiBFDQwL5HN4vIzVyJYto9ssaDRCO65wHe7S0rE4qSdOv3VQFZmG+RYbzsVCNuqtptDyFuIZYcoTqBpJnfdqid3y1SOIEWMIuUqISmKi/XQIHwRZiypLHZk/M+SUTRsj1gRyoNbXOE6+SJNGH8h4T3creBDOLVGwUZzXl/fKTfkLTeJf5bf1y1hTeJ+JMWBqK+7vd2Ldex6VA1PPhZdl18Mju5d2JWhdkJZFof5zqIi28V+iR1iWr4SVEgQa25cWiGiV5eE1iXX2cfFuO0nBVL8oXDEAGREdqaRYHOnddjqzIXSgsyKe62zU2V4A+viEVpzfjqt+dkPZAAsyHh3NcqXsfxJQGkDISh49Bbl7ZEPFBIclCD16hmeK0EuNVI/SDmY2NohMZxxSl7Sd30SJaWKBimgSwFhQcvg4dzhWDmFvu2hqV32v6LlGaj8UlLo1Zsga7LUk5ytqoRKao2XPJrNNUR94aMYqhJbEm3/PuHS966FjoPAW/GHiwq49ske2jDvUrHIaCuALgWCVK0LespvUGebfkVng2dPnFNx4VtQpNrSCU720JBbudTos0v7yWAE2+jkjphXx+piIyVXF6kXKI00zFLlCIovK55vHtKXk4C+ty5VKv1+1sNclQ+nBsLckGG5FAYLBhjSl4xf+oYFuMj3uKnGnlOEm5a+27I6NVjeWIfPB5QlMjpn+SJLaDKB3LZIE+0kFy66OK/tJI/YnLdoAF9aSQ5JMnlSzGHwZPUyNABAwNTW3Zu9RLcbGYk35/OztU0YpUtjtOarB6bIx6XEBVYSBSlkD/rRU9bmoihft2azBvNqfzXsz0C4gL5923fpNfZQfUiAZUVlgVrT3unq9CZZDn8vaXh9DDEKUSkqtWh2xeZJwXx86oeRpMz/RmmH4ZiNISEa9PtWVJTYOPyqzOix0yz5xC6izP/uhFR0lPb/rVuyzb/DMRpc2W5RcQSURM3oqPrg7SuH3NpmreSXVp+qQbFf4iJfBfRSUmTVHNUN49y1MM7tYLIW1QM7odnG9OCKbLI9L0sy3v9tkAlhL4oA1cBbU5r/plnDLe9Fy9mQey5HCxCgQhh3M5W8bWOtjZ0hcgrkhIZkWsXv7J5lkgUTDrlLQ0gkPokVIegB17Vu79r1nRIYRpFRTjYuFmq5SA6hK3KS1qeQ7tRPskeEkbUhvqOa4MOgs+A0ySu2a5z8F0eRA+8DCTyf758xb8hkQWL6wqyOPi2Gd8ODXRVR1gt/7pT+Hb3YnReuB81tYN8k36sTwP4rcVKBRrXVrFAFlApbpXFisc9dqxKbHFrDxCGOnKsMXU3pAuTiSD94Fs8tU6SWjqSPsc+dOVRPlTWaV0EfA0pgWrrYkOJAzjDhYUsNbD16iY4C3HlAQ7qCK25TG0wf0PA8ZpSqrdNfBH3AlQQJ2J42D/o7Pbk83I263iwrnq5kV3edF50rEus5sllz05q0f+tOAqyaficYDAUpTcA+E1v29YW15FktLXJx/TijZn5oCxBUBQDGbbaCckcmbg1t9/b2q/g2yvayJ114vruSHF+wAIhRNEyBPjkHhfxOrQUMWWz84BxWtzIF4B2qZU8H1TW8Hz1j8e04yTH3xVnvfR5bYf7zyYtaMbEvxt/4Zs61p6F/djuYqbpuE3bdJAMSYwUBrTJkCSK7ISnfmIhONFuEiTgx1X3X2rcqMqBMoK8xRXT1MAAAAAIqWFQPmNWJx8MG1UzNjuZUcV6Myv8QbSpENaZnCB+c2r2WQAns3+PaLtiorM5o6s/DAYaxaqCRAFJwndDge7EnOUyocY4bGwcYxxd/wK7yY/X1vbe9yv9aNIOXHcPeaHh5NLOTOBkt7ZnVhIKn3ddMXngAsLZNuru0bWMg9eWPHvJpIinq7wvsqiqrLQTDtj0KTJCAKvH5yyiykckbGp31L+3FKhMPphXNVrzNXERqIzrFj9KV3Wco1+hBwjRpxDoW0XPkMrsfLv+5GqBChozJ1IlzDUX19scoOXI4M8PxyKqgUfMinXJQIvYsmte+aZOmz+NZnZprF9tS75PNsJDp0YIAbHJdL3bzpXGVj2jeWKObCilczvYyfILC96Cll7QmndUSyJTJLpJoTSC2kfRDFIK534XFLwg8jeRaBsYkQAbgxQUCtuCtwAEdCyg4RYQDfEPhTfuRSfHPTnvRZ4ymxwAFTVGJKMzHWWBD5YdvhOoYdaRNBLoTgjlK0dmvXfekxHnqcEC8Nz42ZBxYe99B2uJDUvVGXgZFsxTtDyDwtwJ+Tp8odJBVBJ63/0vTI4qWQtydpi0skv/cOVOvjxEdRSHZC2lo6TQK6ngIiuumOD1N1+e/NquJ53ub662mBnEsf6pKOOE3rnNFbKm9NIxUDcl5uEi3bUNzNtNWLUd4PCooMUbv2P+axKfQvExDN1goPUlNVMc315tZYu1D5U/1FTSQOrVqGpttKPkpnYBuEKXMksCTbu1y/hMlcc6aybuXzn8IRscUD7ZBmPqZMdlA0bq6h2p/qYME2uj+IZuytwKtbb5VIzd4KY2277DfZd5OILaxFH/aGQkFFFGLrxQCwipih2tbmOum2BSb5Ubjkws6YujbykQ6Kn1qxJBxj7sDUXwAaIvxHjGaoORNfK73Wp9AE7beKaNwaSViGRgxtxRVw6B665NF+mBB2ZqNQy34FEbAGzR07665tSAbUGycQcoPV/JtU+OgKGK9MGDIQPFGx3aXputck6dnJXZ5dyiknYUTDh+O/tFAfZF8cPRi/fgIM6bKZosiBwkPKtV5a0HcUpj7a61BWf5Twx0v8TkZReLehqSm3NEhqIgXt6ZvLEmAYO2yLB1JJeD/5CANdu90yUcPdn/uabJYb1ARYNr/ZyCT/Lvmu5mmn5/VLCX8/4K+Vhzy9gWkMOQ6JP0Sz+nA1kP7Pm+ySSDtM8ongQz+o4kixQ5DRlDjXqcgMna4C1SBgui35jkt2r7aIHFAQmhaLyIHoH0lB2IUomOkLWmPcM0APeqfjT+YyNebj9Q5+RerLuYY64bL2uzeJcMq4N3RjDD4VcT7nQ+0pu/X9fw4NvA4Pox3JCyD+Ryy8HlZg7ite1IFfhrBeQnoUp5wBOE+ANFjBgpQL65ERWg0Q7L79cW/NUFvacYqUrZjzPD5gYzHYfG5MnfCsIToECB8vwV0bnllIYrg41DJW+xKYTSC28/JdST73aHoBKXUik/lBIEg8j81DkDDZc+Sa+3AdAPE66/porn0x3/GrpBjp3oakP4K9Ey+sb/jtn6h/Nl4G4wQvNw+4EmIOhUn1qKLwBTDiPE/83+qBaBLuThzQcwo0vyo8wDhcQPR4MMqxJBGfjGuZkHV3KwoX7uiWoaBe7qfLZaEnx/4Xz30dFNtFrfjp4iTiqD8MfOCwLX4dUhpJSjUVtNY9izK/YzwGy6PLwlMptNOoJsjCZgfdGClXEnHba4WcXk76yziTIdKRCzDpvcxRsS2BFGWKVhrhJFbF5I4xZYTARXBcEjzncHJOWcJFsQFzpNbYRHEN0PE+7b+zF5IH4ye52WShL7MUWwFlHy0Rgr2Nf9kCz8gFkNOCzB6/JawfJFzc0Xpl0Okpbp3r6hcIM938elxUAGMMvswVOPUR788jkfi3r0FZBTSaef8kGRb86Xag4THu44f1FPm/DcJkcUEEq9cdRVML8jqW6TJqi1oXnYT7vHBJN3QTuqCmWFux7Yr0nZoOECA4Jkkvy1+KHxzMTT+b8J5LkeuGVVC+hdYTpKP6gJslV1NGS5wFLK4p4L37fiFlORSOgdQ12gFMf1pw3xNwDRf0xQW2QxOtH/FqKevX03qvlHNjl8a06aPSVF/cAQVM6Qtp1fsSBpJTYdYPS2o/U9Ekv75M+7fZb9QWh5T2si0Ih56CHZA2Hlb4AaZnSCWEUog2Gh9xBdK6w6alQhevcc0Hu0JG/wxK4NapWFzuerum+FJlnAbYEsHFESOa5Loi8c3QrVX+ZOBbQBSSAsfa72wCOnRuOZ0BKugQQdgIcT6DAu5ID/EEshV/DLrqjmT/XqO8tBd35j/MEn72NrVLppoEkkZp/E5uQYcu2DD/sWVpaVMxhHxGtx7hHJo31Jw5vVVvGmNqjlplxPBeEYNOpgGZaa5tBkqOxRZxdzG4WbYWTVUzmIRYuAYj++SvQT3ZjbGMG1OVFg6ogn1jYZAbzkl3gz7S9YuTbf5xpJbkJcUJpQyYuAeEbqOX9isxD8RKmGUeNyJpjarbNOvbh/0LMEh3aQFpk1Fo5qQp/ZqsfCVh7pKxWMukI7QvU60IKlPe0I/CDyLpAHuQmANu1U+SjiowyGzJbdvDoLeVQKvqqX/AfbwrJiMJu+fWxxB6td83xd6AObTMGJzpxSWga7IWiraU/iC4vH0cliCujeSOfqiEu8LP/Kcgc/AVOK32t4t7rGro6aJZ0MJ8ALNHWAEEt9ryaJfzYoz/sFxeeaX39TvXp8bpHhmejWzbRfm669YTnBENtBp2Ok3UBQo6ZsK/JNISWLFOkAv/r2GDZD6Kc/8vObDAokI5+ijt7JXclD6HCOOKX+RjDj2Zq+QLT/yM791UvBaDUIP5IGkQkbyzUiO/VV8RQ5CrqGVvvZdX5Ukt2BSWDAIPUj50v4L+nkDlIaVCCjNvM0/4VA/o+26T4StA3ITZsl1KLjrTUJg31XYgde2TycayxxK1Lc1Hi26Qq614OfODkOnjDvHlgwpZi0W2+IvAY7jNhMzCFQf657FBWrqkfvm2McYlHT3CS1D/ibLcK2EdRRH8/Ax9ls5IQDXbdSRIQzNJKgJ0Ge51C7fDn9wCh59+eA5z/v3QdtPeFrmapr9Wkp7DWk/prkr2wK4OZ39V77lYfsGXyp2Q+JW3Bzsfs5NYiUBK6AgvKwS8DxnCt6vOAdIoYx/D5pPjTwFBwkSDAaAy42UtxHXPb286CjpZUcl4zYJBRZrt2rQhXzIKjBIhMyn0ImaeKc/NwMVu283rf9B2T1KNwVXFkJ4IdnNTbBQi0myqOvd55/hHsyTdEP6A6FwGu+ei/CLxS+KdgG643pdHwORZlcBAPA4DfRUgJj2DJcjak1ksufUNZm6YQ1TLyZsi7lqEtnyUiMqqDiwnZ7x4TkQuer4sYzgYzdOwRTyzaMkVx/UuJ1LSxM2r0mN5Jv+zVxmIXqR/SGgsGfdPuF6fMLOfDu3MFUwh+27C9M94NTQ7bfUlGRX5yH6TguqLxLGU9LQU41g+Xa2Y9B1oumFO9Y1pt8XKAT99cnrb+r9AIoNoPn4llbNw4tRxKsPkmNhNaeIokAwfbS/swHOFUcn4+af4i9k0QChK8ltFIq2Lbkn63P0txHAYDCASn4ftuMrOJ3lCwVzU5q8FyJpaiNaCDiO+ntNHJGRjLZ8gKWV4R6tgHZHTct27evqhXSeAj4zGftAJb5hG0yg6jBpNnXSSojF3CpUfsxXORTg2RyFNNps9djXwMDK8wbh37JGHYamInxjggOwz8qm0DFq/Qli4mj12tthr0kOZL+OtExCU4Deoq7hvLK1OY6Q9QEpI1QSnj07c7/pdpncgxdtnmWK6zP1a/JtiYkCKEFfY5T+mjk2ZTQGY6xVzxoXXeFc4/uW+QzxL3Xo2dJnW3WpOgb0EdWI5iXv4/BsZKo2+cnk1pGxvVtADSHsxmytHxoAcZyrB6crps1t5fg2Jx8ttpU6pgxOMpF9BMRUd+ZO1/wVFRcGmL9Fzn/XlsMxzMWqosl9ooqnw92LgtjOAKCOKow/ft3SLyCdlzEoeqhqpiv0KtMlQl/50Hz9vqWT3Za9uwfDkvmXKLdwITRyX1K0P7BfcjP+C22v8XeUMZw1g401XoGkra/DZpib4PFQl4y7Hpe/MhHngLNUkIQeW8Sd4WAc9qSui7p6UIA0YUvIM9owa4SR39Zr6fDqyRE0afCvuednDzZS9lD9UD3d9yBFsCOfzkjhIBHIo8wZC/hqPeDp6BHyvWsga72EAJBw5TtoBbsgRMLkyPrygK008vNWuaKPItrGXdmwTUMi2DfrW8RV4C2558bJU4f1tDqWodDBJti92vzLCepreMkRpnzbdWnnOeS6/CieYjyxL4TA+/BCJqscWtfil2rWkYcxOLfwppLEWVLB15hlV1y7rScpF1QwvtPeIphRtH3lzwsQbHsdgaeQ0Ge/V64pNb2wQqFZxCv5/SJ2INAon5RslSqj7zlz/qnLFQ8Oxm0hHp6BAqfwyRgkqGcRi6QpvQ2eD/aAKfWJ4w/7Jeda6n+JCfT2zgTq/raP7PU3XW/DFLbT4EIfyZsa0CL94naLFWBL3eMz7h0EgseL1oa1/hmrmaVLSKY1jRTkilPpa2X8T6wUEYhU3242dIOZfyDWo2dMryFUM4nmse7i4rTeW/BXlK19B+Jmyc4c68/ljDhTI/Rfs00o3twUoAcqFyneCOB63qTnzhJSfe0yRham9SEoBOq8SZT8gvMNs/M1pECCmNI+EQkxhaLPK4j4I3W0ZhuyyzojEWMtHMVrDPXno6RzaRjM/MIJvpF62JgUWsfgLxByY8x9THqIo3/hhmqYSa/rc5wSpbTcXUK+lmMsKAxvoDjLFIQpWuOCBH0xDb6ETpQvw7yTQsT4rSRN9Rd2mFLwZ/DFpmJ4MUql4rD6ybe3cCDl5HagDjARRI8NT5ng3id69xjhrOgSTDoXCdwQ12muMIFYmLC55gnHXWxGVRXtV/Fnh0mJitAtTkM+KS2pQPAQL3ET66n9ZxEOUAGxnQIq0xZbjgNoIm3KaMyHHe3fCUl5qP1EKkxoiGxPplKrhBiey6+OuvVsYiB68K7CdgzNF20we+1bOhovQjMDC7YB1/X2sl+huPy6UrM1thmF3wEqs3pedPtTQHEQw/XF+bdIRBSRQagPBjWS2twryP1sgrJO1/5mWmCkcIX7N8vYo1frU0KpL06FxUzEWtAAlWcGUSpDWo62xiPE4/IXeU7R/DWRi5mWoNfr/TBO5K4emQmt2q8+LbLNDD952ozVYFcpoVy4Ei9PdRLQcPf2rTw9se3gqU5a09wsnc7sPXu/+vf3YfHuk2qy4e+h2kYmJsA7sw+X1tPqHESfnUB3fCyRryyrReX1EdcTDVSmON/Pdm0E5oaUfRDdC+lgsm/o0Of+Uayd3EmFmwB2iKOFTfOm+WO2GZHyuManeLYqvfltotwH4xEMid+POeyJd257OJMD8mv7Ej+E+won/zEhf8IVEKZUqTqc4ha7z5GDZBX09pzxaoy/VU8SzrBUnudQ5wz4p0IDHKA2Ps+MStOdVUgCvPl0/dT7dBRRPmokx8G4Nnz1/RCoAv+8XoPd/P6H3rh1pHcWa9cG2kR0tq5vLKRp1xQBnrmvMSZXF52ATWGuMjC0lhxfDXtZZ3gL0EouIVK0K64F/OIBcF2tDazN+CvEVdbTULKhziCXridKvocUkYqGNeH8isMv70AndgnHYgr2IA02t0pjMpEt7ODRvlbaxwx74hwMKyovUsFX8U7arsVldafUd0zxA+oedlHIHJj1VWWwe0EOo2nFbSQ+1RSlE7pLv/DmI2p1jgyYxC9M223Oz9B9uvgZ9p7nImwFTen/OPxhwhmZhqV6vl8SuN24H/yvY8/sRlb0ta/7a76siKBTUQiB5luZ2U7bpo0T2qbKWsIMGjjS5zKohYVWwBlL44U/BdI6KWOa8+jc97kaKY+DWZUrFiiaZMVnde22gHMIknI7iRYGrjt4p+J7OCiX8E22VRRPUZGxoHwUCX58gACpBJWhjZsnacZfUedzvGfn07G4jfNSUU4P5LOygd06cvmoAbgy+CbIs2G3EKta0DiCj3d58OeIOOOquj+4RWdn5O+KsI9EasHTOYB4dEn0C7ll3RagkUo9ip+TLiQHU6whbuL1H+AU4+o67ftLnb146HbLxsuRYHMWuItUGQIoJUgfZuotVrIgmkCBgEewnuzcxFVZxEzmpc9SJWdZyMAeMi3tfdTCYZIN8c/Y8eEmHgEaC7w7gtZ4pLZeyK03Usj5tIBDBx/nyyg3B3xclMg5njpr9GXQQp3YKeoFAyZQOzRRRqIyRXx4Me9gfA1x0v4jp3Y+iOLL2c9wU11ctsKp/DCP5qSPTcUz7FACtZ7NLuFOeD63041T3nGMz12fZY1CViItJ0JPNNa5JNr+qYTng7GBVnSyg6+tmF8M8fYi1T/L6di3GdfEDJN2TC4k3z1cT8G6eOOyPRpq+tRVACCeLxt/nosbuEWh7G57B4YgrO7EVVXQotg4+jCGtiQwAzFfZT/9aOO7SA8kzfd12SpvSc5gbaTb+aYEOlMx33ZoUBsGBuv5+HiP7PDjSr/M6J/Aod2P8ycz320fFu43wXO0yCFnZclPhjaa2o1jRbcEYgcNxnBbySLKwjajQERBxsxHHBklurohu93/9o+6x0BByUstNGHD4LmfErCWeJ9UZOj6MU2Z7ToIq/GTcvGpBh3EGumwdOkre5N7EFGSi/YRYXw6oCIoUuhBRItlYdbs6yNKpmEae0dnPALIf6+0L46o/4+sWZvV3fDJDwMOVmSI3sYGHbVSSRnI0bb7FQ028rxtaBssC6hdNBZ1yhm/Y2cEqbpD4+gjXT/f4KAVYKpnfdGmzDZOZpU16KwR7c+adwOVfyeJxZrVQjz65e5DKcegyMDw129+LH1+WBTHt2cbjoZ724Dy0kaFawdsyWuQSLssWkCJue9AWJ2paM0iD+pG9qJ3kPAiCnp59E1g6RyX/iElpNsDvH7qiren/2EVrZCNBfGQgxSanfmVCBLZ8lFVzRh5jzBoCK7cmM8WTHfSeLuW56jthI44n+/CpClnbDbfpD/QumqADr7GDPXmTMeMuqFPacBfN7j/X596mgQ6j2hAaIGZYyu0eKNr9hjqT+HSqTsVfQ7+JYRAAAK1A7r1cHxqJEWEoY83ytbGkouj+TFbCAvjLor937Ge5L6SUBg+6S2bD0grEXUEgRLLTfvUZzAWGc0N00VQzvmFGZlqNeatPC5H3QR/oOVXjbn45+RCO03Gq1pE0ei8lHokzDPbd7NYNnjnbnaX6vAwDnGw4PLkB8RD4rqjRDgC1QwMFJAABQKJ3CCPLAAAAABgnRqY0xOPEVgwKP5fNTV/ezfBbb7lI3VyAAARVhJRkQAAABNTQAqAAAACAABh2kABAAAAAEAAAAaAAAAAAADoAEAAwAAAAEAAQAAoAIABAAAAAEAAANZoAMABAAAAAEAAAFqAAAAAA==;" parent="1" vertex="1">
          <mxGeometry x="-50.00000000000005" y="1749.6299999999999" width="427" height="180.37" as="geometry" />
        </mxCell>
        <mxCell id="25X_njBewesHGOsOMjHS-81" value="" style="edgeStyle=none;shape=connector;rounded=0;sketch=1;orthogonalLoop=1;jettySize=auto;html=1;labelBackgroundColor=default;strokeColor=default;fontFamily=Helvetica;fontSize=12;fontColor=default;endArrow=classic;" parent="1" source="25X_njBewesHGOsOMjHS-78" target="25X_njBewesHGOsOMjHS-80" edge="1">
          <mxGeometry relative="1" as="geometry" />
        </mxCell>
        <mxCell id="25X_njBewesHGOsOMjHS-78" value="父子进程之间共享内存，但是只读" style="rounded=0;whiteSpace=wrap;html=1;comic=1;fillColor=#b0e3e6;strokeColor=#0e8088;fontFamily=Helvetica;fontSize=12;fontColor=default;" parent="1" vertex="1">
          <mxGeometry x="-488.09000000000003" y="1762.13" width="146.5" height="30" as="geometry" />
        </mxCell>
        <mxCell id="25X_njBewesHGOsOMjHS-80" value="父子进程任意一方修改了共享内存，会发生写时复制" style="rounded=0;whiteSpace=wrap;html=1;comic=1;fillColor=#b0e3e6;strokeColor=#0e8088;fontFamily=Helvetica;fontSize=12;fontColor=default;" parent="1" vertex="1">
          <mxGeometry x="-487.00000000000006" y="1828.78" width="146.5" height="30" as="geometry" />
        </mxCell>
        <mxCell id="rkg9Pep6N8VOkwFGjG1r-10" style="edgeStyle=orthogonalEdgeStyle;shape=connector;rounded=0;sketch=1;orthogonalLoop=1;jettySize=auto;html=1;exitX=1;exitY=0.5;exitDx=0;exitDy=0;entryX=0;entryY=0.75;entryDx=0;entryDy=0;labelBackgroundColor=default;strokeColor=default;fontFamily=Helvetica;fontSize=12;fontColor=default;endArrow=classic;curved=1;" edge="1" parent="1" source="rkg9Pep6N8VOkwFGjG1r-1" target="25X_njBewesHGOsOMjHS-29">
          <mxGeometry relative="1" as="geometry" />
        </mxCell>
        <mxCell id="rkg9Pep6N8VOkwFGjG1r-1" value="在AOF重写过程中进行" style="rounded=0;whiteSpace=wrap;html=1;comic=1;fillColor=#dae8fc;strokeColor=#6c8ebf;" vertex="1" parent="1">
          <mxGeometry x="-827" y="2380" width="146.5" height="30" as="geometry" />
        </mxCell>
        <mxCell id="rkg9Pep6N8VOkwFGjG1r-7" value="" style="shape=image;verticalLabelPosition=bottom;labelBackgroundColor=default;verticalAlign=top;aspect=fixed;imageAspect=0;image=data:image/webp,UklGRngTAABXRUJQVlA4IGwTAADwaACdASpFAWQBPpFInEulpCMhohhKILASCWlu4XVRAbbrMz7V+JfbP/cfxh86/xv6T+3fjf8gd9vrf1Hflv2D+8fmh/d/pn+zf4n8r/RPu3fAF+U/y3+4/mF/ePUh/e/wl8EGy/oBe23y7/N/3P9yfhC+E/1noL9gPYB/mn9G/1/rh/yfCE+yf8D2AP5R/cf+77Rf9b/z/8v+P3uD+lf+5/pPgL/n39T/5H+E7V/o5fucNyK/9ZirnDUcp+b7/MVm9iB/3n7Cz2PTcnynrRpJOEs6OPjJOVUlBo5+Sd3dJRIT7JpiUya/TTJWMyMujprQ0m0mxXKk++uXVleuTCU21OPxoklCz74PQJmKlQngPAh2ee0HSeXCfxuZ0FnwSg6QtkxcxiSU5e1o7fOcU3Xh6L4eYq3a5DmP9jsKQfAAtdKkVgnng9JMioP4PDbaDUHqj2kFUxe4lIpbQaOfknd0lEhPsm8FhK/ClA0HmKUFqG30uHZUby+A+qWprbAytvm9AAMHAtAWQMU7aU51hOdJJrCV0+K2z8faQ5+Sd3d3SU320NKopOEs6STVzdnCks+0hsybd0f/8wmZUlxWHjVGWkZfbR1MjpJc4JlpRTp/nr1lHYcnSU311PbrJv3zTiL0alKBn3hu+mLL1ga6T/QyvQfP/6EwAcGuMJaBdkf6bT49wLbg9yHOY6Yvk+ti0va1p71ogykhZxAnOkk1hK5fKeNzm6fFbaDRz8k7n3VjsOTm2mH+F4W5Pd2AAMHCkxNz9LU1tgZVQDJHiX0NJz7y/DU4zM58rJcIwhPSAmPLHGgCJvlBXe8SMrRyKB9NJD1AWar6iiWz1DrCXfw6dl+KY6VVnYeiy5Vj+SsmqsMoe5MBRuXFW8+ryx6CZMqB2l0zxiV3QhAmg7uhy1JxjCStQUt8PmpTyRLDiCfjhXCi7jSO/W2FY5Nzfwdd0IbALRSJmXYkyPRb3t9QoAM8Qf+htdYAAJviRIF5gzTVu/PuqtALpwh4hckLEDFX8wgURCd/+lAVSkOWQZ3knh7Esp8hfShDvRCwZQ8fBa+DZujasPlJ4Bt3qhoueOHlugpqCXnjiB+zWDL+c7q/0TQpy9+BaRsIczgBcIaDvleC7AIxAAD+/6NNOX0gn76sQYIfWT2f8KBrPyPnKtSLNqWOo6ZcRDx0PhMUhGScQq06jmQ37cnlE0hIf+WpCQ/8tSEh/4lOTu3J4zYrWqSsHXhMXTG1zfO7t0OGvzd66uoAA+BeHBlpds7lEnBOBP1os2/ftvcofM6cll6AWF4UbuoCxmC6MFANmZkdgg/e7Gi0FO7eDfrCzryGBLKmd4WGbs37mVkQWv9Sgz8CMJtVOgPVvJuq+45USmBMl1KbCLXIxvf3ZAatHQl9PSDTFeEcMNkQU74hlfY46GeSRFYgIaPjLvaFrwWVV94KJyoow9cb1pv4aF2owxSPsQ0sHnD1r30waoD71SfCTO4aQc9rhgP2NqxOU9onvPOdJ+lcu4Cnx2VmODg6/LXk9sKkiGBywDeH5r26yQqjRpHnj5JmVg26jI3Vrjqy2p21qJr5hIFF8GyQJQ8BUbogCEs8ybYH+Vcikza9roLoznPQdO4iZVVUVpWDlpldtyxJilkT9kcSOIJ7+EBirzghiAGFhKCo1L9tuud0BmvdLpwcATHGGjIim3Pz2AGQAa74iwV6uvd1g7/WALW+OfT7AZow3msESqV2oes7tnmdpmWA3zOQcJlNfSZGYJZHAb43vCDXD+oioMpPKE6ZF6DuN/E4AUSrztOKFhhNhpdKCcxjOmXdnfWMmDtJwKtYTMW565RVI8zUSv2HXdDDbRtY22CmUq/IXlsaijxCkqu3LYpoFtIdgZp6dtmSCXQLm9yLW7YuOB3wNFRYnn/zdQzgZy4YMrH/gHDgRUFL20/NoNhBOW10vTxg6xLmkQ/QHAmyOOIc5w/kRl/Z84cMJQjyFOG6q7KA/Wk0KGQChILqO3jyd2FF3kzWxKyM67cWZqTvFkbo8qIHZIR8Bl3LeN/vqpJmLPB4OlJ8SWKTCJjluguneS6dz6u0pQwvH6vlwl2ZLm3lueH1ByMrbY5ppt1AhBFBWQHxchQ36XjgLQqtaRFnblLERqfP68mm4k+W4Tdy8ABpm4tQbk+7/IiRq5rLHuK9gkhFgf/qwGKBpYyDWBEVT+lqTBmCDHk5OCIwPDqRRch19QEmPx9V/ap06nY1214qtqXQQ+AJ0tthTtAuplImeW7cI7QdNJPegpZrAdb+pYhhJy7U7y44W2CIjDB5D9OKzGUfrhzdvTXs8vt6junex4J+SfleEkwaECE6HS6FMeYcj7GQ36LUmNZLMsyYwhwGE7tFQVImZ8p3IGRD9C82FkGY8A3LxDygBlHCxCCxzAC5gPOTYyYIKY16ujJy61MK27aZ2cILr4TypB9KEASvB9lDQRz/sAZhgjlL/AffnolDYq+4CgYwfgT9wP/WKPSaFh5LvswH72B6AL2NjRz7tqOwyXbtxxAcPVYIuiqIMPd6IXPzZi2Ozv4hjldoResy7KTEhW7/KLu//08j7Zw64AiqbMu5aW2YCgUOMSBz6IwnSjRaSzJshlz+YcykCD6uTv15C3OrKfYLDoHi7cgbWUgYy1Ib5PtRY2eG3dLDZWNutt0Vs/JHlfN/ire20RYBxuOCXbBfssEHEYOgd4cneDFp+Yfie8Vw7M8ovYbGWIIs1VjUPkp/oael10ZEevM+5eEiyg5zQuOHj45EKzncioTcdMdzIVzkIl1EB3z/+sh5gm8MkXZH+qOWrAKBK29L4G5MdZPm4I2eWQoEfpMW/zwsAWXN2iLBunJ7F7OIdyXRR4YdAhBxOqbJWsL7GYhU2aLJ9wLVZWvl9fkY+wX5vX26xWadgCNscomeNGc4MaYKxFzFBhOEie1km6nNs7gcVe++ED5ziE1ZmTETmSmWk7k1QvXc/hZGh2z8kagqpAU2jo1INySkHJI303eW1R8bJpp331gimrgci60UWsu2XtlrPmOEbk9Dlk8FqJ9JNLnsVT5Bb3z1MwOjOERjrpKByQR5iNwxpXlfCfVklr+8HFAQoLhDZ4rIjXMpuuBs9HMhpkojOwdpKV5l4hMGHj6x0XlLBDXSsbMC3huGzQN6QQGF11PbjAJXnDOBjRx2wYJUSMkGMOARqodxHGqeEOfStncmdTKFG7Mu00mMvdPVrXfqjuHpkbCPZrMMQ22F4FUeLV3dPy0bkGkRj6hw9PeBoU6Q/ndpJHNjv6oXgi6ed2sAvCBpIYFarzI46RXRblNxV1HOXFHClEm9jl1nej+QKQFRWz+SIp3xm0PotrrpS8Edl7H/Rm9vMdnuJYADwRJi7/a9D5HhMSEZ5x7TVATZNqVRQJgHaCuN9LdaKnNHpt2JWOVvNPF38fogaOw0dVth0BxlaHvnIRBqqkCazFdcwubNFXr7pGg+z35rR2AI9msGnptNKtpXyvj0srMQZu0n71a23ioOoGtK61SpcvUiAJSlz+O3VhKvf7of5hS2XPVkecZ8hCi0T0ABiFtYTU3TjAZZNcdeVhBBmFrqkC3pyBYIDsnfFSArG7xDaxmZjGVW8IGV5uj30c1OUoA+kz9LGoeEcPkDr51KkVqiH3EMp12P+2jl2TPC0Si6yAAAAAYGItaK+lWnY5d+NJl5iQj2lVH5TK6FjXvO1DHO6i3emsfQMSgrT+deRl7/v9cyD89NCayYjEGFXXowrvf97Ju3ewgF86fAg3N5nQLcF9qaQk+nCrY10iohqYiO0nro5vpQ8thA6SscyV95n1DskdQisZrET9EEOluaLn/Ci/ImtYhJ1L5U8CUonPIPsaRZgfq2xZBKJbvFfqHBK+e2eZhMVuvQpmry9fK68ttJ+8/XcAewBoBiNqiaMUnPoVC/N+kzT7Nw7JQD9LEzm5KDiEnDKLRzEe553xcTPdm+EH1anG/1VyhP3ZtR0cnzRja8C9seQzo2Br1V5WDHKqgUfZ1jBCWUqtsylxEBnLV/UyGx2B4d6MDHoyNpAqD1r2ylKV6Pbkl06PW8hhWebIP3IPEHAJZEKdiqbM288Jgcz3tw4sgtG5QYLTWw1kTc9EtiUlekVGqTse5mVIFLEONBKKKfweGY1bYbvjbV8D1QEVGyeFZw4cyBzNcU1Ed9QDPaWKgiL36DYrR3XeVLp8yxeNHY2Xk7deJLDXI9fY03yCAU11SBpdS6iR3MyhuYcs4m/aE8ZY6Fq76+AKdokZUK7laCptvaLn02TfsJwujXG6DywNhJlnsi731dYE9rbTR9ifVX+llOrlgH7U42YhaHz7xBqWed1vhv9QGV79VuFfbpIvexs8al4u+FPaphWxPda6x4vJuBjJ3jnCDZUusiQtLf4mYT46MFxu8aqhs6EEHeULTMP65xzWA/c7mPi2ve2AQyldF9CYW611lA9Rf4p8vCPcb6HSS+CkXdFXZDDTjVO2FyMHjzb5w6wPjDBvN1m7LT67BWN5miqgBcUm1378OILm+EeWN510v1FPkKXPSa27zI/uZuunDDsMAhq9L9ISre++e7fQaHnYgRFopDDPzmV/Azs5risXyI3juFawtdA+diAzqfugCpXmczW7l+dActa5jNfvRvyrQjvEx+LQoSVOqooRaGMfos/c+2W4d4pCSKT39Pj/BAI79pKgTndEWH6v1Eh40d6YZU+/ieNnSRdMe+WwznWfxfi1DaubBLiaX+HM0FwP4Id0b/X4q0C1By1wlXq4f26xr4jPhw8QnSaiX91UhvMg74aqh7qpI6coBaShda+x0kTSulxTn9A4ywbPpkLNLreIfyljuNu1vLHiAorWJO2AtsGXgloR2/qaawvCgNpOfMZXOri1uI5c5b7oaaufoFseVvQj+LCH7dfrAL22ZNt9Q2x11DXi0RJaqvmgHeHtC/kKKFpBMwKl1m129u1ABPxmHq4abrOVlr+Y7srBrDBUiMq/RbQ+y/F4WX333n0hs2BPAadDHIcpShhmy7EIQ8XXurtF9vA/XqZhiRppbOJMX6cIV/wJ7pskZjGR/vuH1GG4jmJa4IMVRZykWOAxsoSDVg4H64t3bvZCTIkYQeWq/iTnj298MqrcRBf3Fdbyf7TK0HnaQ5Sdim8F46TZTwSBzpobS5g6n41Tg76i+5W9Tu7BJ+nMOatBwxEbEwl1MvplDm6vN3gP03Vx6O0p7UHPiCh7s8nnM1N6lgegBvvyDt7vZzMW6YOwcoINWJxFkFWTtOIE6hYzOh0Z9yQYNuQrZD7DfTDdwvQ9SArrazJLGGh+UV6meq56W6goHsGXOQVvCuLxCAT69L+dtSL9Rt81SoLiRJxv/M2tiUcS73K3g7Jz2Uw/BGZSgIirzHkaK85N+6M0kj3zqM10d/CDG57a0Dgh32DKnCY8kZuTl3dzMvQZGEodPgge0wpUV8aGvBXKjuqOtxexprLb91x2ClpoBU8soJ0hij73lpHveYdL/Vliu1adpa3uMfyqMVbtIdk2856QBbOiLFw8fNoxku08nSdPwsLmbKWUXb2CC7Gp2fw9lSMtBYRei4Qb3S39aYqQ7xleEr3PMxFEf1PPWcK1jaBzZkw3Xd416Aemg2ymBd6tzV2vpkXiSw2vCealq2x49rLtVwjjeVDaiTyaQm6qk24xMTmNYtx24UTnPUEY71x67O+AD2tan+eoGhCOjXXrXv5GCv7eXuidTHjX7yJvM9HkKjI4/1Z0Fnd7seScb1ZjzAkqh8/FOSlTl/yokZ0jdpuNX6o1g+NVVlygsDi0/XBtfqthiKk/PgH2I6Hy9lhFpGLtfOzi6egOGpHCJJeMsu3GwpIphsLEOHFV+SPVIEwqTUc8BV3GB7xnVxkuExwuVevNR7NB6KkqhqZZiT3LGENjCsIn32O+dKftNxTNeNAoDjPes7h+eIIultNZ1LpQO7T/+mZ9KHWbNojrIlalF+jUoFxnJv4e4pF+XM3QgcFhwB6eHdLudP9kr0RguHzL7wTCDW5/vzZXr9ikd8MezDVobSsL5//jJdvV5FW7bkKAs1/R0XSBd/Z7mNx+ZJz/vIQBit6f6UtzoGKtwT88CKxsANSqgcIp9/nuEvaetmXi5tq2y/g6M0vEFrh5LiDEeiWdmqtKslC3dMKPvl4LmKy5XeZLLMtZDh90TVqaSaO0R+qjLH+eJoihoF7MpXbDhVge6m2m7yCtSGWeOr1zLmbFD+V4Nc1hinBuJICUnKdbWbCQx8LtLyX1LNDqNtTQj8ObahjWQ2VtET8Nh4D3Zt3U8tXW8+al6/iWBBEeDJjxY96cl6Nivb6d7XL1UH+mRLqXlsw9wj2/IId1E/C9A1cfDmiMEHF5MlkE/VRsLcW1moR5Cs6dnJQOLv+Tlyagyu71kGDB4CSD4+6vR32YXJjWapXc9v7I/XPY7Up3VVe/syWOzlscvZjBY1X7qKekN3Evxdjx0LOMUW0ElzxzZ/s0dJD/td5uVs4s9om7ouEUH/0dOY+wd3eql8qsXePsBkETeP/E2HPzpXHxwRXIjsKrho4KNwaqSJjxDBbJvBZq3Hx6HDnQsqy92EnO1H+EhK6/DSW2qbGHiPYavkKPIWEunUkATJ/vjdF9W2yRy7zM351YPAAAAA;" vertex="1" parent="1">
          <mxGeometry x="-240" y="2307" width="169.8" height="186" as="geometry" />
        </mxCell>
        <mxCell id="rkg9Pep6N8VOkwFGjG1r-9" style="edgeStyle=orthogonalEdgeStyle;shape=connector;rounded=0;sketch=1;orthogonalLoop=1;jettySize=auto;html=1;exitX=0.5;exitY=0;exitDx=0;exitDy=0;labelBackgroundColor=default;strokeColor=default;fontFamily=Helvetica;fontSize=12;fontColor=default;endArrow=classic;curved=1;" edge="1" parent="1" source="25X_njBewesHGOsOMjHS-46" target="rkg9Pep6N8VOkwFGjG1r-7">
          <mxGeometry relative="1" as="geometry">
            <Array as="points">
              <mxPoint x="500" y="2180" />
            </Array>
          </mxGeometry>
        </mxCell>
        <mxCell id="rkg9Pep6N8VOkwFGjG1r-18" style="edgeStyle=orthogonalEdgeStyle;shape=connector;curved=1;rounded=0;sketch=1;orthogonalLoop=1;jettySize=auto;html=1;exitX=1;exitY=0.5;exitDx=0;exitDy=0;labelBackgroundColor=default;strokeColor=default;fontFamily=Helvetica;fontSize=12;fontColor=default;endArrow=classic;" edge="1" parent="1" source="rkg9Pep6N8VOkwFGjG1r-11" target="25X_njBewesHGOsOMjHS-29">
          <mxGeometry relative="1" as="geometry" />
        </mxCell>
        <mxCell id="rkg9Pep6N8VOkwFGjG1r-19" value="会很快导致" style="edgeLabel;html=1;align=center;verticalAlign=middle;resizable=0;points=[];fontSize=12;fontFamily=Helvetica;fontColor=default;" vertex="1" connectable="0" parent="rkg9Pep6N8VOkwFGjG1r-18">
          <mxGeometry x="-0.2761" y="17" relative="1" as="geometry">
            <mxPoint as="offset" />
          </mxGeometry>
        </mxCell>
        <mxCell id="rkg9Pep6N8VOkwFGjG1r-21" style="edgeStyle=orthogonalEdgeStyle;shape=connector;curved=1;rounded=0;sketch=1;orthogonalLoop=1;jettySize=auto;html=1;exitX=0.5;exitY=1;exitDx=0;exitDy=0;entryX=0.5;entryY=0;entryDx=0;entryDy=0;labelBackgroundColor=default;strokeColor=default;fontFamily=Helvetica;fontSize=12;fontColor=default;endArrow=classic;" edge="1" parent="1" source="rkg9Pep6N8VOkwFGjG1r-11" target="rkg9Pep6N8VOkwFGjG1r-15">
          <mxGeometry relative="1" as="geometry" />
        </mxCell>
        <mxCell id="rkg9Pep6N8VOkwFGjG1r-11" value="大key对AOF日志的影响" style="rounded=0;whiteSpace=wrap;html=1;comic=1;fillColor=#ffe6cc;strokeColor=#d79b00;fontFamily=Helvetica;fontSize=12;fontColor=default;" vertex="1" parent="1">
          <mxGeometry x="-850" y="2010" width="130" height="40" as="geometry" />
        </mxCell>
        <mxCell id="rkg9Pep6N8VOkwFGjG1r-15" value="" style="shape=image;verticalLabelPosition=bottom;labelBackgroundColor=default;verticalAlign=top;aspect=fixed;imageAspect=0;image=data:image/webp,UklGRgI4AABXRUJQVlA4WAoAAAAoAAAADgIAhgIASUNDUPgPAAAAAA/4YXBwbAIQAABtbnRyUkdCIFhZWiAH5gAGABMAEwAnACVhY3NwQVBQTAAAAABBUFBMAAAAAAAAAAAAAAAAAAAAAAAA9tYAAQAAAADTLWFwcGwAAAAAAAAAAAAAAAAAAAAAAAAAAAAAAAAAAAAAAAAAAAAAAAAAAAAAAAAAAAAAABJkZXNjAAABXAAAAGJkc2NtAAABwAAABJxjcHJ0AAAGXAAAACN3dHB0AAAGgAAAABRyWFlaAAAGlAAAABRnWFlaAAAGqAAAABRiWFlaAAAGvAAAABRyVFJDAAAG0AAACAxhYXJnAAAO3AAAACB2Y2d0AAAO/AAAADBuZGluAAAPLAAAAD5jaGFkAAAPbAAAACxtbW9kAAAPmAAAACh2Y2dwAAAPwAAAADhiVFJDAAAG0AAACAxnVFJDAAAG0AAACAxhYWJnAAAO3AAAACBhYWdnAAAO3AAAACBkZXNjAAAAAAAAAAhEaXNwbGF5AAAAAAAAAAAAAAAAAAAAAAAAAAAAAAAAAAAAAAAAAAAAAAAAAAAAAAAAAAAAAAAAAAAAAAAAAAAAAAAAAAAAAAAAAAAAAAAAAAAAAAAAAAAAbWx1YwAAAAAAAAAmAAAADGhySFIAAAAUAAAB2GtvS1IAAAAMAAAB7G5iTk8AAAASAAAB+GlkAAAAAAASAAACCmh1SFUAAAAUAAACHGNzQ1oAAAAWAAACMGRhREsAAAAcAAACRm5sTkwAAAAWAAACYmZpRkkAAAAQAAACeGl0SVQAAAAYAAACiGVzRVMAAAAWAAACoHJvUk8AAAASAAACtmZyQ0EAAAAWAAACyGFyAAAAAAAUAAAC3nVrVUEAAAAcAAAC8mhlSUwAAAAWAAADDnpoVFcAAAAKAAADJHZpVk4AAAAOAAADLnNrU0sAAAAWAAADPHpoQ04AAAAKAAADJHJ1UlUAAAAkAAADUmVuR0IAAAAUAAADdmZyRlIAAAAWAAADim1zAAAAAAASAAADoGhpSU4AAAASAAADsnRoVEgAAAAMAAADxGNhRVMAAAAYAAAD0GVuQVUAAAAUAAADdmVzWEwAAAASAAACtmRlREUAAAAQAAAD6GVuVVMAAAASAAAD+HB0QlIAAAAYAAAECnBsUEwAAAASAAAEImVsR1IAAAAiAAAENHN2U0UAAAAQAAAEVnRyVFIAAAAUAAAEZnB0UFQAAAAWAAAEemphSlAAAAAMAAAEkABMAEMARAAgAHUAIABiAG8AagBpzuy37AAgAEwAQwBEAEYAYQByAGcAZQAtAEwAQwBEAEwAQwBEACAAVwBhAHIAbgBhAFMAegDtAG4AZQBzACAATABDAEQAQgBhAHIAZQB2AG4A/QAgAEwAQwBEAEwAQwBEAC0AZgBhAHIAdgBlAHMAawDmAHIAbQBLAGwAZQB1AHIAZQBuAC0ATABDAEQAVgDkAHIAaQAtAEwAQwBEAEwAQwBEACAAYQAgAGMAbwBsAG8AcgBpAEwAQwBEACAAYQAgAGMAbwBsAG8AcgBMAEMARAAgAGMAbwBsAG8AcgBBAEMATAAgAGMAbwB1AGwAZQB1AHIgDwBMAEMARAAgBkUGRAZIBkYGKQQaBD4EOwRMBD4EQAQ+BDIEOAQ5ACAATABDAEQgDwBMAEMARAAgBeYF0QXiBdUF4AXZX2mCcgBMAEMARABMAEMARAAgAE0A4AB1AEYAYQByAGUAYgBuAP0AIABMAEMARAQmBDIENQRCBD0EPgQ5ACAEFgQaAC0ENAQ4BEEEPwQ7BDUEOQBDAG8AbABvAHUAcgAgAEwAQwBEAEwAQwBEACAAYwBvAHUAbABlAHUAcgBXAGEAcgBuAGEAIABMAEMARAkwCQIJFwlACSgAIABMAEMARABMAEMARAAgDioONQBMAEMARAAgAGUAbgAgAGMAbwBsAG8AcgBGAGEAcgBiAC0ATABDAEQAQwBvAGwAbwByACAATABDAEQATABDAEQAIABDAG8AbABvAHIAaQBkAG8ASwBvAGwAbwByACAATABDAEQDiAOzA8cDwQPJA7wDtwAgA78DuAPMA70DtwAgAEwAQwBEAEYA5AByAGcALQBMAEMARABSAGUAbgBrAGwAaQAgAEwAQwBEAEwAQwBEACAAYQAgAGMAbwByAGUAczCrMOkw/ABMAEMARHRleHQAAAAAQ29weXJpZ2h0IEFwcGxlIEluYy4sIDIwMjIAAFhZWiAAAAAAAADzFgABAAAAARbKWFlaIAAAAAAAAIMKAAA9bv///7xYWVogAAAAAAAAS/oAALQhAAAK4FhZWiAAAAAAAAAn0gAADnAAAMiRY3VydgAAAAAAAAQAAAAABQAKAA8AFAAZAB4AIwAoAC0AMgA2ADsAQABFAEoATwBUAFkAXgBjAGgAbQByAHcAfACBAIYAiwCQAJUAmgCfAKMAqACtALIAtwC8AMEAxgDLANAA1QDbAOAA5QDrAPAA9gD7AQEBBwENARMBGQEfASUBKwEyATgBPgFFAUwBUgFZAWABZwFuAXUBfAGDAYsBkgGaAaEBqQGxAbkBwQHJAdEB2QHhAekB8gH6AgMCDAIUAh0CJgIvAjgCQQJLAlQCXQJnAnECegKEAo4CmAKiAqwCtgLBAssC1QLgAusC9QMAAwsDFgMhAy0DOANDA08DWgNmA3IDfgOKA5YDogOuA7oDxwPTA+AD7AP5BAYEEwQgBC0EOwRIBFUEYwRxBH4EjASaBKgEtgTEBNME4QTwBP4FDQUcBSsFOgVJBVgFZwV3BYYFlgWmBbUFxQXVBeUF9gYGBhYGJwY3BkgGWQZqBnsGjAadBq8GwAbRBuMG9QcHBxkHKwc9B08HYQd0B4YHmQesB78H0gflB/gICwgfCDIIRghaCG4IggiWCKoIvgjSCOcI+wkQCSUJOglPCWQJeQmPCaQJugnPCeUJ+woRCicKPQpUCmoKgQqYCq4KxQrcCvMLCwsiCzkLUQtpC4ALmAuwC8gL4Qv5DBIMKgxDDFwMdQyODKcMwAzZDPMNDQ0mDUANWg10DY4NqQ3DDd4N+A4TDi4OSQ5kDn8Omw62DtIO7g8JDyUPQQ9eD3oPlg+zD88P7BAJECYQQxBhEH4QmxC5ENcQ9RETETERTxFtEYwRqhHJEegSBxImEkUSZBKEEqMSwxLjEwMTIxNDE2MTgxOkE8UT5RQGFCcUSRRqFIsUrRTOFPAVEhU0FVYVeBWbFb0V4BYDFiYWSRZsFo8WshbWFvoXHRdBF2UXiReuF9IX9xgbGEAYZRiKGK8Y1Rj6GSAZRRlrGZEZtxndGgQaKhpRGncanhrFGuwbFBs7G2MbihuyG9ocAhwqHFIcexyjHMwc9R0eHUcdcB2ZHcMd7B4WHkAeah6UHr4e6R8THz4faR+UH78f6iAVIEEgbCCYIMQg8CEcIUghdSGhIc4h+yInIlUigiKvIt0jCiM4I2YjlCPCI/AkHyRNJHwkqyTaJQklOCVoJZclxyX3JicmVyaHJrcm6CcYJ0kneierJ9woDSg/KHEooijUKQYpOClrKZ0p0CoCKjUqaCqbKs8rAis2K2krnSvRLAUsOSxuLKIs1y0MLUEtdi2rLeEuFi5MLoIuty7uLyQvWi+RL8cv/jA1MGwwpDDbMRIxSjGCMbox8jIqMmMymzLUMw0zRjN/M7gz8TQrNGU0njTYNRM1TTWHNcI1/TY3NnI2rjbpNyQ3YDecN9c4FDhQOIw4yDkFOUI5fzm8Ofk6Njp0OrI67zstO2s7qjvoPCc8ZTykPOM9Ij1hPaE94D4gPmA+oD7gPyE/YT+iP+JAI0BkQKZA50EpQWpBrEHuQjBCckK1QvdDOkN9Q8BEA0RHRIpEzkUSRVVFmkXeRiJGZ0arRvBHNUd7R8BIBUhLSJFI10kdSWNJqUnwSjdKfUrESwxLU0uaS+JMKkxyTLpNAk1KTZNN3E4lTm5Ot08AT0lPk0/dUCdQcVC7UQZRUFGbUeZSMVJ8UsdTE1NfU6pT9lRCVI9U21UoVXVVwlYPVlxWqVb3V0RXklfgWC9YfVjLWRpZaVm4WgdaVlqmWvVbRVuVW+VcNVyGXNZdJ114XcleGl5sXr1fD19hX7NgBWBXYKpg/GFPYaJh9WJJYpxi8GNDY5dj62RAZJRk6WU9ZZJl52Y9ZpJm6Gc9Z5Nn6Wg/aJZo7GlDaZpp8WpIap9q92tPa6dr/2xXbK9tCG1gbbluEm5rbsRvHm94b9FwK3CGcOBxOnGVcfByS3KmcwFzXXO4dBR0cHTMdSh1hXXhdj52m3b4d1Z3s3gReG54zHkqeYl553pGeqV7BHtje8J8IXyBfOF9QX2hfgF+Yn7CfyN/hH/lgEeAqIEKgWuBzYIwgpKC9INXg7qEHYSAhOOFR4Wrhg6GcobXhzuHn4gEiGmIzokziZmJ/opkisqLMIuWi/yMY4zKjTGNmI3/jmaOzo82j56QBpBukNaRP5GokhGSepLjk02TtpQglIqU9JVflcmWNJaflwqXdZfgmEyYuJkkmZCZ/JpomtWbQpuvnByciZz3nWSd0p5Anq6fHZ+Ln/qgaaDYoUehtqImopajBqN2o+akVqTHpTilqaYapoum/adup+CoUqjEqTepqaocqo+rAqt1q+msXKzQrUStuK4trqGvFq+LsACwdbDqsWCx1rJLssKzOLOutCW0nLUTtYq2AbZ5tvC3aLfguFm40blKucK6O7q1uy67p7whvJu9Fb2Pvgq+hL7/v3q/9cBwwOzBZ8Hjwl/C28NYw9TEUcTOxUvFyMZGxsPHQce/yD3IvMk6ybnKOMq3yzbLtsw1zLXNNc21zjbOts83z7jQOdC60TzRvtI/0sHTRNPG1EnUy9VO1dHWVdbY11zX4Nhk2OjZbNnx2nba+9uA3AXcit0Q3ZbeHN6i3ynfr+A24L3hROHM4lPi2+Nj4+vkc+T85YTmDeaW5x/nqegy6LzpRunQ6lvq5etw6/vshu0R7ZzuKO6070DvzPBY8OXxcvH/8ozzGfOn9DT0wvVQ9d72bfb794r4Gfio+Tj5x/pX+uf7d/wH/Jj9Kf26/kv+3P9t//9wYXJhAAAAAAADAAAAAmZmAADypwAADVkAABPQAAAKW3ZjZ3QAAAAAAAAAAQABAAAAAAAAAAEAAAABAAAAAAAAAAEAAAABAAAAAAAAAAEAAG5kaW4AAAAAAAAANgAArgAAAFIAAABDwAAAsMAAACaAAAANgAAAUAAAAFRAAAIzMwACMzMAAjMzAAAAAAAAAABzZjMyAAAAAAABDHIAAAX4///zHQAAB7oAAP1y///7nf///aQAAAPZAADAcW1tb2QAAAAAAAAGEAAAoD4AAAAA1RhkgAAAAAAAAAAAAAAAAAAAAAB2Y2dwAAAAAAADAAAAAmZmAAMAAAACZmYAAwAAAAJmZgAAAAIzMzQAAAAAAjMzNAAAAAACMzM0AFZQOCCkJwAAkNwAnQEqDwKHAj6RRp1MJaOmIiE0KhDAEglnbvxn+WzuvxbSd4mf5TMUOfICPZbw9Nn+I3gHO++jjee/QA/Zn1qPWk/cj0gNWd8cf1n8ffBb+0fkr/Y/TP8a+cfrP5Rf3n56/tbHn1if0HoX/IvtJ94/t/7o/3D2g/z/96/cfzR+FH9L+UP9z+QL8m/kH+J/sX7pf2L1Wf7vtjtV/3HoBeq3zX/Q/3z96f878JHqf+N/uv7oe5n15/z3uAfzv+jf6D/Aecz4NH3b/LfsZ8AX8o/sX/g/zfuz/zf/h/0v+c/bv24/n3+X/8P+c/KT7Dv5j/a/+d/g/bc9iP7tf//3Wv3J//4wSeONN+5cxvGNW63iJDfEZu9n0DC5GVm5+jJy0pVhiFwstjfRdKhlzG8pArhKi46q4xiibaGhxz1FoAUo5+mPeIo41r9dRUK4LijvWONUfh0IqF2kvJ6CEE7WFx4X2bs/0OkaHXY30XSoZcxvKUsHJLFL6MV/Qhh/z4SPQdkN2tpAWpCcq/aMLTXAAXpvEerZ53yXo6QWdMN/qiF6XxlL8LMv3LmN9F0qGAy0BmhRmF4BBi6bINezYUgLVfT/rwm5g8soYGyc+N0TgYWGhkoYVk2bq1xH0BFDttIYmN9F0qGXMA1KNqvNETbTdhofD1eodKF1h/Jsg1RkJXE1kOfYPEPbG+i6VDLmMtF1mbrBApPVdcXnJu21BJGYuDoLPHezaH+kGO+jfRdKhlzG+jF4nktznfbMYgSSywWf037lzG+i6VDLmANgWf037lzG+i6VDLmN9F0W10qGXMb6LpUMuY30XSoZcX1pPHENKwAncnLTC1N3s+gYW/YrybPHGm/csbM6A5yp3HwJmRfuXGDHT9y5jQ19uVHDi0P+spham72fPL6bHGEYgOlBkdDUozJheIbHCsc5CfOhIFbI7BBm7liavR0TcoSi8SxKWZf4rZUbsD2FVSA0Z0GEGVBnj96VBSqwKNyHMjNFS8aM0Rk6IRt8Ih2m0nHO/IdyXzX5HhOgpG8vHmvGjfcSGEE49tk4ngHuvMgEpNdekMpQjwxkSj++Ey6LCPRtmPM3d3xYlFDZqCLlsUeBXmutB0WNKD6MSdDGRVjMoyTMoNiXPyR41lsZR0hdYVZ9d0nf4QFfUMo6h0ULMzy6im+Or5ijdWBwLsLBmhKCbEjuasJVywz2cYPwmvtRvxjDYnBaDIq2uBouRlZufoyceIp6cdVGjz4kTQuwv+h7Z6An0HLIZf5WwXRadC7C0yxtTd7PoGFwg2Eurvzc/VJ+iH12M1ZScT0dAjpXszd7MMu+CgyOkZOM08KoA+mNsJeHS6sgeHt21nnt4Uk4G/y6TYMgZZSAdfK3LLru5T2kCgyOkZLTbqpPHGm/cuY3zLVdTVqhzl9RdKhlzG+i6VDLmN9EkLNaHP4VJv3LmN9F0qGXMb6LpRLGg8fSuJryQDoy5jfRdKhlzG+i6MkGdRgCQ9O3QVqcj7m3Trdh29WCc1EJhb2kmKQ9O3BL/hXK/YYXfoob9y5jfRdKJnIRQLdPBV7GXZVDljYYAVacab9y5jfRcCUFvynOgWSdkrxJ+Xm5H3ULsKfN1ZDEjqGPBfGtDYbXSwNNiU57qQUhz5sT4VqbeHp+5cxvoulQH7lGHv+NGtU5xDPcEZnICwtOK9UNMXBB9dDeDj2kQAx5PJJImkMibimRQbEmwfOl8I2nXIwCJw1+hnxrfrpFZ80nelcjVl3Ire5HhAEhlQfHSmjYjCMlVFoWHZ44037lzG8omHmHqCIQy9IzzWRqqWOhv3LmN9F0PmPpxFTsWEfR6SfNT9zehY30XSoZcxvrZAkZU6AxAdKDIjs7cWNXXGFqbuiqBQ1Zsb6LpUMuY30YrukRUGJjfRdKhlzG+i6VDLmN81af037lzG+i6VDLmN9F0qGAdGXMb6LpUMuY30XSoZca6Jy9oUw2uUx2nbKvQhGwuzxxpv3LmN9F0qBmNtc727FAZULBODemtaaGXZLLuyWzbP47swLyj2OYwNLAnmAO5cxvoulQyrPoZyzau0hEy/Cz+mPsgzZ1OpFn9N+5cxvouAQ/ZXJU2tiJzOiIQUqKr/C/kVE2g4WBF2M9/jZ8ILO9yui2st6OjjTfuXMb6LotsV3SQgAvtlaJ2eONN+5cxvmrqAIJ8z9XSiamg3aMnerbpJQKfuXMb6LpUMrXHO8kD4GkyfKK/PArWuDhEas+/1zF8bQd4OOI5qRZ/TfuXMb6LgPfuXryai4Bg8cab9y5jfRdD7GJwk5w49WsfYjqpPGaUcXwP0A/+Chvp+5cxvoulQy89XJzFB+VrZ3xVs6VGYQRj35YPVmEgZ1u4ggMdiMAAP7/angvRKcs2kEm5orSR0KlzovfvgvnM8N+aWGEzGBpg7fNWOkRVhrJui8+kA8QAfmlthzLjS8xhKpcz0qzOUGIoAc8+ItZbeYFD2EDl4oT8Ray28wKHsK8PNxNinSmSWovsqvrHiMgFb/8bELxGhQG8ShOndGDCZ2KrafEPvxgQb6Vedg84krf9bnqY9mdL/IZuWytqjifPbjh04CaEEOsvFG31HAArI+f3SFA1dGb1O53Z0aj4GfLB7HRIbrqOLI1LUXzwedYRwoDLixxzR+hisWxWW3Fp1Mzjg87uvXzPqJZbuymLnzcXygGd6TerumF2ZOIOXodYAnxhEYCNNTcEdrfqAcrFsHzdwvRB8K3I17jLLIXGHay7kpsIzXPKq+J6zI4TZ1BTWHwT17uLt/bW+pjxU1Cy4w7hv1xDrAEe7qfB5A4LLxmtPXtt419+S30sShFHG5Cc76E/59S4bYFo9djaTPG+z3vMXYaWulCLz/TGvMIDG3bGqSCHcs2glRfzCFcJyM4lt1AY1NUrAQkEjCErHhGjY/NvpflbSyiJkPok6w8ecogbMRPv0ACSS2NQfSWyJlghpGm+DSoQrOuBAB7gLtArE34rWuvHHRx0kK9jHC+bxDi6/fG4pFScwYzkl30k5nOTmIKcFtNwXejPtq1QJ+dYDGcT6C65RYCg1qlFRKoJrEIWcAUipsEc87uGHuq2t2OWwYu4B2PM2r+U/H3j96EYBJYGl+VST9+k5h47q5ownp/567wCTirwDv+eqL+uM+EzXKutcx3100y3bvXm8rmkEd+d0VO7EVX9pNti3ZahAjjO+3YIz/kinP/oFX/XV2yP6Df5Kjdgr3DcR8RpoZgmtK3gS0k36lqgpNJYmVdXjWsy5volDn6f5Ojrh5FgcHEKDljFAtiP+E8lehFlvoxhOmAR9kLz6r6ViZu6HL41o+QOm/xiPUWI/PGvp4VYjmSafF0bh7Js3UugGhCxRoKFu/RFHiEcIDQR2hrJT61ITM4Gw3G+Hd3XrK7bBHiSuDL/YqHlINcXA71aAF3pUoelJYJS6wVjnUBDSxvX2UWE3AbPelR2rQQwbe6hir0mM3ckHILZBZw+yGlYcLHGn/3l00VrCoAmGfBBOmURgX81ELyXB9pQ2+B7zl399x6OTJFI11KD5y44OUn7VL+hTSiJQCEnQmiPALCyLXfeIhA77hZ8P3KR45kPEqtLJ74V3owlEtT7oml8PI9R8k/4zJNU/AFE1s/IC6nR1pBcofGHHoZ9P9dGgytOi3gAg064CkO8SXlxluUzCKwD7Vm0l/Ah2kmLrs3gLiXgUp5vOBWcP70VoOonM5L5a93RsrLmVeEgmuBNbiGiI9bkL3DZ8G0oS9cjwdSC4/1SDdYIzBnh+hf930r5oVQL4nuPp4imsxICOyxg4ZdlTp19z17omSxMnbNj6HPARa9LxDMiMc/pptmvCerCQ/irc8ZLAe+fBH6U49My6ulxErkMCYrdfRCVJP+MPGn32/40S3DDziQ9cU9bZuO92b5xjp3/G+BgTQzzdmzD1iNZc+urJ4Dy4XPyZAehYXc/1TGTLNRJzXQMh+5u5o95ReA5GHOKcH/NT5YNDCENEo/13cS/cSjeIP8Rf82LkpIHGkZnIfS43mBG5j6o2r/NwXaV4LshiNhdiVU+Si1zwZ0+kOO34A6kcu865dTNlWnoKx/xkLNiEU2b3Fla0UMIVwpi1I0xAKJ9fWOGRgrzXd+qj2NX9+SFjFOOvPG/N2c8lag3qO9V+fepUrtXfmAuU7vqjZcRM77tl8p0BuWzzz7Elrs5elzPj4GqKDs8gvShrTjVVvbtuAXYsrjt6BNjwZaN65dteQXYgiPQCkZRAwZnBXhzZP8IkIYpHpzfEDtkiyjhlcrPyLOtcqj9rD8m/a4pgJbLqwum1rpt58mDA7jTE6nbpMkdFHQ4wAat9RZaSxN3qSbQX4JDBzTB7VjcOjAC1flsUikJ9s594E5oXHpcI7qmDbewEy1yEByOv47fq64B85anft0QI4cq4+l1ET5memERkBkYt49xhjq2lyLwcp57Vgy2E5UnxAuiVxNRuyAsqQHUJgR6KWF86QAlZgFK7KtwWZ5y2tImYCqcV6gdb/ujcAnknEdMdUDWMd0wIgHpyTxEvzDqPg0TTxsX7iQr4JrBEPELyLZ7s/uIFf/FVjBHF9F8Lcfx47jQxR9sNBid8/o/q9CGz/q8dIy+60YvMYhZRtpROvZ+x2EyoVMc1cOcGvZT3KHLxBgYDmylehPzfgPfqgmOPNCxcOTzd/Buy57FLG6DI3ct/A7tI12YMxLJN5z5WE7ABYPAIO7WHxkps+jlHYO1nENiluO4aSlMj0u+GVQgjsX4jN9anZFf/fI7FbFyHHoL+7g5bk1NTe4KaSb4PXqxGAg2zyTFt6xRCO+2bZ+hr3yxwgVeORQJ5sVI/x4nOofquEcUUzVqVkb+pdaGuhS2ujtXtKrkhMd0MQkTwsptkjhfYCGsqwqw4nNp/UkqnsUJEr5nfV28v7p4AwrSxT2Sf/Sh8h7WfrHPx3smYraTdBvG+BGeqmDWLaT9WKzuuDejlCTpTG0ykRJqNjlByoqePKeCur9blP+cdI0Vk9sMyPImfNxJr4t0g+nwkdvx75WuEltqO3xJsu8LukdpDvwefcg8lJ3mPfaLxdMuOn3rCiwM9yHH/H1SQyeeYsWllvw1bXUXPa3Yb6mgc6fwR7bQLhpbxsl44AAAAAAAAAAJF8heJJvUcCxsbgGf3Nq+u9F/30ZZkw80FR+J5Hq/s5CLAdXQqG06uhUNp1c4YCpjHzF4rHOSAkuo/zRDTzSWa3OrARM3KX2DWYagw4XY4Y4VI24JGDT5SPPrNFB5oTXNI3nfL9I7RWQUjP+8wU+WtSuEfJbNdukU3Iy6OgoyIyAqJgTDhk62cei0b+0o/9JHav9/RWHmaBO9p+wV5WDkSaNFq6SqDAt8N/1HK4cZ5RcAaFejUiq1PlG4f+EVf2aqEUlRe0qXS27cVMZdssyGO9jjUVGNTYhbr9TAy9lloWSAIMMgPrKZF2wOMyMzgOSavq6urq6bB1J6iGyCZxtVr8vozNcul+2mckfv3twusZNT6wlAEdmnzafuMlmLaOID0i5AMLi18xvUqvCE0hS5QLMKXbjR0tsESSJI33JbhV+QqpU1A6IDrnB0rV9NNKqVenZXf91SuG/vnfxPar0jnR4SOmqBcp3Rvekoot6ENDAph97gkwiNgmCRYpJhFlPgPmu3ixs+fBKExXX4tHa9zwpDbq3KK0mkBPQLMwfwj/NHZYGikk8hPlrnXiMrhvoQVzhaLNSugQBEclVOg6F5z55fRB80WDFBRwM5pfmFJPmXVGSTvPY7ckBiX8V3EjgCRx/KTtg3vl0IlLPF9DkZJTsFcAhnjSQOlDe4oWn6+N2U3X43ZOSoKIk/v4B/80FIsVVeRVVB6wbjzbaR2l2e8RyOSuOu8bJmJgPi8CL2GdU3QxSl2HiQdF02t9Ch2tPCM3JKretg2FuAc6Z+ceuMG+pWla/74WfP8nezug4paInKILv5QOxn+fKxfckHxN3qchBcnTk8IxZ9W/8/RETWuEHZwqLqLaxN1Uc6Df8YXgINUnbxCxhCZ01BR9QkZXnlE5LuplUSP7EqSHqozVxwLMxygFsM9A0BCwJZHlatCU3SAO4N/4CXGrpdR3zNIfAg9Qu1GpwAy9U6cJMUEMd8zNaIPfPOROnnh1vYXQKrZknr+5JEC18mIY8bXingYpNvXzjZ3U2zy3V/zEjq4AMME041TdPRoINNdmtX2eBVF7a3Tf2IFouMNa+pNj9Zj7Nr/tgxI39i8IGycb5kiJUdQDyWB1VvC8CtVsgUwz3y1/7ZcKBjFWWmfIEtFeZRkbATNafdKlmQ7opYbD+YsoCuednUI4UK+0SLBPicS3Woht4JVvDS9FGur7R73y49lJOH34HV55pkrIdnA4wLdbAbc6oe1h56MJGdcO6bAjFKMkNQiaydG4aVU8c4NXE8C7Kb/wvapjIBnqVnJXHhrd2ytbPWAOeHfS4OOFOBJ6xIwlgDN96gxvXQV+tr1r7bJaH0svFa9LBr+ckr05c1CDL560WBcigD25XOp/NqedCQhTdQ3WQ8mFvZLB/qiG00BqMcrii8R4YDrHu4GICraj1Tg6/5Xobn9b0ECuE8+JkrHGhvdgwM9ypeFkRGwmeHdw/9m4gO836my69xoMRJeJ70tlo2xRRBu0fxWCd94D/n8kEcN/IH8pxsqJqGZbPEtfF6BAdJCNwMgA9bZBh8fPwNDQhK389zfqWKEUsaIjoFK4eO7/OoiNoiSZIQh2s93dFwsIe0srD/qjUJaufOievxdquVtYUHlotUPRo4gMMaK1fjp+Ops98bHn2ARS5jKVGOPXKauYZlG7DxbaqbYhTSQ1Q4fSMfVGMNChvioPtmcdyIJjhPZtd4hiQenPb7V6TbmJjJfTsZXTyANdutzCxz3NCuRoEPau5oFqYeTyTN0yCkykJAbgq828jPN1ty7zUdLp/cUDpOd43K/fIvSAHeWdHhHcunzSeg9+COKfAq/4Cez7tg+ronNkXx7zxc5G5fjWhhWASEvPP39FrMEe9gwAqQSTJjD+dW2KSnPWj9xdr8k/Pnl9lAX6ZTcfgsxbeWzCsEqxF2BHsCfR1ph7vJNLYEjJMPuwaPF0Ti1lpIkKM3d6bRj7Gf0+348DrVwZKe5xBFSHvhDSDslNNVFb2zlOzNrvpFjdADDod6iXyc4wI7n3F/qkVFcdJq8TFqi8LJjqF8+vFVbNVExVDQ5gtxKJfFXaCWcyuYgZsPeWJIv7pwm9Q6pNWn30JrahxtvbaWo6Hvol/ou/qYDM0r7nu7NQvOfc/zi50ZOe3VfsOwp26V/hiwP85mVy4/5JY892LtOilh2h9aqZL5m2/gqrcYZENtSwpzK3+5WktB267swDn4QsE7GqHIbAANyxQNAFb/opYc6JKaLlt4eILnh2yPRQWZBXuVbGwg7sHU65Ol7dxFFpyIDLnoX8G+cfx0zL9op2dP/eJ4GMx1wMS5nR7gj8g0oQjXG8NJVGUx8nivcSVzq/ttenREbSN3z9ho41NCJaI08ldU9kdHUOl/b+4o03KZ/pl18kK6XdokqKhjX6DKtcBJNEU3y8D4ME95rVaLxDZ8UOaL/HasdHGaSJTkStD+OFj50pH2mgcQfLBXjLSXZnZVcUftXLah3cS7qv4xAEcP0Lf7Nr5Wuyl/n4Nnu041l7WVSy0lPAtjRDEV6xseg1s2Kigb68UoXVTW063vTfQkIiwHiSW99X1yhCnwgliYRgbZJYwwXeHlukSe/uNKBJKEgZsgdmaewOH3HZ//Egccl86G1Y++yqMXilK6WQQyZHKb+gWKU0XDtHfycBwN8kC1tj8+lcHLudTVJKWauvpSetINhvA+HcnsGcf9wSaAp01EFYTxvQIkYr3ugPU5TPAd9iV70OnywVz46zu4iYGmYbdr0GySJb7adFj7RuVrfNL9BkY/BXRyQarAPcP2MBX40OzYMg67dJ7ojwgCRd5P6MR2ScHCMNfX0lShkyhpcghIkCMxCbn8wlcWgL4rjoPpPoeXX+8TzUOji8Ga6lAcgFi8vn5Gps8yZZLHYOmImYzf9D5Ex5xGrUKgrebQXTUfRnKIxQsPu6hMxoKV7vaGJY7F1rg3mK87RqAhhhwXmOxPMdieYBuWd7eIL6c08nzgG4QWyxHE1MbojJ/TMF3ivd20KnlBtIhauXdlSjp0Z3M+noaaXE+BJNtBn53/608Dgioq4DMgQ7HJWQDxw4CgAFM9eNL1kMxuO7kgwrEYQV6LbO4ArjWU+U2y+5JVm4SXA74XZZgAF3ScOyDDTdx9ZXEHw/73cGE4qyICGL7iYilJ4GzosqL0/HMpPS3oROTBE1hvKJjBki/Uv/RNOtv6HBeuUTuuXFXyTRvGi2CHpNmSTKH2xuVWFy6XXSuZ2+hpSQaomwxJiwjjS34HVIM7GmxD4rXVFDZLDQN05h6dZujNoty13L8t4FHeZrVwoRncIRCuWcNh9BUhDQxdXRfgcpQhT2gglGURBEnp+El3a7avZFA/PgXOfuTvVzBGudAG5S8fmYSZrt3AWQTAaq6W1+Fk2MQAB6Tg7gU3f9hlHRta9bDrhvpTj71sEWVh0ukrLzKBDmBjAjO9EM/Y9gFHGe1rA7vdfqUoAKDzuMMVYtRX2pGxCoxkTP42XIL+eSTlckCHqSQ+06Zvr7szAVSSIrvKsJn2vbimt+AAChBl3EUhS2b8Fs/4ckgX94ub3qUhe9PSqaMdd7IAB/SrmTdhs5mueeL9TUDGbtLpA1GXCI2P20LZDN5zLc9rD9HsLxM7XuuUB6jDJY+0BIO3xqNmPl44aVHCQVaAXAFul4yWjK0Safx/HAzdq/FUZdfsxKgx4kJbqqW6KscK8EL9PjU0RRTeROOJLr1NknEN0tpUWcSVaLFEJuLYHgDbToEOFRhbL2v+0AvOO6g2YCNSa3UTBVmBKzDRxfKIwA47LMD2gAv4AVsKeLiFpf79OTAqoqPVbjOhGNfCGSINYEfFyMl70is5Sz+X5Yc2Moq2eUzTAQQpiIdSCFgPn4VEXXlYOJkD4scxVBnq6yDgqcfR/kiBiEEKagUmAp9t/TJj8ED/2UiL2Kb0Pu8079okzvt6vU50zwOkxU6AfaQSgKEEgzhWO4/6rXSV+r3ZK1wA+/JFSVmaQokzGBUYmdPSIDpmekN83HlpNgeondPIOiH+zIHqX4hOt8C3Ci88rE1a/V7RAk+ElPO/F/r/Mz0sN2S2Rg+7ZbRt62xNzc6Z5tj8aDvAzlaFO0Z0fPteAeebW92eZNuR12IjsXglI0/P/A2m9TOeqBcVWVExsqyQX4zWgu+J2TJBfQbC/CweCok/F4Qm+IwOwSjohLpqMUJFbSsVK5fXncMAysKB3MabmvdWg4wBIEoVWHKzdo/M4xa3VTMYjmEJYKd10EqXzMa+XEre32r9NtpO+5ONcXInbyDLBSCJbdS5IeDU1h0nLB5tRtItr0XM1SxvuV+0LmgxQVrYWuAymJS+z3vBcZcHDwGhQlG82vfRQx6ZpYLI2bf26qQkn3nyHuwpE6YZZdxwajswdODuHglJyf/4gE/Y4/sel12styhoBvUklqlj8+h9G86RHZXdW3IsijsgZNCQ9CApOr7yrtr6GJYkBe+t4erq8hc7/Mkd2qb+7hZmLyz75+kzOUvsmli5NL5/30UNlE7n91gvg3vhM4/ESOeb1kGn34F37Bjz5SvCQdPPn5w5U9IsPuo2m5WSZR0r/La5PqmRRj/X0EPko2N9wdtXX/B1V5TMV8Jurn+sXW9qHPhd+6Qnu18f6/R9i2oxIW0cEUdo4DKWPnm52E2LU6yckUHITVrK6ewjRegOqX0jPIWKYBSl0i+nhJY2PckTAzU8g6gV6TJLAfkuH6aeM52hbl/g8LHT2UcujCF8iPG2m4QH/8uI7bVtutStbYWUpjrsfgKc+auGwhTzU+C/KxQYQVLUnG7jm18iEH2RvBZqnNGnqiIE97z8F5Qn+MWfU6h1Wv+oFTyt+0wSvNenF/DiRagA7JwpEStCyRW68P5c9JGhqun/75n8JOXnQQEAQS4nCHR8+2mmmqZ3I1tEac1Rlozbp1NnzTxX36TpTO+Rj6S/JU7DpElCFXwJDzNdlwh4w7QusIERZIDPOYk761LGhp8Wp/H1RUWDAECBixwDBvHpjbVJ2yHV9p3nCekAMwMhj5gnR2Uf7acdi1vS7Ne+jRNNlTOra29q4AEpDPgf80evfxx8RaNbybpAngejTMw+ckAHVjpUB7KRTmE48pCrOO7Hfgk9NB+kUwtWmym6A8UzR7+kBKEYqGIgDlr7tBht1KHu9P/V61kQbluAn4TgT5IsjC34ON9JUtY1nOTHXJ9sjeskWB/Qv82Hl8PYB+7TDruNIw50Tn/lcpIyNeGcB96spgRWnURWnAvJxcO4hjjRT4/M+42Jciv54WheJA5frlm1hglHllX3BZ2Ep/jb3R/kQhPgJHGX5f5XMOta5PFK8k/WOhYoeI2vLiC5UwWCpraNWC5IQIExljguat1QvpJta7PAGBo1CUVOH8X96rllMeRbGETlzjZfjGB3ECRv0heh4PK86bMwcE36iR1sqVGn3S7tjXvX+8AczTWpVu8px9JtLNRoM+Qb4uDQBBf+v4QU5AAC3EOwsx04UHqTXcH7ZujBMnGl5vdDqR32XPi2qLA523JShBv2Z/ee7BzM5EA03YRTKIS19XeRkCxEM4q+0Xfdhvz1clzWtvqVi/hq4roi9nLgvLc2G6JmPs61nZvggTl+ufV2PKKVvz++spu+RORESyk4E1N0Hw2BYXWo7KAIg5HXZ8MIuZ9PiYr69JeE8/v9qFHgeFntRI0v0CPO/EW1on3bLfiK5i30Mi3FRFKjF3MGxudFvtWcw3N8x3xgRFAw1tTMPVU4kK4KTn/sN74BbxqNTnmL+LQTo4tj06GgYWVJF2VdeIl6iqFtuCLhZ8+bNuotkf2bKLCfbiWp2K+GsAhNuCPcKQJ6HX3wcqSMiUL8M+5a+7/akkCD3WutKLcGyoSOGe47KQ1+MBW/KihlHWdtwEjY+OSqtpbg2vUdJCTThtswOL2HVXjUUhMQFKbQV85LC+EiR/aTsdv4q2/lduAkHNbtC0VddzmU9FpXN2Am16UmCnUYSz6YeoOO3MRBO88ynco/jLYPXSaGiR90XqoyVG02L+rL9RpA8s1TfduYnvBnrF2UfqW4ZEE/UsOoAyEAl6a3arOGS4NbcZlckidhjWEu7a7A3Bz0dGxeU5Mfn0ZI4X6Dx+mDkPbUpQbDJ2zW1ZHmBul1slPTyoXYE1lqDPRpmZ7JYK7yaZnyWo0dlHwZxO0CDJlHNB4IZ96zNw27IDhqZX1sqg/UTrZrIu9q6NAn9KT/eDpVt/a1jAq6X1PWIAMvZMBQ34+8ffgsBSS30waVdpWAsLeieIW50aXAZXgDdz6OGMpVtxs5o8v6DH5boWiBcPn5rjH6HNRx6H8OVVtTZ7Yc63XnMfPM9Ymm5f9AFataKPI+s4mB4WrfcmNeCUHREhlNVzIWiVAoxAnk1D4QTGhhgBAuCAAAAAAAJ9XfleZmvTijlGv12NDoEf7sK4kjLMLu+3MBctP+vgrleYFNP/MDmsRBRD/4N3W70j/k1VxfKnipF92AKafWD50SG7EFrmoSR1OyxU3YDBMjbEsPYfYYiBw8Re+gQphatMKWXVzNqBC+IeVCeDaPmngyKQMSdJRPgdLv/nQ7QpFZS53Pqqlb9qKKKWrQgA2tZNu+i9g/twlXFs9kAzU6tagflxCM1ORgmbiJgVijN9oO3gYGFCPpqoX+ZdWnXfgDnbxtILAyKMkKRtsOMEMUCro+bl8Ss6oXHD64kBVE0qG9jrKKs6bkhhDZmF8TAsLiWJ3zz5I19/wOCagojU7a9aIvTjHCK8HW37S5F4FtjtjaCnAx1DDutTI3+4oCX/xUvrtIXztPRp4N6WENzXCivu+ZUAZIQaDrO59c/c0aWkWDFJ0TNKqIUPkCG6tdKVmaL+cej1a/PUQxJA+eYFdhLJmBTyrh1Aq3ZIHeiMWF4yDgEr6TWZJStI/nskoRI92pHfC/eeUohicg3/pHjYl64sAbGNEG0w+32oksdv5gwZmO+rX/g3wzLy0IzS9CYv//fiwgr99ireFKFAJyWwhwG8cfXzOmE3z4jgPSEpmFmM5Ra7+1bieWcCiCK7Up4GNkoW37LIiY7GXYJ9Fl7wNaRPUrL2jQBAor5Etmd7piV7jHZrIK8P5r4QRym82LcCmmMEZ9gCQzk/aPpLZACaFSsCQZ55Py7JZdFFFBtGNiIuSKdye9MZMVARjfgPc4NzcH8yGPn/aR+ZVG37MET27VxaR6j97V+EJX4jxBCyzjIjF5ulnMCBXFnHf2cZYriWbv2L9ZdfOog2Ae3Q/+a1f5WhK7MTVIDfiNyTeBgPOEYYBPU7qxi3KzbeZtSnIYR3QlbZfaFYVCAXPeLyS+Wd5P1kwXW7YEhwMiyWJXrjCuwkYnPbEz4qHU4p6yBpEQMhaaos4IxGXIqscYevJaT7u2dMMUygaC3K2LSG428IEKiKOBHbQdgAM+wABXH/ipwyiJtjtMhoSpklzQtw52CmI1Z45XSPGymwLfIAURSPriJXrw6MIsOu6vwIsfoUTaT6Ey6HBp5mtyBhlBcAQv+zzFkr4wRxfh0jM5yJcbycr3R/fgDyAGOAKARYBcoO/Ayws5sXxaxr/faTJsNMjUJ5jNDeFdwBkQNKs4AP9BEAGTDiQrCP1rLDJwj8pxtupefBdV96ROA9eaZvmoBoo1OX/JqWt01TCC8oTcUcsNgoS8OmpslNKer8ei/zg5vvGU8r3PFlbdfwyZyEWa2pRUjA3fvOFhzzCegOtAIbZw4Gljw5auBgy9gjaUwy6nwGOL1wyWjKP2bARemXodDBamKns/TjaYmf8k1Cvh2yGgPLRh2Mkw48uWcdi6cGaco0nO/fa/Tiqjt3uGkONsAwIMRETxtE6MmrnKccixOgsTnTDgt5X6Q7GGWOXQdt8UXkKj41cIR8friY8s9ZbVL0Bdo6zAsmjfC2w1oiQ2rznwNRgGhH27VJvJMmufkMz5RXY3xJQB2MF9pTfswlwXgg2NuAAAAc8/jDWsdVl+ZQ2y6tw20bqNzr2LY+Hr57AQB8Kg20E0o/6QHoAQU0sm4nWtxFG1SjaMzmCRrj8fwBRoY6HaXpMv+JuwSSHD6iohheJS5SWgIGXBKkL+SIJpnxVYsP22jZs1lzNZtnKZwnx3or2+RF/2t8IoOeD8VTzuam2cCemie4+USEtUXnpIQo3BhXub9iCKmWk/YrBOBBAAAblLEOtdlBGv6sh2+OLo05ez5h7CIpdm1A1eKGBCX912btfrmkgWWKCXc//JdJeHk/vGx0YNZhQ3mjxxvmrnBOUQRamms9bClg7Ntncaf4wEW6IcHwDlRJazRET/VdzlGhhLWSIAIvRaxerOeVJ7O8X1xomfduMIRcAn9IK2P7wbGWbcBACACdUlm7VD5SMu7SSLb5urjKap42Ys7+sJ1TTLhhODlO7Fw/dTf5YAABFWElGOAAAAE1NACoAAAAIAAGHaQAEAAAAAQAAABoAAAAAAAKgAgAEAAAAAQAAAg+gAwAEAAAAAQAAAocAAAAA;" vertex="1" parent="1">
          <mxGeometry x="-456.99999999999994" y="2640" width="217" height="266.41" as="geometry" />
        </mxCell>
      </root>
    </mxGraphModel>
  </diagram>
</mxfile>
